<?xml version="1.0" encoding="UTF-8" standalone="no"?>
<svg xmlns:svg="http://www.w3.org/2000/svg" xmlns="http://www.w3.org/2000/svg" xmlns:xlink="http://www.w3.org/1999/xlink" version="1.1" width="1415" height="278" id="LO">
  <path d="m 127,18 -117,0 0,251 206,0 0,-162.03125 L 127,18 z" id="sheet" style="fill: rgb(255, 255, 255); stroke: rgb(0, 0, 0); stroke-width: 13; stroke-linejoin: round;"/>
  <path d="M 216,73.03125 216,18 l -55,0 55,55.03125 z" id="corner" style="stroke: rgb(0, 0, 0); stroke-width: 13; stroke-linejoin: round;"/>
  <path d="m 359.63846,15.130133 0,155.465407 100.6627,0 0,-23.61791 -69.9365,0 0,-131.847497 -30.7262,0" id="L" style="fill: rgb(24, 163, 3);"/>
  <path d="m 478.61249,170.59554 30.7262,0 0,-111.898406 -30.7262,0 0,111.898406 m 15.3631,-121.529006 c 9.63059,0 17.6561,-7.79621 17.6561,-17.656101 0,-9.63059 -8.02551,-17.6561 -17.6561,-17.6561 -9.85989,0 -17.6561,8.02551 -17.6561,17.6561 0,9.859891 7.79621,17.656101 17.6561,17.656101" id="i" style="fill: rgb(24, 163, 3);"/>
  <path d="m 562.84741,71.767234 -0.4586,0 0,-66.2677009 -30.7262,0 0,165.0960069 30.0383,0 0.6879,-13.0701 0.4586,0 c 9.63059,10.77708 19.26122,15.3631 35.0829,15.3631 29.80897,0 49.5288,-26.82814 49.5288,-60.30591 0,-32.331264 -17.65613,-56.178496 -48.153,-56.178496 -16.28028,0 -25.91091,4.81531 -36.4587,15.3631 m -0.4586,40.356796 c 0,-19.261176 8.71342,-32.101996 25.223,-32.101996 18.34398,0 27.516,13.070122 27.516,34.394996 0,21.09558 -8.94272,34.8536 -27.0574,34.8536 -15.82168,0 -25.6816,-12.38221 -25.6816,-32.102 l 0,-5.0446" id="b" style="fill: rgb(24, 163, 3);"/>
  <path d="m 729.58466,56.404134 c -14.67518,0.917199 -28.66251,9.859912 -35.0829,22.2421 l -0.4586,0 -0.6879,-19.9491 -30.0383,0 0,111.898406 30.7262,0 0,-42.19121 c 0,-22.47137 4.12741,-30.496901 11.2357,-35.541496 6.19109,-4.356695 13.52871,-6.1911 23.6179,-6.6497 l 0.6879,-29.809" id="r" style="fill: rgb(24, 163, 3);"/>
  <path d="m 842.5315,107.99663 c 0,-27.745268 -16.96823,-51.592496 -46.3186,-51.592496 -35.31217,0 -58.0129,24.305837 -58.0129,61.223096 0,36.00007 23.38863,55.26131 58.0129,55.26131 16.28028,0 27.74531,-2.52231 38.5224,-7.3376 l -3.2102,-22.93001 c -10.08919,4.1274 -20.40771,6.6497 -31.4141,6.6497 -18.57328,0 -30.4969,-8.48411 -31.6434,-25.9109 l 72.6881,0 c 0.9172,-4.12739 1.3758,-10.5478 1.3758,-15.3631 M 793.0027,80.022034 c 13.29939,0 19.4905,10.777112 19.9491,22.242096 l -43.3377,0 c 2.293,-12.840783 11.23571,-22.242096 23.3886,-22.242096" id="e" style="fill: rgb(24, 163, 3);"/>
  <path d="m 935.66041,12.837133 c -41.27396,0 -75.2104,30.038351 -75.2104,80.025701 0,49.987346 33.93644,80.025706 75.2104,80.025706 41.27396,0 75.21039,-30.03836 75.21039,-80.025706 0,-49.98735 -33.93643,-80.025701 -75.21039,-80.025701 m 0,15.5924 c 30.72617,0 54.1148,22.930042 54.1148,64.433301 0,41.503256 -23.38863,64.433306 -54.1148,64.433306 -30.72617,0 -54.1148,-22.93005 -54.1148,-64.433306 0,-41.503259 23.38863,-64.433301 54.1148,-64.433301" id="O"/>
  <path d="m 1040.1667,52.506034 0,7.1083 -18.1147,0 0,14.6752 18.1147,0 0,96.306006 19.2612,0 0,-96.306006 28.4332,0 0,-14.6752 -28.4332,0 0,-10.0892 c 0,-19.949081 8.4841,-31.643401 23.8472,-31.643401 7.1083,0 11.6943,1.146502 16.051,2.7516 l 1.8344,-14.2165999 c -4.1274,-1.6050984 -11.9236,-3.2102 -18.1147,-3.2102 -27.2867,0 -42.8791,17.6561319 -42.8791,49.2995009" id="f"/>
  <use transform="translate(63.898)" id="f2" xlink:href="#f"/>
  <path d="m 1173.993,170.59554 19.2612,0 0,-110.981206 -19.2612,0 0,110.981206 m 9.6306,-127.261506 c 6.6497,0 11.9236,-5.273907 11.9236,-11.923601 0,-6.649693 -5.2739,-11.9236 -11.9236,-11.9236 -6.6497,0 -11.9236,5.273907 -11.9236,11.9236 0,6.649694 5.2739,11.923601 11.9236,11.923601" id="i2"/>
  <path d="m 1233.2924,114.64633 c 0,-27.974568 16.7389,-42.649796 38.5224,-42.649796 11.465,0 21.5542,2.751604 29.809,6.6497 l 1.8344,-14.6752 c -6.879,-3.439497 -17.8854,-6.6497 -30.0383,-6.6497 -34.395,0 -60.3059,20.866339 -60.3059,59.847296 0,36.68797 23.3886,55.71991 54.3441,55.71991 13.758,0 23.6179,-1.60511 34.8536,-6.4204 l -1.8344,-14.6752 c -9.6306,4.35669 -19.9491,6.4204 -29.5797,6.4204 -22.2421,0 -37.6052,-13.98733 -37.6052,-43.56701" id="c"/>
  <path d="m 1411.8853,119.46163 c 0.4586,-4.12739 0.6879,-7.5669 0.6879,-11.0064 0,-28.433167 -14.9046,-51.133896 -43.567,-51.133896 -30.9555,0 -53.6562,25.681634 -53.6562,59.847296 0,37.60517 22.7007,55.71991 53.6562,55.71991 13.7579,0 24.0765,-2.06371 34.8536,-6.4204 l -1.8344,-14.6752 c -8.4841,4.12739 -20.6371,6.4204 -30.2676,6.4204 -22.2421,0 -36.688,-13.52873 -37.1466,-38.75171 l 77.2741,0 m -44.4842,-47.465096 c 16.9681,0 26.1402,13.987318 26.1402,32.331296 l -58.0129,0 c 2.7515,-19.490476 13.5287,-32.331296 31.8727,-32.331296" id="e2"/>
  <path d="m 405.3164,209.55486 -45.9528,0 0,6.56433 18.9602,0 0,58.8859 7.8456,0 0,-58.8859 19.147,0 0,-6.56433" id="T"/>
  <path d="m 420.45596,236.00525 0,-30.50482 -7.8456,0 0,69.50466 7.8456,0 0,-25.67812 c 0,-9.65341 5.69741,-15.44548 12.7024,-15.44548 7.28519,0 9.0598,4.24752 9.0598,13.22519 l 0,27.89841 7.8456,0 0,-30.4083 c 0,-11.39103 -5.0436,-17.27963 -14.6638,-17.27963 -6.72479,0 -11.5816,3.86138 -14.7572,8.68809 l -0.1868,0" id="h"/>
  <path d="m 499.92331,253.47795 c 0.1868,-1.73762 0.2802,-3.18564 0.2802,-4.63365 0,-11.97023 -6.07101,-21.52714 -17.746,-21.52714 -12.60899,0 -21.85561,10.81186 -21.85561,25.19544 0,15.8316 9.24662,23.45783 21.85561,23.45783 5.60399,0 9.807,-0.86881 14.1968,-2.70296 l -0.7472,-6.1782 c -3.45579,1.73762 -8.406,2.70297 -12.3288,2.70297 -9.05979,0 -14.94401,-5.69554 -15.1308,-16.31429 l 31.4758,0 m -18.1196,-19.9826 c 6.91159,0 10.6476,5.88861 10.6476,13.61133 l -23.6302,0 c 1.1208,-8.20539 5.51061,-13.61133 12.9826,-13.61133" id="e3"/>
  <path d="m 532.46155,210.42367 0,64.00221 c 4.57659,0.67574 11.3014,1.06188 16.345,1.06188 19.14698,0 37.1732,-11.48761 37.1732,-35.235 0,-20.85138 -13.82323,-31.18057 -36.9864,-31.18057 -5.137,0 -11.11461,0.38614 -16.5318,1.35148 m 7.8456,5.79205 c 2.89539,-0.48267 6.07099,-0.5792 9.5268,-0.5792 17.83938,0 27.55299,9.84651 27.55299,25.58158 0,18.63109 -12.51561,27.70532 -27.6464,27.70532 -2.8954,0 -6.1644,-0.0965 -9.43339,-0.38614 l 0,-52.32156" id="D"/>
  <path d="m 615.16724,227.31716 c -13.63639,0 -21.7622,10.61879 -21.7622,24.32663 0,13.70785 8.12581,24.32664 21.7622,24.32664 13.63639,0 21.76221,-10.61879 21.76221,-24.32664 0,-13.70784 -8.12582,-24.32663 -21.76221,-24.32663 m 0,42.47508 c -9.43338,0 -13.543,-8.3985 -13.543,-18.14845 0,-9.74994 4.10962,-18.14844 13.543,-18.14844 9.4334,0 13.54301,8.3985 13.54301,18.14844 0,9.74995 -4.10961,18.14845 -13.54301,18.14845" id="o"/>
  <path d="m 652.8848,251.45072 c 0,-11.77716 6.81821,-17.95537 15.6912,-17.95537 4.66999,0 8.77961,1.15841 12.142,2.7995 l 0.74721,-6.17819 c -2.80201,-1.44802 -7.28521,-2.7995 -12.23541,-2.7995 -14.00999,0 -24.56419,8.78464 -24.56419,25.19544 0,15.44546 9.52681,23.45783 22.13579,23.45783 5.60399,0 9.62021,-0.67574 14.19681,-2.70296 l -0.74721,-6.1782 c -3.92279,1.83415 -8.12581,2.70297 -12.0486,2.70297 -9.05979,0 -15.3176,-5.88861 -15.3176,-18.34152" id="c2"/>
  <path d="m 720.49181,267.28234 0.28019,7.72275 7.5654,0 0,-46.72258 -7.84559,0 0,25.67811 c 0,9.65341 -5.69742,15.44547 -12.70241,15.44547 -7.28519,0 -9.0598,-4.24751 -9.0598,-13.22518 l 0,-27.8984 -7.8456,0 0,30.40829 c 0,11.39103 5.04361,17.27963 14.6638,17.27963 6.7248,0 11.58161,-3.86138 14.7572,-8.68809 l 0.18681,0" id="u"/>
  <path d="m 797.71755,246.14134 0,28.86375 7.8456,0 0,-31.37364 c 0,-10.42569 -4.67001,-16.31429 -13.6364,-16.31429 -6.4446,0 -11.58161,4.24751 -14.57041,10.52224 l -0.2802,0 c -1.7746,-6.56433 -5.51061,-10.52224 -12.7024,-10.52224 -6.44459,0 -10.5542,3.57177 -13.7298,8.68809 l -0.1868,0 -0.2802,-7.72274 -7.5654,0 0,46.72258 7.8456,0 0,-23.74744 c 0,-10.52221 4.48321,-17.37616 11.4882,-17.37616 5.8842,0 8.2192,4.24752 8.2192,12.25985 l 0,28.86375 7.8456,0 0,-23.74744 c 0,-10.71528 4.48321,-17.37616 11.48821,-17.37616 5.88419,0 8.2192,4.24752 8.2192,12.25985" id="m"/>
  <use transform="translate(355.358)" id="e4" xlink:href="#e3"/>
  <path d="m 874.50404,236.00525 -0.2802,-7.72274 -7.5654,0 0,46.72258 7.8456,0 0,-25.67812 c 0,-9.65341 5.6974,-15.44548 12.7024,-15.44548 7.28519,0 9.0598,4.24752 9.0598,13.22519 l 0,27.89841 7.8456,0 0,-30.4083 c 0,-11.39103 -5.04361,-17.27963 -14.6638,-17.27963 -6.7248,0 -11.5816,3.86138 -14.7572,8.68809 l -0.1868,0" id="n"/>
  <path d="m 939.12075,228.28251 -10.8344,0 0,-10.32917 -7.8456,0 0,10.32917 -7.1918,0 0,6.17818 7.1918,0 0,29.05682 c 0,8.49501 4.4832,12.45292 11.7684,12.45292 3.8294,0 6.3512,-0.38614 8.3126,-1.25495 l -0.8406,-5.88859 c -1.5878,0.67574 -3.269,0.96535 -5.0436,0.96535 -4.5766,0 -6.3512,-2.70297 -6.3512,-8.30195 l 0,-27.0296 10.8344,0 0,-6.17818" id="t"/>
  <path d="m 979.57903,275.00509 0,-29.53949 22.69617,0 0,-6.56432 -22.69617,0 0,-22.78209 25.87177,0 0,-6.56433 -33.71737,0 0,65.45023 7.8456,0" id="F"/>
  <use transform="translate(418.658)" id="o2" xlink:href="#o"/>
  <use transform="translate(375.242)" id="u2" xlink:href="#u"/>
  <use transform="translate(251.195)" id="n2" xlink:href="#n"/>
  <path d="m 1200.7765,235.52257 c -3.3624,-5.69551 -8.2192,-8.20541 -14.5704,-8.20541 -12.142,0 -20.3612,10.42572 -20.3612,25.19544 0,14.09399 7.3786,23.45783 19.8008,23.45783 6.538,0 11.5817,-3.0891 15.1308,-8.20542 l 0.1868,0 0.2802,7.24008 7.5654,0 0,-69.50466 -7.8456,0 0,30.02214 -0.1868,0 m 0.1868,18.92072 c 0,8.10887 -4.8568,15.34895 -12.8892,15.34895 -9.0598,0 -14.01,-7.33662 -14.01,-18.05192 0,-11.00488 4.7634,-18.24497 13.8232,-18.24497 7.1918,0 13.076,6.37128 13.076,15.34895 l 0,5.59899" id="d"/>
  <path d="m 1238.8064,227.31716 c -4.5766,0 -9.1532,0.77228 -14.01,2.70296 l 0.7472,6.1782 c 4.5766,-1.83416 8.3125,-2.70297 12.142,-2.70297 6.9116,0 9.807,4.15099 9.807,10.71531 l 0,1.35148 c -2.1482,-0.38614 -4.203,-0.57921 -7.472,-0.57921 -11.4882,0 -20.1744,5.8886 -20.1744,16.12122 0,9.55689 6.8182,14.86628 14.1034,14.86628 5.9776,0 10.9278,-3.18564 13.3561,-8.20542 l 0.1869,0 0.2802,7.24008 7.5654,0 0,-31.66324 c 0,-10.52223 -6.071,-16.02469 -16.5318,-16.02469 m 8.6862,27.6088 c 0,9.26728 -4.5766,14.86628 -11.2081,14.86628 -4.7633,0 -8.0323,-3.57178 -8.0323,-9.26729 0,-6.17819 3.8294,-10.23264 12.9826,-10.23264 2.335,0 4.3898,0.2896 6.2578,0.57921 l 0,4.05444" id="a"/>
  <use transform="translate(351.162)" id="t2" xlink:href="#t"/>
  <path d="m 1301.7346,275.00509 7.8456,0 0,-46.72258 -7.8456,0 0,46.72258 m 3.9228,-53.57651 c 2.7086,0 4.8567,-2.22029 4.8567,-5.01979 0,-2.79949 -2.1481,-5.01978 -4.8567,-5.01978 -2.7086,0 -4.8568,2.22029 -4.8568,5.01978 0,2.7995 2.1482,5.01979 4.8568,5.01979" id="i3"/>
  <use transform="translate(727.134)" id="o3" xlink:href="#o"/>
  <use transform="translate(508.41)" id="n3" xlink:href="#n"/>
</svg>