<?xml version="1.0" encoding="UTF-8" standalone="no"?>
<!-- Created with Inkscape (http://www.inkscape.org/) -->

<svg
   width="100mm"
   height="40mm"
   viewBox="0 0 100 40"
   version="1.1"
   id="svg8"
   xmlns:xlink="http://www.w3.org/1999/xlink"
   xmlns="http://www.w3.org/2000/svg"
   xmlns:svg="http://www.w3.org/2000/svg"
   xmlns:rdf="http://www.w3.org/1999/02/22-rdf-syntax-ns#"
   xmlns:cc="http://creativecommons.org/ns#"
   xmlns:dc="http://purl.org/dc/elements/1.1/">
  <defs
     id="defs2">
    <mask
       id="mask128"
       height="1"
       width="1"
       y="0"
       x="0"
       maskUnits="userSpaceOnUse">
      <g
         id="g130">
        <g
           id="g132"
           clip-path="url(#clipPath118)">
          <g
             id="g134">
            <path
               id="path136"
               style="fill:url(#linearGradient122);fill-opacity:1;fill-rule:nonzero;stroke:none"
               d="M 0,0 H 595.27557 V 841.88977 H 0 Z" />
          </g>
        </g>
      </g>
    </mask>
    <clipPath
       id="clipPath118"
       clipPathUnits="userSpaceOnUse">
      <path
         id="path120"
         d="M 0,0 H 595.27557 V 841.88977 H 0 Z" />
    </clipPath>
    <linearGradient
       id="linearGradient122"
       spreadMethod="pad"
       gradientTransform="matrix(0.105982,0,0,-0.0607594,-18.730247,93.924868)"
       gradientUnits="userSpaceOnUse"
       y2="471.98828"
       x2="911.58594"
       y1="626.53125"
       x1="911.58594">
      <stop
         id="stop124"
         offset="0"
         style="stop-opacity:0;stop-color:#ffffff" />
      <stop
         id="stop126"
         offset="1"
         style="stop-opacity:1;stop-color:#ffffff" />
    </linearGradient>
    <clipPath
       id="clipPath142"
       clipPathUnits="userSpaceOnUse">
      <path
         id="path144"
         d="M 0,0 H 595.27557 V 841.88977 H 0 Z" />
    </clipPath>
    <linearGradient
       y2="471.98828"
       x2="911.58594"
       y1="626.53125"
       x1="911.58594"
       spreadMethod="pad"
       gradientTransform="matrix(0.105982,0,0,-0.0607594,-18.730247,93.924868)"
       gradientUnits="userSpaceOnUse"
       id="linearGradient4220"
       xlink:href="#linearGradient146" />
    <linearGradient
       id="linearGradient146"
       spreadMethod="pad"
       gradientTransform="matrix(0.105982,0,0,-0.0607594,-18.730247,93.924868)"
       gradientUnits="userSpaceOnUse"
       y2="471.98828"
       x2="911.58594"
       y1="626.53125"
       x1="911.58594">
      <stop
         id="stop148"
         offset="0"
         style="stop-opacity:1;stop-color:#fafdff" />
      <stop
         id="stop150"
         offset="1"
         style="stop-opacity:1;stop-color:#ffffff" />
    </linearGradient>
    <mask
       id="mask180"
       height="1"
       width="1"
       y="0"
       x="0"
       maskUnits="userSpaceOnUse">
      <g
         id="g182">
        <g
           id="g184"
           clip-path="url(#clipPath170)">
          <g
             id="g186">
            <path
               id="path188"
               style="fill:url(#linearGradient174);fill-opacity:1;fill-rule:nonzero;stroke:none"
               d="M 0,0 H 595.27557 V 841.88977 H 0 Z" />
          </g>
        </g>
      </g>
    </mask>
    <clipPath
       id="clipPath170"
       clipPathUnits="userSpaceOnUse">
      <path
         id="path172"
         d="M 0,0 H 595.27557 V 841.88977 H 0 Z" />
    </clipPath>
    <linearGradient
       id="linearGradient174"
       spreadMethod="pad"
       gradientTransform="matrix(0.00850219,0,0,-0.00992081,78.362391,79.789914)"
       gradientUnits="userSpaceOnUse"
       y2="127.49609"
       x2="309.54688"
       y1="292.83984"
       x1="309.54688">
      <stop
         id="stop176"
         offset="0"
         style="stop-opacity:0;stop-color:#ffffff" />
      <stop
         id="stop178"
         offset="1"
         style="stop-opacity:0.84678416;stop-color:#ffffff" />
    </linearGradient>
    <clipPath
       id="clipPath194"
       clipPathUnits="userSpaceOnUse">
      <path
         id="path196"
         d="M 0,0 H 595.27557 V 841.88977 H 0 Z" />
    </clipPath>
    <linearGradient
       y2="127.49609"
       x2="309.54688"
       y1="292.83984"
       x1="309.54688"
       spreadMethod="pad"
       gradientTransform="matrix(0.00850219,0,0,-0.00992081,78.362391,79.789914)"
       gradientUnits="userSpaceOnUse"
       id="linearGradient4222"
       xlink:href="#linearGradient198" />
    <linearGradient
       id="linearGradient198"
       spreadMethod="pad"
       gradientTransform="matrix(0.00850219,0,0,-0.00992081,78.362391,79.789914)"
       gradientUnits="userSpaceOnUse"
       y2="127.49609"
       x2="309.54688"
       y1="292.83984"
       x1="309.54688">
      <stop
         id="stop200"
         offset="0"
         style="stop-opacity:1;stop-color:#fafdff" />
      <stop
         id="stop202"
         offset="1"
         style="stop-opacity:1;stop-color:#ffffff" />
    </linearGradient>
    <mask
       id="mask226"
       height="1"
       width="1"
       y="0"
       x="0"
       maskUnits="userSpaceOnUse">
      <g
         id="g228">
        <g
           id="g230"
           clip-path="url(#clipPath216)">
          <g
             id="g232">
            <path
               id="path234"
               style="fill:url(#linearGradient220);fill-opacity:1;fill-rule:nonzero;stroke:none"
               d="M 0,0 H 595.27557 V 841.88977 H 0 Z" />
          </g>
        </g>
      </g>
    </mask>
    <clipPath
       id="clipPath216"
       clipPathUnits="userSpaceOnUse">
      <path
         id="path218"
         d="M 0,0 H 595.27557 V 841.88977 H 0 Z" />
    </clipPath>
    <linearGradient
       id="linearGradient220"
       spreadMethod="pad"
       gradientTransform="matrix(0.00781061,0.00191618,0.00248102,-0.00920841,71.906643,78.84049)"
       gradientUnits="userSpaceOnUse"
       y2="127.49609"
       x2="309.54688"
       y1="292.83984"
       x1="309.54688">
      <stop
         id="stop222"
         offset="0"
         style="stop-opacity:0;stop-color:#ffffff" />
      <stop
         id="stop224"
         offset="1"
         style="stop-opacity:0.84678416;stop-color:#ffffff" />
    </linearGradient>
    <clipPath
       id="clipPath240"
       clipPathUnits="userSpaceOnUse">
      <path
         id="path242"
         d="M 0,0 H 595.27557 V 841.88977 H 0 Z" />
    </clipPath>
    <linearGradient
       y2="127.49609"
       x2="309.54688"
       y1="292.83984"
       x1="309.54688"
       spreadMethod="pad"
       gradientTransform="matrix(0.00781061,0.00191618,0.00248102,-0.00920841,71.906643,78.84049)"
       gradientUnits="userSpaceOnUse"
       id="linearGradient4224"
       xlink:href="#linearGradient244" />
    <linearGradient
       id="linearGradient244"
       spreadMethod="pad"
       gradientTransform="matrix(0.00781061,0.00191618,0.00248102,-0.00920841,71.906643,78.84049)"
       gradientUnits="userSpaceOnUse"
       y2="127.49609"
       x2="309.54688"
       y1="292.83984"
       x1="309.54688">
      <stop
         id="stop246"
         offset="0"
         style="stop-opacity:1;stop-color:#fafdff" />
      <stop
         id="stop248"
         offset="1"
         style="stop-opacity:1;stop-color:#ffffff" />
    </linearGradient>
    <mask
       id="mask278"
       height="1"
       width="1"
       y="0"
       x="0"
       maskUnits="userSpaceOnUse">
      <g
         id="g280">
        <g
           id="g282"
           clip-path="url(#clipPath268)">
          <g
             id="g284">
            <path
               id="path286"
               style="fill:url(#linearGradient272);fill-opacity:1;fill-rule:nonzero;stroke:none"
               d="M 0,0 H 595.27557 V 841.88977 H 0 Z" />
          </g>
        </g>
      </g>
    </mask>
    <clipPath
       id="clipPath268"
       clipPathUnits="userSpaceOnUse">
      <path
         id="path270"
         d="M 0,0 H 595.27557 V 841.88977 H 0 Z" />
    </clipPath>
    <linearGradient
       id="linearGradient272"
       spreadMethod="pad"
       gradientTransform="matrix(0.0704548,0,0,-0.038777,58.537125,86.439604)"
       gradientUnits="userSpaceOnUse"
       y2="746.3125"
       x2="472.10547"
       y1="807.86719"
       x1="472.39062">
      <stop
         id="stop274"
         offset="0"
         style="stop-opacity:0;stop-color:#ffffff" />
      <stop
         id="stop276"
         offset="1"
         style="stop-opacity:1;stop-color:#ffffff" />
    </linearGradient>
    <clipPath
       id="clipPath292"
       clipPathUnits="userSpaceOnUse">
      <path
         id="path294"
         d="M 0,0 H 595.27557 V 841.88977 H 0 Z" />
    </clipPath>
    <linearGradient
       y2="746.3125"
       x2="472.10547"
       y1="807.86719"
       x1="472.39062"
       spreadMethod="pad"
       gradientTransform="matrix(0.0704548,0,0,-0.038777,58.537125,86.439604)"
       gradientUnits="userSpaceOnUse"
       id="linearGradient4226"
       xlink:href="#linearGradient296" />
    <linearGradient
       id="linearGradient296"
       spreadMethod="pad"
       gradientTransform="matrix(0.0704548,0,0,-0.038777,58.537125,86.439604)"
       gradientUnits="userSpaceOnUse"
       y2="746.3125"
       x2="472.10547"
       y1="807.86719"
       x1="472.39062">
      <stop
         id="stop298"
         offset="0"
         style="stop-opacity:1;stop-color:#fafdff" />
      <stop
         id="stop300"
         offset="1"
         style="stop-opacity:1;stop-color:#ffffff" />
    </linearGradient>
    <mask
       id="mask328"
       height="1"
       width="1"
       y="0"
       x="0"
       maskUnits="userSpaceOnUse">
      <g
         id="g330">
        <g
           id="g332"
           clip-path="url(#clipPath318)">
          <g
             id="g334">
            <path
               id="path336"
               style="fill:url(#linearGradient322);fill-opacity:1;fill-rule:nonzero;stroke:none"
               d="M 0,0 H 595.27557 V 841.88977 H 0 Z" />
          </g>
        </g>
      </g>
    </mask>
    <clipPath
       id="clipPath318"
       clipPathUnits="userSpaceOnUse">
      <path
         id="path320"
         d="M 0,0 H 595.27557 V 841.88977 H 0 Z" />
    </clipPath>
    <linearGradient
       id="linearGradient322"
       spreadMethod="pad"
       gradientTransform="matrix(0.0503219,0,0,-0.0542912,58.537125,86.439604)"
       gradientUnits="userSpaceOnUse"
       y2="579.98828"
       x2="277.04297"
       y1="629.17188"
       x1="254.96875">
      <stop
         id="stop324"
         offset="0"
         style="stop-opacity:0;stop-color:#ffffff" />
      <stop
         id="stop326"
         offset="1"
         style="stop-opacity:1;stop-color:#ffffff" />
    </linearGradient>
    <clipPath
       id="clipPath342"
       clipPathUnits="userSpaceOnUse">
      <path
         id="path344"
         d="M 0,0 H 595.27557 V 841.88977 H 0 Z" />
    </clipPath>
    <linearGradient
       y2="579.98828"
       x2="277.04297"
       y1="629.17188"
       x1="254.96875"
       spreadMethod="pad"
       gradientTransform="matrix(0.0503219,0,0,-0.0542912,58.537125,86.439604)"
       gradientUnits="userSpaceOnUse"
       id="linearGradient4228"
       xlink:href="#linearGradient346" />
    <linearGradient
       id="linearGradient346"
       spreadMethod="pad"
       gradientTransform="matrix(0.0503219,0,0,-0.0542912,58.537125,86.439604)"
       gradientUnits="userSpaceOnUse"
       y2="579.98828"
       x2="277.04297"
       y1="629.17188"
       x1="254.96875">
      <stop
         id="stop348"
         offset="0"
         style="stop-opacity:1;stop-color:#fafdff" />
      <stop
         id="stop350"
         offset="1"
         style="stop-opacity:1;stop-color:#ffffff" />
    </linearGradient>
  </defs>
  <metadata
     id="metadata5">
    <rdf:RDF>
      <cc:Work
         rdf:about="">
        <dc:format>image/svg+xml</dc:format>
        <dc:type
           rdf:resource="http://purl.org/dc/dcmitype/StillImage" />
      </cc:Work>
    </rdf:RDF>
  </metadata>
  <g
     id="layer1"
     transform="translate(-6.2067183,-132.67335)">
    <g
       id="g4161"
       transform="matrix(0.27324856,0,0,0.27324856,7.770444,132.32821)">
      <path
         d="m 85.404521,128.14744 c 0,0 -2.077522,-3.50729 -16.634314,-4.49893 -14.68634,0 -12.983337,1.06701 -14.012678,1.7289 -2.706432,1.87731 -3.222276,3.0998 -5.153762,3.21051 -1.931482,0.11062 -6.183104,-9.52316 -5.410509,-9.97304 l -9.01673,-10.07435 -4.122069,-8.31009 c 0,0 -1.415638,-1.104713 -1.288439,-3.321197 -0.136602,-4.425935 1.969169,-12.017608 8.373687,-18.603493 3.090373,-4.21393 8.373686,-9.643282 9.273476,-11.299184 0.902144,-1.665307 1.031693,-2.88073 1.28844,-5.98053 0.259098,-3.102139 0,-7.645836 0,-11.077758 0,-3.434278 -0.386296,-5.318655 0.515848,-8.861275 0.902144,-3.542619 3.092727,-5.869816 4.251619,-6.753132 1.15889,-0.892719 5.796807,-3.662736 11.077763,-3.111559 5.28096,0.562952 11.207317,1.648823 14.804115,6.322072 2.216497,2.751177 2.355469,3.07388 2.96318,5.087809 0.532335,1.545191 1.288439,9.753994 1.288439,11.077759 0,1.335555 0,5.650777 2.061035,8.529152 2.061034,2.880745 8.757628,10.526581 10.818662,13.185916 2.061036,2.65932 5.926356,8.971971 6.442206,11.409881 1.60172,4.527213 0.77259,9.191027 0.25674,11.508819 -0.51585,2.32955 -2.44733,6.10066 -2.44733,6.10066 0,0 -7.598741,22.81034 -10.175621,23.48165 -2.576883,0.66189 -5.153766,0.2214 -5.153766,0.2214 z"
         style="fill:#000000;fill-opacity:1;fill-rule:evenodd;stroke:none"
         id="path86" />
      <path
         id="path90"
         style="fill:#000000;fill-opacity:1;fill-rule:evenodd;stroke:#000000;stroke-width:0.733356;stroke-linecap:butt;stroke-linejoin:miter;stroke-miterlimit:4;stroke-dasharray:none;stroke-opacity:1"
         d="m 52.823691,125.3755 c 0,0 -1.288441,3.21259 -4.765111,3.76355 -3.479026,0.55298 -7.601094,-0.22079 -11.207315,-1.88583 -3.606221,-1.65693 -18.033461,-4.31451 -18.033461,-4.31451 0,0 -1.417992,-0.22079 -1.417992,-1.55565 0,-1.32474 2.061035,-4.75609 2.061035,-5.98158 0,-1.21332 -0.772594,-8.41835 -0.772594,-8.41835 0,0 0.129551,-1.32474 0.902144,-1.76632 0.772594,-0.44158 1.804289,-0.66237 3.735772,-0.66237 1.931484,0 2.447331,0.55096 3.862967,-0.22079 1.417992,-0.78188 3.349475,-3.77165 3.349475,-3.77165 0,0 0.386297,-0.885182 1.933839,-1.215354 1.545187,-0.332197 1.995081,-0.129638 2.897225,0.311941 0.902145,0.441583 2.77003,1.565783 4.058471,3.119413 1.288441,1.55565 4.637916,6.31174 6.439849,8.42038 1.804288,2.10662 4.894662,6.09096 5.796806,7.63648 0.902144,1.55363 2.190585,3.44148 1.804288,4.8756 -0.386296,1.44425 -0.645398,1.66504 -0.645398,1.66504 z" />
      <path
         d="m 62.226718,58.642305 10.298105,1.710067 1.545187,1.776019 c 0,0 3.219924,4.096168 4.765111,8.529152 1.547545,4.435355 1.547545,5.207942 1.547545,5.650777 0,0.440465 1.415633,0.772587 2.833625,2.770032 1.415638,1.995075 3.34712,5.869817 3.73577,10.295736 0.3863,4.435355 0.25674,10.083762 -0.38865,12.300262 -0.643043,2.20942 0.77495,-2.2165 1.93384,-3.0998 1.158887,-0.89272 2.317777,-1.231907 2.364888,-1.187163 0.909212,-0.864445 1.877308,-1.931476 2.466175,-5.850978 0.04474,-3.874742 -0.572381,-5.438771 -1.867885,-8.253563 -1.611142,-2.659319 -4.960615,-4.81222 -4.960615,-4.81222 0,0 3.000866,0.753763 5.926356,4.590811 1.608784,2.934923 2.510928,7.094674 1.931483,9.69746 -0.579445,2.595736 -1.28844,4.261043 -1.28844,4.261043 0,0 3.219925,0.164876 4.637915,0.607711 1.417991,0.440465 2.998512,1.057612 3.321212,1.443898 0.73726,0.506433 1.12355,1.158891 1.12355,1.712441 l -0.54411,1.73832 c -0.50642,-1.01285 -0.01,-2.13405 -1.14004,-2.751177 -0.782018,-0.506434 -1.959754,-0.975173 -2.87132,-1.279021 -0.902145,-0.275604 -2.612212,-0.699585 -4.334061,-0.65247 -1.608784,0 -2.482662,0.08242 -3.862964,1.149469 -0.59829,0.532338 -1.095293,1.231909 -1.417991,1.931489 l -4.058473,8.11458 c 0,0 -7.019292,7.15121 -12.549931,9.19339 -5.537703,2.05161 -7.471543,1.88674 -8.500881,1.94092 -1.031697,0.0542 -8.11459,0.38628 -10.305173,-1.55461 -2.190584,-1.9315 -3.606222,-4.20451 -3.606222,-4.20451 0,0 3.219925,-0.11062 4.056117,-1.61115 0.838544,-1.49101 0.322703,-2.26361 -0.127213,-3.04562 -0.452247,-0.77259 -1.674734,-1.87731 -2.320135,-2.31778 -0.643043,-0.45225 -8.82358,-5.86983 -9.532578,-6.37625 -0.70664,-0.49701 -4.185667,-2.659331 -4.765108,-5.198519 -0.579449,-2.548622 -0.0636,-5.761474 0.322703,-6.708372 0.386295,-0.937479 1.029338,-2.770033 2.381374,-4.812221 1.354394,-2.051609 3.222279,-4.103233 3.222279,-4.103233 0,0 -3.415425,5.648423 -3.672171,6.256134 -0.25674,0.617131 -1.674739,3.716931 -1.417993,5.869817 0.259098,2.162321 0.322703,3.773464 1.48159,4.491888 1.161245,0.716054 0.579444,0.329768 0.579444,0.329768 0,0 0.06597,-6.201939 2.576883,-10.526581 2.513283,-4.315223 4.960613,-8.18761 4.960613,-8.18761 0,0 1.279021,-5.916931 2.501508,-7.582253 1.15889,-2.042189 3.229344,-4.157396 3.229344,-4.157396 0,0 -0.127213,-1.059966 -0.127213,-2.991442 0,-1.940911 1.029342,-2.991442 1.029342,-2.991442 l 8.887178,-2.105787 z"
         style="fill:#ffffff;fill-opacity:1;fill-rule:evenodd;stroke:none"
         id="path92" />
      <path
         d="m 55.346398,56.378707 c 0.04474,0.03765 -1.269599,0.708989 -1.684159,0.588856 -0.405141,-0.12007 -1.959751,-1.408557 -2.228275,-2.897214 -0.275605,-1.491011 -0.909209,-3.450762 0.268532,-6.110081 0.59829,-0.819717 1.279019,-1.839634 2.868958,-1.997445 1.867888,0.193135 2.826561,0.506434 3.643912,2.466184 0.506425,1.130614 0.727839,2.235324 0.598287,3.679237 -0.367454,1.491011 -1.003429,2.706433 -1.912639,3.29529 -0.819703,0.423995 -1.509856,0.975173 -1.55461,0.975173 z"
         style="fill:#ffffff;fill-opacity:1;fill-rule:evenodd;stroke:none"
         id="path94" />
      <path
         d="m 67.64665,56.654296 c 0,0 -3.919498,-2.197661 -3.827636,-5.723796 0.230834,-2.934908 0.857393,-3.983084 3.184593,-5.205571 2.235339,-0.544113 4.176244,-0.287364 5.879247,1.333184 2.181164,2.456765 1.867885,4.932353 1.820779,5.401093 -0.04474,0.468739 0,2.824211 -1.867888,4.15975 -1.867886,1.32378 -5.189095,0.03532 -5.189095,0.03532 z"
         style="fill:#ffffff;fill-opacity:1;fill-rule:evenodd;stroke:none"
         id="path96" />
      <path
         d="m 54.849394,55.356435 c -0.09187,0.120071 -1.187155,-0.386301 -2.098722,-2.308357 -0.734907,-2.200016 -0.294437,-3.064476 0.690152,-3.523781 1.297862,-0.423995 2.11521,-0.157842 2.805363,0.708989 1.05996,1.443897 1.335548,3.128059 1.104713,3.752255 -0.313269,0.902155 -0.680731,1.335555 -1.31435,1.417993 -0.645398,0.07297 -1.187156,-0.0471 -1.187156,-0.0471 z"
         style="fill:#000000;fill-opacity:1;fill-rule:evenodd;stroke:none"
         id="path98" />
      <path
         d="m 67.140224,54.456635 c 0,0 -0.725486,-1.446252 -0.310911,-3.837048 0.402785,-1.601723 1.380304,-1.914991 2.419065,-1.95033 1.222487,0.108295 2.428489,0.826766 2.567461,2.261243 0.228474,2.586317 -0.525271,3.643913 -0.570024,3.681607 -0.911566,0.946899 -1.601719,1.260166 -2.145831,1.215422 -0.541758,-0.03765 -1.959749,-1.370894 -1.959749,-1.370894 z"
         style="fill:#000000;fill-opacity:1;fill-rule:evenodd;stroke:none"
         id="path100" />
      <path
         id="path104"
         style="fill:#ff5019;fill-opacity:1;fill-rule:evenodd;stroke:#000000;stroke-width:0.733356;stroke-linecap:butt;stroke-linejoin:miter;stroke-miterlimit:4;stroke-dasharray:none;stroke-opacity:1"
         d="m 72.790991,61.74154 c 0,0 -2.503862,0.818339 -3.460182,1.454375 -0.95632,0.625907 -3.238768,2.382095 -4.324639,2.621115 -1.23191,0.267378 -3.467248,0.856825 -4.875818,0.625908 -1.40857,-0.23902 -3.276456,-1.09382 -4.508365,-2.197767 -1.003429,-0.939874 -1.316707,-1.565782 -1.959749,-1.841263 -0.04711,-0.03646 -1.177734,-0.506398 -1.361461,-0.937849 -0.183726,-0.433476 -1.187155,-1.600217 -0.772593,-2.659601 0.402785,-1.057359 2.640479,-2.584655 3.090374,-2.981671 0.459316,-0.384862 3.146904,-2.696062 6.284387,-2.657576 3.146905,0.03646 5.787384,1.444247 8.152274,2.234228 2.36489,0.783903 3.872389,0.856825 4.324639,1.049256 0.459316,0.202559 1.323773,0.792006 1.279019,1.334865 -0.04711,0.550961 -0.461672,0.828467 -0.322699,1.454374 0.138972,0.625908 -0.405141,1.563757 -0.772594,1.912159 -0.367453,0.360555 -0.772593,0.589447 -0.772593,0.589447 z" />
      <path
         id="path108"
         style="fill:none;stroke:#000000;stroke-width:0.733356;stroke-linecap:round;stroke-linejoin:miter;stroke-miterlimit:4;stroke-dasharray:none;stroke-opacity:1"
         d="m 52.437394,60.609234 c 0.268524,0.423349 0.405141,-0.550961 2.548616,1.326763 1.68416,0.984437 3.910077,0.587421 4.913506,0.623882 2.871315,-0.265353 4.242197,-0.384863 6.515224,-1.563757 1.684159,-1.057359 3.552045,-2.033694 4.093803,-2.226125 0.551179,-0.202559 1.140046,-0.39499 1.048183,-0.39499" />
      <path
         d="m 62.448132,54.659206 1.509857,-0.0471 c 0,0 0.772592,0.322703 0.266174,0.551177 -0.497007,0.240281 -0.864458,0.120071 -1.222489,-0.117746 -0.369808,-0.23083 -0.553536,-0.386286 -0.553536,-0.386286 z"
         style="fill:#000000;fill-opacity:1;fill-rule:evenodd;stroke:none"
         id="path110" />
      <path
         d="m 57.442764,55.403534 c 0,0 0.864457,-0.515838 1.050538,-0.46874 0.183737,0.03532 -0.277929,-0.240264 -0.506426,-0.240264 -0.2214,0 -0.588867,0.240264 -0.588867,0.395721 0,0.157826 0.04474,0.313267 0.04474,0.313267 z"
         style="fill:#000000;fill-opacity:1;fill-rule:evenodd;stroke:none"
         id="path112" />
      <g
         mask="url(#mask128)"
         id="g138"
         transform="matrix(2.3554677,0,0,-2.3554677,-122.04152,234.03043)">
        <g
           id="g140" />
        <g
           id="g152">
          <g
             id="g154"
             clip-path="url(#clipPath142)">
            <g
               id="g156">
              <path
                 id="path158"
                 style="fill:url(#linearGradient4220);fill-opacity:1;fill-rule:evenodd;stroke:none"
                 d="m 86.32,60.519 c 0,-2.649 -3.742,-4.797 -8.363,-4.797 -4.621,0 -8.367,2.148 -8.367,4.797 0,2.648 3.746,4.797 8.367,4.797 4.621,0 8.363,-2.149 8.363,-4.797 z" />
            </g>
          </g>
        </g>
      </g>
      <path
         id="path162"
         style="fill:#000000;fill-opacity:1;fill-rule:evenodd;stroke:#000000;stroke-width:0.733356;stroke-linecap:butt;stroke-linejoin:miter;stroke-miterlimit:4;stroke-dasharray:none;stroke-opacity:1"
         d="m 90.567706,129.69203 c -1.721847,-0.23902 -3.479026,-0.77377 -4.38117,-2.3274 -0.899789,-1.54755 -1.288441,-4.09575 -0.899789,-5.87219 0.386297,-1.76632 2.061034,-7.96665 2.061034,-8.85994 0,-0.88316 -0.525269,-8.06996 -0.388652,-9.08073 0.350965,-2.64137 1.161246,-3.10118 1.804288,-3.21056 0.645398,-0.11141 1.931484,-0.11141 3.349475,0.66237 1.417992,0.78188 4.765112,2.216 6.5694,2.10662 1.804288,-0.11141 5.280958,-0.99457 6.698948,-1.10395 1.41564,-0.11141 2.18823,-0.22079 2.70408,0.22079 0.51585,0.44158 0.77259,0.55096 1.03169,1.76631 0.25675,1.22346 0.1272,2.43882 0.5135,3.33008 0.38865,0.88315 1.54754,2.20789 2.32013,2.88039 0.77259,0.66236 1.15889,1.10394 2.06104,1.65693 0.90214,0.55096 2.52035,0.90139 3.03619,1.46248 0.51585,0.55096 1.08587,0.53273 0.69958,2.18966 -0.3863,1.11408 -1.05761,2.17144 -2.52271,3.12752 -1.54519,0.89328 -6.75312,2.30107 -8.04157,3.19435 -1.28608,0.88316 -5.5377,3.65214 -6.43984,4.42389 -0.902148,0.77378 -2.032773,2.28285 -5.280963,3.21259 -2.162319,0.62591 -3.396584,0.43145 -4.894661,0.22079 z" />
      <path
         d="m 48.150443,73.107227 c 0.67131,-1.813698 2.042191,-3.874742 3.514359,-5.530629 0.515847,-0.607711 0.800858,-0.855041 0.772595,-0.838556 0.0096,0.0093 -0.164872,-2.970233 -0.193137,-3.448392 -0.03534,-0.471094 -3.156328,2.631045 -3.156328,2.631045 0,0 -1.213064,2.741773 -1.213064,2.88781 0,0.138972 -0.294437,4.112652 0.275604,4.298722 z"
         style="fill:#000000;fill-opacity:1;fill-rule:evenodd;stroke:none"
         id="path164" />
      <g
         mask="url(#mask180)"
         id="g190"
         transform="matrix(2.3554677,0,0,-2.3554677,-122.04152,234.03043)">
        <g
           id="g192" />
        <g
           id="g204">
          <g
             id="g206"
             clip-path="url(#clipPath194)">
            <g
               id="g208">
              <path
                 id="path210"
                 style="fill:url(#linearGradient4222);fill-opacity:1;fill-rule:evenodd;stroke:none"
                 d="m 81.727,77.694 c 0,-0.453 -0.317,-0.82 -0.704,-0.82 -0.39,0 -0.703,0.367 -0.703,0.82 0,0.454 0.313,0.821 0.703,0.821 0.387,0 0.704,-0.367 0.704,-0.821 z" />
            </g>
          </g>
        </g>
      </g>
      <g
         mask="url(#mask226)"
         id="g236"
         transform="matrix(2.3554677,0,0,-2.3554677,-122.04152,234.03043)">
        <g
           id="g238" />
        <g
           id="g250">
          <g
             id="g252"
             clip-path="url(#clipPath240)">
            <g
               id="g254">
              <path
                 id="path256"
                 style="fill:url(#linearGradient4224);fill-opacity:1;fill-rule:evenodd;stroke:none"
                 d="m 75.52,77.651 c 0.113,-0.417 -0.082,-0.832 -0.442,-0.917 -0.355,-0.09 -0.738,0.179 -0.851,0.601 -0.114,0.422 0.085,0.832 0.441,0.922 0.359,0.086 0.738,-0.184 0.852,-0.606 z" />
            </g>
          </g>
        </g>
      </g>
      <path
         d="m 83.270466,126.55516 c 0,0 -1.627626,-1.17775 -1.323772,-4.23279 0.358031,-2.51093 1.269597,-6.11008 1.665316,-7.82015 0.440473,-1.67474 0.497002,-2.69701 0.237909,-5.24563 -0.193137,-1.71007 -1.250753,-6.01586 0.544112,-7.13 2.631057,-0.95632 3.431916,2.03277 7.709447,2.50151 4.00194,0.709 4.72978,-0.073 5.733208,0.0847 1.001074,0.15549 3.283524,1.56405 -1.361459,4.69211 -3.102153,2.74176 -4.776889,3.99252 -5.521216,6.37625 -0.718421,2.30836 -0.92099,3.00793 0.02837,5.87925 0.671306,1.91264 -0.699576,5.05012 -1.978594,5.52827 -1.269596,0.4711 -3.552045,0.93984 -5.73321,-0.63361 z"
         style="fill:#ffffff;fill-opacity:1;fill-rule:evenodd;stroke:none"
         id="path258" />
      <path
         d="m 46.43802,115.75297 1.361459,2.27303 c 1.095293,2.03277 5.834491,9.16277 -5.556549,3.91009 -11.38162,-5.24564 -18.945026,-9.39362 -19.578649,-11.66665 -0.635974,-2.27302 -0.09187,-3.91949 3.549692,-3.68159 3.010289,0.23083 4.279886,-2.58395 5.283315,-3.76168 1.187154,-0.78202 2.548615,-2.19059 5.106652,-0.31326 2.400223,2.31777 7.737713,10.18504 9.83408,13.24008 z"
         style="fill:#ffffff;fill-opacity:1;fill-rule:evenodd;stroke:none"
         id="path260" />
      <path
         d="m 88.497251,100.00196 -0.819705,1.56403 c 0,0 -0.63362,2.04219 0.09187,2.89723 0.727839,0.86446 6.192522,3.2105 9.652704,1.41799 3.46961,-1.80429 3.82764,-4.31522 3.82764,-4.31522 l -3.643914,-1.794857 -6.642418,-0.709004 -2.466173,0.939831 z"
         style="fill:#000000;fill-opacity:1;fill-rule:evenodd;stroke:none"
         id="path262" />
      <g
         mask="url(#mask278)"
         id="g288"
         transform="matrix(2.3554677,0,0,-2.3554677,-122.04152,234.03043)">
        <g
           id="g290" />
        <g
           id="g302">
          <g
             id="g304"
             clip-path="url(#clipPath292)">
            <g
               id="g306">
              <path
                 id="path308"
                 style="fill:url(#linearGradient4226);fill-opacity:1;fill-rule:evenodd;stroke:none"
                 d="m 91.164,57.464 c 0.813,-0.066 2.203,-0.23 2.781,-0.664 0.313,-0.43 0.117,-0.93 -0.925,-1.328 -1.043,-0.399 -1.934,-0.531 -2.516,-0.168 -0.578,0.367 -0.926,0.965 -0.734,1.297 0.195,0.332 0.582,0.933 1.394,0.863 z" />
            </g>
          </g>
        </g>
      </g>
      <path
         id="path312"
         style="fill:none;stroke:#000000;stroke-width:0.146671;stroke-linecap:butt;stroke-linejoin:miter;stroke-miterlimit:4;stroke-dasharray:none;stroke-opacity:1"
         d="m 92.692337,98.67415 c 1.914996,0.157996 5.189096,0.542858 6.550556,1.56578 0.737261,1.01077 0.27559,2.18967 -2.178808,3.12752 -2.456752,0.93784 -4.555474,1.25181 -5.926356,0.39499 -1.361461,-0.86493 -2.181163,-2.27272 -1.728914,-3.0546 0.459317,-0.781875 1.370883,-2.197763 3.283522,-2.03369 z" />
      <g
         mask="url(#mask328)"
         id="g338"
         transform="matrix(2.3554677,0,0,-2.3554677,-122.04152,234.03043)">
        <g
           id="g340" />
        <g
           id="g352">
          <g
             id="g354"
             clip-path="url(#clipPath342)">
            <g
               id="g356">
              <path
                 id="path358"
                 style="fill:url(#linearGradient4228);fill-opacity:1;fill-rule:evenodd;stroke:none"
                 d="m 70.93,54.921 c 0,0 2.132,-1.34 2.515,-1.809 0.383,-0.468 0.957,-1.058 0.246,-1.386 -0.711,-0.328 -1.093,-0.164 -1.586,0.609 -0.492,0.777 -1.175,2.586 -1.175,2.586 z" />
            </g>
          </g>
        </g>
      </g>
      <path
         id="path362"
         style="fill:none;stroke:#000000;stroke-width:0.146671;stroke-linecap:butt;stroke-linejoin:miter;stroke-miterlimit:4;stroke-dasharray:none;stroke-opacity:1"
         d="m 45.031804,104.66382 c 0,0 5.021857,3.15588 5.924001,4.26185 0.902144,1.10395 2.254183,2.4935 0.579445,3.26525 -1.674737,0.77378 -2.574526,0.38689 -3.735771,-1.43614 -1.158891,-1.82911 -2.767675,-6.09096 -2.767675,-6.09096 z" />
      <path
         d="m 44.93052,45.797947 c -1.69358,-0.120071 -2.181164,-0.332138 -3.000865,-1.316716 -1.149469,-1.389718 -2.548618,-3.568523 -2.289517,-3.568523 0.101262,0 0.0096,-0.544113 -0.2214,-1.196583 -0.60771,-1.794859 -0.0096,-6.018224 1.003428,-7.122934 1.102361,-1.203648 5.695523,-4.498938 6.107729,-4.138556 0.101262,0.09187 7.316084,-4.859335 6.764904,-4.159766 -0.876234,1.095306 2.419065,-2.117562 2.7135,-2.273018 0.294437,-0.155472 0.791436,-0.496999 1.09529,-0.753748 0.864456,-0.746683 4.581385,-1.721856 6.559979,-1.721856 2.263604,0 5.318644,0.782022 6.607088,1.693581 3.5332,2.485024 9.871764,7.167693 9.871764,7.424442 0,0.857396 4.049048,2.338987 5.01479,3.95718 1.389727,0.506434 2.485017,5.521225 2.308359,6.633 -0.146037,0.847976 -2.510928,4.685024 -3.090373,4.998307 -1.012852,0.532338 -6.239636,0.05422 -8.300667,-0.774958 -1.535768,-0.614776 -3.340056,-0.928044 -6.421005,-1.121194 -2.355469,-0.157827 -4.859332,-0.386302 -5.565972,-0.525273 -0.838547,-0.155472 -1.095293,-0.127198 -0.727839,0.101324 0.386295,0.230829 -0.376877,0.41456 -2.364892,0.570016 -3.837055,0.313283 -6.717794,1.067031 -9.238145,2.447345 -2.061034,1.12355 -2.298934,1.151809 -6.826142,0.847961 z m 24.216564,-4.296383 c 0.294437,-0.65481 -3.606222,-1.11413 -5.492952,-0.65481 -1.177731,0.294428 -1.057605,0.350962 1.500432,0.699569 1.535767,0.202571 3.007933,0.395721 3.274102,0.42398 0.268532,0.01875 0.588866,-0.183731 0.718418,-0.468739 z"
         style="fill:#ffffff;fill-opacity:1;fill-rule:nonzero;stroke:none"
         id="path364" />
      <path
         id="path368"
         style="fill:#000000;fill-opacity:1;fill-rule:nonzero;stroke:#000000;stroke-width:0.288552;stroke-linecap:butt;stroke-linejoin:miter;stroke-miterlimit:4;stroke-dasharray:none;stroke-opacity:1"
         d="m 45.620671,45.704932 c -1.693581,-0.11951 -2.49444,-1.122178 -3.314143,-2.106615 -1.149468,-1.399684 -2.859538,-2.384121 -2.59337,-2.384121 0.101285,0 0,-0.542859 -0.221414,-1.195099 -0.617133,-1.794674 0.892722,-4.482634 2.200007,-6.542661 1.231909,-1.932414 4.498943,-5.070055 4.904084,-4.719628 0.110706,0.09115 -0.259102,0.73529 -0.810281,1.426016 -0.873879,1.09382 -0.920988,1.314609 -0.367453,1.665037 0.513492,0.322069 0.541757,0.561088 0.146039,1.205227 -0.513492,0.818338 -1.323773,1.085717 -1.323773,0.423348 0,-0.202559 -0.193149,-0.368658 -0.433406,-0.368658 -0.237902,0 -0.423984,1.049257 -0.423984,2.392224 0,2.66973 0.765527,3.874957 2.456752,3.874957 0.553535,0 1.104715,0.247122 1.243687,0.55096 0.127196,0.303839 0.522914,0.552987 0.864457,0.552987 0.332121,0 0.937476,0.49627 1.342617,1.103947 1.187155,1.794674 1.446257,1.259918 0.285011,-0.607677 -0.624199,-1.020898 -1.057605,-2.319302 -1.057605,-3.220691 0,-2.124845 1.481589,-6.340101 2.722921,-7.737759 2.338979,-2.631244 4.922927,-4.472506 6.993383,-4.968776 1.13298,-0.267378 1.830199,-0.561089 1.554609,-0.652241 -0.551179,-0.184328 -4.527209,0.384863 -5.914579,0.844672 -0.72784,0.241045 -0.664242,0.05672 0.402785,-1.166741 0.690152,-0.802134 1.500433,-1.584012 1.804288,-1.739983 0.294433,-0.15597 0.782015,-0.506398 1.085871,-0.763648 0.864456,-0.745417 4.590806,-1.719727 6.559977,-1.719727 2.263605,0 5.318646,0.789981 6.607087,1.691369 3.533202,2.493503 4.444768,3.745319 2.722921,3.745319 -1.323773,0 -2.795941,1.298404 -4.977104,4.397559 -1.63705,2.32943 -4.666181,7.711427 -5.207939,9.267081 -0.266168,0.75352 -0.193148,0.826441 0.598289,0.61578 0.522914,-0.147868 0.892722,-0.08305 0.892722,0.147868 0,0.220789 0.211992,0.39499 0.459317,0.39499 0.249679,0 0.313277,-0.210661 0.148394,-0.459809 -0.221414,-0.350427 -0.167238,-0.35853 0.219059,-0.04659 0.285011,0.22079 1.326128,0.368658 2.310713,0.313967 1.757179,-0.08305 1.766601,-0.08305 0.294434,0.182303 l -1.500433,0.277506 1.747757,0.04456 c 1.674737,0.05672 1.81371,-0.03646 3.387162,-2.060026 0.892723,-1.168766 1.98566,-2.566425 2.419066,-3.119411 0.442828,-0.542859 1.177734,-1.831135 1.646472,-2.852033 0.461671,-1.012796 1.33555,-2.511733 1.933839,-3.330072 0.965741,-1.316635 1.168312,-1.428042 1.931483,-1.012796 0.468738,0.249148 0.855035,0.662368 0.855035,0.919618 0,0.864928 -3.172815,5.623042 -3.754616,5.623042 -0.310921,0 -0.541757,0.200534 -0.497003,0.45981 0.138972,0.947977 -0.08244,1.351069 -1.959749,3.550862 -2.16232,2.521861 -2.298937,2.805444 -1.076449,2.244355 1.050539,-0.47804 3.526135,-0.587422 4.289307,-0.182303 0.320343,0.164073 0.449894,0.15597 0.313277,-0.03849 -0.129551,-0.192432 0.219058,-0.532731 0.789081,-0.763648 0.72784,-0.293711 1.123559,-0.303839 1.316707,-0.02633 0.164883,0.228892 0.07302,0.285608 -0.211992,0.127612 -0.27559,-0.145842 -0.497004,-0.09115 -0.497004,0.129638 0,0.210661 0.285012,0.386888 0.645398,0.386888 0.34861,0 0.643043,-0.166099 0.643043,-0.378786 0,-0.200533 0.525269,-0.569191 1.177734,-0.818339 1.794866,-0.67047 3.818213,-2.667704 4.122068,-4.057259 0.167239,-0.755546 0.02827,-1.867596 -0.358031,-2.805445 -0.68073,-1.667061 -0.174304,-1.739983 0.791437,-0.111407 0.661887,1.122178 1.766601,6.137542 1.582875,7.249592 -0.138973,0.856825 -2.503862,4.685193 -3.083308,4.997134 -1.012851,0.542859 -6.2467,0.05469 -8.307734,-0.763648 -1.538121,-0.61578 -3.340053,-0.937849 -6.423361,-1.132306 -2.355467,-0.145842 -4.856974,-0.386888 -5.56597,-0.5145 -0.838546,-0.166098 -1.08587,-0.129638 -0.718417,0.09115 0.376874,0.230917 -0.386297,0.415246 -2.36489,0.579319 -3.846479,0.303839 -6.72486,1.067487 -9.247566,2.438812 -2.058679,1.122178 -1.681804,0.755546 -6.199591,0.451707 z m 37.557932,-4.030927 c 1.776023,-1.462477 2.171742,-2.023566 2.36489,-3.405019 l 0.237902,-1.654909 -0.614777,1.132306 c -0.68073,1.259918 -2.529772,2.584655 -5.245626,3.781779 -0.984586,0.431451 -1.931484,0.99254 -2.105789,1.24979 -0.167238,0.249148 -0.167238,0.35853 0,0.22079 0.164883,-0.127612 0.82677,-0.10128 1.462746,0.06482 0.624199,0.166098 1.288441,0.313966 1.462745,0.332197 0.164883,0.01823 1.269597,-0.755546 2.437909,-1.721754 z M 69.21068,41.803643 c 0.294433,-0.654266 -3.606221,-1.114076 -5.483529,-0.644138 -1.187156,0.285608 -1.067027,0.340299 1.500433,0.688701 1.526343,0.212687 2.99851,0.397016 3.267034,0.423348 0.275589,0.02836 0.598289,-0.182303 0.716062,-0.467911 z m -6.559978,-1.342967 c 0,-0.22079 -0.193148,-0.295737 -0.423984,-0.166099 -0.551179,0.293711 -0.551179,0.550961 0,0.550961 0.230836,0 0.423984,-0.174201 0.423984,-0.384862 z m -6.854411,-0.350428 c 0,-0.506398 1.867886,-0.459809 2.475597,0.05469 0.515847,0.451707 0.652464,0.23902 2.061034,-3.127513 1.535765,-3.662269 5.207939,-9.358233 7.066403,-10.968578 l 1.959749,-1.701497 -2.42142,-0.220789 c -2.694655,-0.23902 -4.802799,0.147868 -7.782466,1.444246 -2.273026,0.994566 -3.801725,2.659602 -6.404516,7.00247 -1.491011,2.483375 -1.738336,3.192332 -1.500433,4.288177 0.322699,1.47058 1.841975,3.348303 2.447331,3.026234 0.211992,-0.11951 0.386296,-0.03646 0.386296,0.184329 0,0.210661 0.388653,0.386888 0.857391,0.386888 0.47816,0 0.855034,-0.166099 0.855034,-0.368658 z M 54.75753,37.928686 c -0.360386,-0.486142 0.193148,-1.498937 0.826769,-1.498937 0.746684,0 1.63705,0.984437 1.297863,1.454374 -0.341543,0.467912 -1.804288,0.506398 -2.124632,0.04456 z m 2.99851,-6.255026 c -0.423984,-0.589447 0.24968,-1.509066 1.104715,-1.509066 0.449894,0 0.937476,0.265353 1.08587,0.587422 0.405141,0.903413 -1.601718,1.739983 -2.190585,0.921644 z m 4.894662,-6.662171 c 0,-0.202559 0.487582,-0.368657 1.076449,-0.368657 0.588867,0 1.067027,0.166098 1.067027,0.368657 0,0.202559 -0.47816,0.368658 -1.067027,0.368658 -0.588867,0 -1.076449,-0.166099 -1.076449,-0.368658 z m 1.858464,6.522405 c 0.240258,-0.808211 0.230836,-0.808211 -0.598288,0.05672 -0.965742,1.010771 -1.130625,1.831135 -0.228481,1.186997 0.320344,-0.230917 0.699574,-0.792006 0.826769,-1.243713 z m 16.010114,6.5062 c -0.367453,-0.313967 0.45225,-1.610345 1.022273,-1.610345 0.247324,0 0.386297,0.358529 0.303856,0.800108 -0.138973,0.818339 -0.829125,1.241688 -1.326129,0.810237 z M 43.844648,37.009068 c -0.01884,-0.386888 0.08244,-0.607678 0.221414,-0.47804 0.146039,0.11951 0.155461,0.431451 0.03533,0.698829 -0.136617,0.295737 -0.237902,0.212687 -0.256746,-0.220789 z m 24.372025,-0.929747 c 0,-0.937849 0.746683,-1.296378 1.528698,-0.745417 0.47816,0.350427 0.506426,0.571216 0.136617,0.958104 -0.70664,0.73529 -1.665315,0.61578 -1.665315,-0.212687 z m 15.256364,-2.446914 c -0.146039,-0.322069 -0.266168,-0.83657 -0.266168,-1.150536 0,-0.45981 0.120129,-0.47804 0.643043,-0.109382 0.699574,0.49627 0.8833,1.849365 0.266168,1.849365 -0.209637,0 -0.504071,-0.267378 -0.643043,-0.589447 z M 71.749874,31.029522 c -0.725484,-0.259276 -0.671308,-1.472605 0.0848,-1.721753 0.782015,-0.25725 1.700648,0.680599 1.370882,1.407786 -0.259101,0.571217 -0.525269,0.636036 -1.455679,0.313967 z m 2.890159,-4.002569 c -0.303855,-0.313967 -0.449894,-0.644138 -0.332121,-0.745418 0.386297,-0.332197 1.620562,0.265353 1.620562,0.789981 0,0.682624 -0.617133,0.654266 -1.288441,-0.04456 z M 50.018329,26.850726 c 0.339187,-0.478039 1.076449,-0.478039 1.076449,0 0,0.202559 -0.303856,0.368658 -0.671308,0.368658 -0.369809,0 -0.553535,-0.166099 -0.405141,-0.368658 z" />
      <path
         id="path372"
         style="fill:#000000;fill-opacity:1;fill-rule:nonzero;stroke:#000000;stroke-width:1.45713;stroke-linecap:butt;stroke-linejoin:miter;stroke-miterlimit:4;stroke-dasharray:none;stroke-opacity:1"
         d="m 53.34896,25.214048 c 2.282449,-2.264611 1.830199,-6.340101 13.755932,-5.779012 3.026776,0.516526 6.468114,3.010029 7.193598,5.355664 -11.831514,-2.033694 -15.510755,-0.911516 -20.94953,0.423348 z" />
      <path
         id="path376"
         style="fill:#ffffff;fill-opacity:1;fill-rule:evenodd;stroke:#ffffff;stroke-width:0.304401;stroke-linecap:butt;stroke-linejoin:miter;stroke-miterlimit:4;stroke-dasharray:none;stroke-opacity:1"
         d="m 44.037797,34.341364 c -0.515848,-3.394892 -2.871316,3.06472 -2.871316,3.901289 0,0.864927 0.08244,1.480707 0.386297,1.950645 0.322699,0.506397 2.84305,1.997233 3.285878,2.262585 1.08587,0.625908 2.390799,0.111408 3.457826,-0.303838 0.883301,-0.3403 -1.757179,-5.602787 -1.757179,-5.971444 0,-0.330172 -0.136617,-2.823675 -2.501506,-1.839237 z" />
      <path
         id="path380"
         style="fill:#000000;fill-opacity:1;fill-rule:nonzero;stroke:#ffffff;stroke-width:0.693517;stroke-linecap:square;stroke-linejoin:miter;stroke-miterlimit:4;stroke-dasharray:none;stroke-opacity:1"
         d="m 46.320245,37.809176 c 0,0.773776 -0.782015,1.399684 -1.750113,1.399684 -0.95632,0 -1.738335,-0.625908 -1.738335,-1.399684 0,-0.77175 0.782015,-1.397658 1.738335,-1.397658 0.968098,0 1.750113,0.625908 1.750113,1.397658 z" />
      <text
         style="line-height:0%"
         y="79.170609"
         x="117.51315"
         id="text382"><tspan
           style="font-style:normal;font-variant:normal;font-weight:bold;font-stretch:normal;font-size:55.381px;line-height:1.25;font-family:'Droid Sans';-inkscape-font-specification:'Droid Sans Bold';writing-mode:lr-tb;fill:#dc3600;fill-opacity:1;fill-rule:nonzero;stroke:none"
           x="117.51315 159.21501 199.64313 231.43178 265.26956 285.92667 324.25024"
           y="79.170609"
           id="tspan384">HULK-Ri</tspan></text>
      <text
         style="line-height:0%"
         y="121.54005"
         x="122.74886"
         id="text386"><tspan
           style="font-style:normal;font-variant:normal;font-weight:bold;font-stretch:normal;font-size:27.6905px;line-height:1.25;font-family:'Droid Sans';-inkscape-font-specification:'Droid Sans Bold';writing-mode:lr-tb;fill:#4d4d4d;fill-opacity:1;fill-rule:nonzero;stroke:none"
           x="122.74886 145.78734 168.82582 190.06442 199.50688 211.77379 220.30243 229.74487 238.30124 246.82991 264.55182 282.27374 298.3342 307.77664 325.4986"
           y="121.54005"
           id="tspan388">www.ri.linux.hr</tspan></text>
    </g>
  </g>
</svg>
