<?xml version="1.0" encoding="UTF-8" standalone="no"?>
<!-- Created with Inkscape (http://www.inkscape.org/) -->

<svg
   xmlns:dc="http://purl.org/dc/elements/1.1/"
   xmlns:cc="http://creativecommons.org/ns#"
   xmlns:rdf="http://www.w3.org/1999/02/22-rdf-syntax-ns#"
   xmlns:svg="http://www.w3.org/2000/svg"
   xmlns="http://www.w3.org/2000/svg"
   xmlns:xlink="http://www.w3.org/1999/xlink"
   xmlns:sodipodi="http://sodipodi.sourceforge.net/DTD/sodipodi-0.dtd"
   xmlns:inkscape="http://www.inkscape.org/namespaces/inkscape"
   width="210mm"
   height="297mm"
   id="svg3130"
   version="1.1"
   inkscape:version="0.47 r22583"
   sodipodi:docname="HULK-Ri-2010-02-08-Sanda-Bujacic.svg">
  <defs
     id="defs3">
    <inkscape:perspective
       sodipodi:type="inkscape:persp3d"
       inkscape:vp_x="0 : 526.18109 : 1"
       inkscape:vp_y="0 : 1000 : 0"
       inkscape:vp_z="744.09448 : 526.18109 : 1"
       inkscape:persp3d-origin="372.04724 : 350.78739 : 1"
       id="perspective3136" />
    <inkscape:perspective
       id="perspective3033"
       inkscape:persp3d-origin="0.5 : 0.33333333 : 1"
       inkscape:vp_z="1 : 0.5 : 1"
       inkscape:vp_y="0 : 1000 : 0"
       inkscape:vp_x="0 : 0.5 : 1"
       sodipodi:type="inkscape:persp3d" />
    <linearGradient
       id="linearGradient865-4">
      <stop
         style="stop-color:#fafdff;stop-opacity:0.0000000;"
         offset="0.0000000"
         id="stop866-0" />
      <stop
         style="stop-color:#ffffff;stop-opacity:1.0000000;"
         offset="1.0000000"
         id="stop867-9" />
    </linearGradient>
    <linearGradient
       id="linearGradient860-4">
      <stop
         style="stop-color:#fafdff;stop-opacity:0.0000000;"
         offset="0.0000000"
         id="stop861-8" />
      <stop
         style="stop-color:#ffffff;stop-opacity:0.84677422;"
         offset="1.0000000"
         id="stop862-8" />
    </linearGradient>
    <linearGradient
       id="linearGradient3046">
      <stop
         style="stop-color:#fafdff;stop-opacity:0.0000000;"
         offset="0.0000000"
         id="stop3048" />
      <stop
         style="stop-color:#ffffff;stop-opacity:0.84677422;"
         offset="1.0000000"
         id="stop3050" />
    </linearGradient>
    <linearGradient
       id="linearGradient3053">
      <stop
         style="stop-color:#fafdff;stop-opacity:0.0000000;"
         offset="0.0000000"
         id="stop3055" />
      <stop
         style="stop-color:#ffffff;stop-opacity:1.0000000;"
         offset="1.0000000"
         id="stop3057" />
    </linearGradient>
    <linearGradient
       id="linearGradient3060">
      <stop
         style="stop-color:#fafdff;stop-opacity:0.0000000;"
         offset="0.0000000"
         id="stop3062" />
      <stop
         style="stop-color:#ffffff;stop-opacity:1.0000000;"
         offset="1.0000000"
         id="stop3064" />
    </linearGradient>
    <linearGradient
       inkscape:collect="always"
       xlink:href="#linearGradient865-4"
       id="linearGradient4356"
       gradientUnits="userSpaceOnUse"
       gradientTransform="scale(1.250806,0.799484)"
       x1="911.58417"
       y1="626.5332"
       x2="911.58417"
       y2="471.98822" />
    <linearGradient
       inkscape:collect="always"
       xlink:href="#linearGradient860-4"
       id="linearGradient4358"
       gradientUnits="userSpaceOnUse"
       gradientTransform="scale(1.194349,0.837276)"
       x1="309.547"
       y1="292.84094"
       x2="309.547"
       y2="127.49744" />
    <linearGradient
       inkscape:collect="always"
       xlink:href="#linearGradient860-4"
       id="linearGradient4360"
       gradientUnits="userSpaceOnUse"
       gradientTransform="scale(1.194349,0.837276)"
       x1="309.547"
       y1="292.84094"
       x2="309.547"
       y2="127.49744" />
    <linearGradient
       inkscape:collect="always"
       xlink:href="#linearGradient865-4"
       id="linearGradient4362"
       gradientUnits="userSpaceOnUse"
       gradientTransform="matrix(0.0699544,0,0,0.04477166,1.224725,10.42977)"
       x1="472.38922"
       y1="807.86877"
       x2="472.10596"
       y2="746.31073" />
    <linearGradient
       inkscape:collect="always"
       xlink:href="#linearGradient865-4"
       id="linearGradient4364"
       gradientUnits="userSpaceOnUse"
       gradientTransform="matrix(0.04996454,0,0,0.06268437,1.224725,10.42977)"
       x1="254.96887"
       y1="629.17017"
       x2="277.04468"
       y2="579.98926" />
    <radialGradient
       gradientTransform="matrix(0.445728,0,0,0.445728,102.6025,134.3054)"
       gradientUnits="userSpaceOnUse"
       xlink:href="#linearGradient5479"
       id="radialGradient1957"
       fy="273.52124"
       fx="228.39549"
       r="12.374369"
       cy="273.52124"
       cx="228.39549" />
    <radialGradient
       gradientTransform="matrix(0.9999997,1.1357497e-6,-8.6663327e-8,7.630491e-2,-24.809561,-97.658778)"
       gradientUnits="userSpaceOnUse"
       xlink:href="#linearGradient5479"
       id="radialGradient1941"
       fy="147.47948"
       fx="353.37662"
       r="44.017399"
       cy="147.47948"
       cx="353.37662" />
    <radialGradient
       gradientTransform="matrix(1,1.13575e-6,-8.666337e-8,7.630495e-2,4.489151,-101.038)"
       gradientUnits="userSpaceOnUse"
       xlink:href="#linearGradient5479"
       id="radialGradient5525"
       fy="147.47948"
       fx="353.37662"
       r="44.017399"
       cy="147.47948"
       cx="353.37662" />
    <radialGradient
       gradientUnits="userSpaceOnUse"
       xlink:href="#linearGradient5479"
       id="radialGradient5485"
       fy="273.52124"
       fx="228.39549"
       r="12.374369"
       cy="273.52124"
       cx="228.39549" />
    <linearGradient
       id="linearGradient5479">
      <stop
         id="stop5481"
         offset="0"
         style="stop-color:white;stop-opacity:0.8041237" />
      <stop
         id="stop5483"
         offset="1"
         style="stop-color:white;stop-opacity:0" />
    </linearGradient>
    <inkscape:perspective
       id="perspective3029"
       inkscape:persp3d-origin="240 : 176.66667 : 1"
       inkscape:vp_z="480 : 265 : 1"
       inkscape:vp_y="0 : 1000 : 0"
       inkscape:vp_x="0 : 265 : 1"
       sodipodi:type="inkscape:persp3d" />
    <inkscape:perspective
       id="perspective3160"
       inkscape:persp3d-origin="251 : 146 : 1"
       inkscape:vp_z="502 : 219 : 1"
       inkscape:vp_y="0 : 1000 : 0"
       inkscape:vp_x="0 : 219 : 1"
       sodipodi:type="inkscape:persp3d" />
    <inkscape:perspective
       id="perspective3175"
       inkscape:persp3d-origin="0.5 : 0.33333333 : 1"
       inkscape:vp_z="1 : 0.5 : 1"
       inkscape:vp_y="0 : 1000 : 0"
       inkscape:vp_x="0 : 0.5 : 1"
       sodipodi:type="inkscape:persp3d" />
    <inkscape:perspective
       id="perspective3119"
       inkscape:persp3d-origin="225 : 126.66667 : 1"
       inkscape:vp_z="450 : 190 : 1"
       inkscape:vp_y="0 : 1000 : 0"
       inkscape:vp_x="0 : 190 : 1"
       sodipodi:type="inkscape:persp3d" />
    <inkscape:perspective
       id="perspective3145"
       inkscape:persp3d-origin="217.44408 : 114.8556 : 1"
       inkscape:vp_z="434.88815 : 172.2834 : 1"
       inkscape:vp_y="0 : 1000 : 0"
       inkscape:vp_x="0 : 172.2834 : 1"
       sodipodi:type="inkscape:persp3d" />
    <inkscape:perspective
       id="perspective3244"
       inkscape:persp3d-origin="135 : 33.333333 : 1"
       inkscape:vp_z="270 : 50 : 1"
       inkscape:vp_y="0 : 1000 : 0"
       inkscape:vp_x="0 : 50 : 1"
       sodipodi:type="inkscape:persp3d" />
    <inkscape:perspective
       id="perspective3722"
       inkscape:persp3d-origin="147 : 38.674667 : 1"
       inkscape:vp_z="294 : 58.012001 : 1"
       inkscape:vp_y="0 : 1000 : 0"
       inkscape:vp_x="0 : 58.012001 : 1"
       sodipodi:type="inkscape:persp3d" />
    <inkscape:perspective
       id="perspective3213"
       inkscape:persp3d-origin="262.44699 : 117.13567 : 1"
       inkscape:vp_z="524.89398 : 175.70351 : 1"
       inkscape:vp_y="0 : 1000 : 0"
       inkscape:vp_x="0 : 175.70351 : 1"
       sodipodi:type="inkscape:persp3d" />
    <clipPath
       id="clippath1">
      <path
         id="path9"
         d="M 0,332 L 0,792 L 480,792 L 480,332 L 0,332 z " />
    </clipPath>
    <inkscape:perspective
       id="perspective3232"
       inkscape:persp3d-origin="200 : 106.66667 : 1"
       inkscape:vp_z="400 : 160 : 1"
       inkscape:vp_y="0 : 1000 : 0"
       inkscape:vp_x="0 : 160 : 1"
       sodipodi:type="inkscape:persp3d" />
    <inkscape:perspective
       id="perspective3255"
       inkscape:persp3d-origin="146.5 : 64.666667 : 1"
       inkscape:vp_z="293 : 97 : 1"
       inkscape:vp_y="0 : 1000 : 0"
       inkscape:vp_x="0 : 97 : 1"
       sodipodi:type="inkscape:persp3d" />
    <linearGradient
       y2="269.49396"
       x2="657.65295"
       y1="235.14877"
       x1="319.20822"
       gradientUnits="userSpaceOnUse"
       id="LO">
      <stop
         id="stop3276"
         offset="0"
         style="stop-color:#e54c18" />
      <stop
         id="stop3278"
         offset="1"
         style="stop-color:#fec350" />
    </linearGradient>
    <inkscape:perspective
       id="perspective3293"
       inkscape:persp3d-origin="215.5 : 115 : 1"
       inkscape:vp_z="431 : 172.5 : 1"
       inkscape:vp_y="0 : 1000 : 0"
       inkscape:vp_x="0 : 172.5 : 1"
       sodipodi:type="inkscape:persp3d" />
    <inkscape:perspective
       id="perspective3322"
       inkscape:persp3d-origin="684.49353 : 95.651337 : 1"
       inkscape:vp_z="1368.9871 : 143.47701 : 1"
       inkscape:vp_y="0 : 1000 : 0"
       inkscape:vp_x="0 : 143.47701 : 1"
       sodipodi:type="inkscape:persp3d" />
  </defs>
  <sodipodi:namedview
     inkscape:document-units="mm"
     id="base"
     pagecolor="#ffffff"
     bordercolor="#666666"
     borderopacity="1.0"
     inkscape:pageopacity="0.0"
     inkscape:pageshadow="2"
     inkscape:zoom="0.7"
     inkscape:cx="441.67221"
     inkscape:cy="833.32269"
     inkscape:current-layer="layer1"
     showgrid="false"
     inkscape:window-width="1280"
     inkscape:window-height="743"
     inkscape:window-x="0"
     inkscape:window-y="0"
     inkscape:window-maximized="1" />
  <metadata
     id="metadata4">
    <rdf:RDF>
      <cc:Work
         rdf:about="">
        <dc:format>image/svg+xml</dc:format>
        <dc:type
           rdf:resource="http://purl.org/dc/dcmitype/StillImage" />
        <dc:title />
      </cc:Work>
    </rdf:RDF>
  </metadata>
  <g
     inkscape:label="Layer 1"
     inkscape:groupmode="layer"
     id="layer1">
    <rect
       style="fill:#666666;fill-opacity:1;stroke:none"
       id="rect3068"
       width="744.09448"
       height="88.638924"
       x="0"
       y="963.72321" />
    <rect
       style="fill:#666666;fill-opacity:1;stroke:none"
       id="rect3068-1"
       width="744.09448"
       height="205.96176"
       x="0"
       y="315.74799" />
    <text
       xml:space="preserve"
       style="font-size:32px;font-style:normal;font-variant:normal;font-weight:900;font-stretch:normal;text-align:start;line-height:125%;writing-mode:lr-tb;text-anchor:start;fill:#000000;fill-opacity:1;stroke:none;font-family:Arial Black;-inkscape-font-specification:Arial Black Heavy"
       x="371.92419"
       y="245.57629"
       id="text3003"
       sodipodi:linespacing="125%"><tspan
         sodipodi:role="line"
         x="371.92419"
         y="245.57629"
         style="font-size:40px;font-style:normal;font-variant:normal;font-weight:bold;font-stretch:normal;text-align:center;line-height:125%;writing-mode:lr-tb;text-anchor:middle;font-family:DejaVu Sans Condensed;-inkscape-font-specification:'DejaVu Sans Condensed,'"
         id="tspan4386">HULK-Ri i Odjel za informatiku</tspan></text>
    <g
       id="Layer_x0020_1"
       transform="matrix(4.1907423,0,0,4.1907423,31.119156,38.266879)">
      <metadata
         id="CorelCorpID_0Corel-Layer" />
      <g
         id="_103378480">
        <polygon
           points="62.5295,62.0466 62.5295,69.999 86.1102,69.999 86.1102,62.0466 79.5408,62.0466 79.5408,27.9548 63.9125,27.9548 63.9125,35.8381 69.0989,35.8381 69.0989,62.0466 "
           class="fil0"
           id="_103369264"
           style="fill:#4d4c4e"
           transform="translate(63.701589,-32.253969)" />
        <polygon
           points="58.1038,69.999 58.1038,62.0466 34.5922,62.0466 34.5922,69.999 "
           class="fil0"
           id="_103374856"
           style="fill:#4d4c4e"
           transform="translate(63.701589,-32.253969)" />
        <path
           d="m 103.68759,14.164331 c 0,3.3062 2.7569,6.4311 5.8088,6.4311 l 1.1064,0 c 3.0113,0 5.8088,-3.0791 5.8088,-6.2928 l 0,-0.4841 c 0,-3.0697 -3.0362,-6.0160997 -6.0854,-6.0160997 l -0.2766,0 c -3.4768,0 -6.362,2.8649997 -6.362,6.3618997 z"
           class="fil1"
           id="_100109352"
           style="fill:#00b0f0" />
      </g>
    </g>
    <text
       xml:space="preserve"
       style="font-size:12px;font-style:normal;font-variant:normal;font-weight:900;font-stretch:normal;text-align:start;line-height:125%;writing-mode:lr-tb;text-anchor:start;fill:#000000;fill-opacity:1;stroke:none;font-family:Arial Black;-inkscape-font-specification:Arial Black Heavy"
       x="372.01794"
       y="857.27747"
       id="text3003-7"
       sodipodi:linespacing="125%"><tspan
         sodipodi:role="line"
         x="372.01794"
         y="857.27747"
         style="font-size:36px;font-style:normal;font-variant:normal;font-weight:normal;font-stretch:normal;text-align:center;line-height:125%;writing-mode:lr-tb;text-anchor:middle;fill:#000000;font-family:DejaVu Sans Condensed;-inkscape-font-specification:'DejaVu Sans Condensed,'"
         id="tspan3092">Predavanje će održati <tspan
   style="font-size:36px;font-weight:bold"
   id="tspan3990">David Dubrović</tspan>,</tspan><tspan
         sodipodi:role="line"
         x="372.01794"
         y="902.27747"
         style="font-size:36px;font-style:normal;font-variant:normal;font-weight:normal;font-stretch:normal;text-align:center;line-height:125%;writing-mode:lr-tb;text-anchor:middle;fill:#000000;font-family:DejaVu Sans Condensed;-inkscape-font-specification:'DejaVu Sans Condensed,'"
         id="tspan3108">jedan od pokretača IEEE LinuxLab-a,</tspan><tspan
         sodipodi:role="line"
         x="372.01794"
         y="947.27747"
         style="font-size:36px;font-style:normal;font-variant:normal;font-weight:normal;font-stretch:normal;text-align:center;line-height:125%;writing-mode:lr-tb;text-anchor:middle;fill:#000000;font-family:DejaVu Sans Condensed;-inkscape-font-specification:'DejaVu Sans Condensed,'"
         id="tspan3853">u srijedu, <tspan
   style="font-size:36px;font-weight:bold"
   id="tspan3992">24.02.2010.</tspan> u <tspan
   style="font-size:36px;font-weight:bold"
   id="tspan3994">16h</tspan> u <tspan
   style="font-size:36px;font-weight:bold"
   id="tspan3996">101</tspan>.</tspan></text>
    <text
       xml:space="preserve"
       style="font-size:72px;font-style:normal;font-variant:normal;font-weight:900;font-stretch:normal;text-align:start;line-height:125%;writing-mode:lr-tb;text-anchor:start;fill:#ffffff;fill-opacity:1;stroke:none;font-family:Arial Black;-inkscape-font-specification:Arial Black Heavy"
       x="369.92224"
       y="362.24103"
       id="text3003-7-8"
       sodipodi:linespacing="125%"><tspan
         sodipodi:role="line"
         x="369.92224"
         y="362.24103"
         style="font-size:48px;font-style:normal;font-variant:normal;font-weight:bold;font-stretch:normal;text-align:center;line-height:125%;writing-mode:lr-tb;text-anchor:middle;fill:#ffffff;font-family:DejaVu Sans Condensed;-inkscape-font-specification:'DejaVu Sans Condensed,'"
         id="tspan3192">Xorg nije zastario</tspan><tspan
         sodipodi:role="line"
         x="369.92224"
         y="422.24103"
         style="font-size:48px;font-style:normal;font-variant:normal;font-weight:bold;font-stretch:normal;text-align:center;line-height:125%;writing-mode:lr-tb;text-anchor:middle;fill:#ffffff;font-family:DejaVu Sans Condensed;-inkscape-font-specification:'DejaVu Sans Condensed,'"
         id="tspan3196">i ne treba ga pisati ispočetka</tspan></text>
    <text
       xml:space="preserve"
       style="font-size:36px;font-style:normal;font-variant:normal;font-weight:900;font-stretch:normal;text-align:start;line-height:125%;writing-mode:lr-tb;text-anchor:start;fill:#000000;fill-opacity:1;stroke:none;font-family:Arial Black;-inkscape-font-specification:Arial Black Heavy"
       x="371.39294"
       y="290.48923"
       id="text3003-7-1-4"
       sodipodi:linespacing="125%"><tspan
         sodipodi:role="line"
         x="371.39294"
         y="290.48923"
         style="font-size:40px;font-style:normal;font-variant:normal;font-weight:normal;font-stretch:normal;text-align:center;line-height:125%;writing-mode:lr-tb;text-anchor:middle;font-family:DejaVu Sans Condensed;-inkscape-font-specification:DejaVu Sans Condensed"
         id="tspan3456">pozivaju vas na predavanje</tspan></text>
    <text
       xml:space="preserve"
       style="font-size:12px;font-style:normal;font-variant:normal;font-weight:900;font-stretch:normal;text-align:start;line-height:125%;writing-mode:lr-tb;text-anchor:start;fill:#ffffff;fill-opacity:1;stroke:none;font-family:Arial Black;-inkscape-font-specification:Arial Black Heavy"
       x="372.67224"
       y="469.54169"
       id="text3003-7-1-4-2-1"
       sodipodi:linespacing="125%"><tspan
         sodipodi:role="line"
         x="372.67224"
         y="469.54169"
         style="font-size:30px;font-style:normal;font-variant:normal;font-weight:normal;font-stretch:normal;text-align:center;line-height:125%;writing-mode:lr-tb;text-anchor:middle;fill:#ffffff;font-family:DejaVu Sans Condensed;-inkscape-font-specification:'DejaVu Sans Condensed,'"
         id="tspan3198">Pregled razvoja upravljačkih programa</tspan><tspan
         sodipodi:role="line"
         x="372.67224"
         y="507.04169"
         style="font-size:30px;font-style:normal;font-variant:normal;font-weight:normal;font-stretch:normal;text-align:center;line-height:125%;writing-mode:lr-tb;text-anchor:middle;fill:#ffffff;font-family:DejaVu Sans Condensed;-inkscape-font-specification:'DejaVu Sans Condensed,'"
         id="tspan3202">grafičkih kartica pod Linuxom unatrag godinu dana</tspan></text>
    <text
       xml:space="preserve"
       style="font-size:40px;font-style:normal;font-variant:normal;font-weight:900;font-stretch:normal;text-align:start;line-height:125%;writing-mode:lr-tb;text-anchor:start;fill:#ffffff;fill-opacity:1;stroke:none;font-family:Arial Black;-inkscape-font-specification:Arial Black Heavy"
       x="369.60974"
       y="1026.7872"
       id="text3003-7-85"
       sodipodi:linespacing="125%"><tspan
         sodipodi:role="line"
         x="369.60974"
         y="1026.7872"
         style="font-size:64px;font-style:normal;font-variant:normal;font-weight:bold;font-stretch:normal;text-align:center;line-height:125%;writing-mode:lr-tb;text-anchor:middle;fill:#ffffff;font-family:DejaVu Sans Condensed;-inkscape-font-specification:'DejaVu Sans Condensed, Bold'"
         id="tspan3392-7">http://www.ri.linux.hr</tspan></text>
    <g
       id="g3953"
       transform="matrix(1.1488948,0,0,1.1488948,-183.5116,542.75486)">
      <g
         transform="matrix(3.4476375,0,0,2.9647766,209.72245,-471.75761)"
         id="g6766">
        <path
           sodipodi:nodetypes="ccccccccccccccssscccccccc"
           d="m 30.549459,58.329437 c 0,0 -0.879387,-1.715168 -7.014459,-2.203804 -6.189389,0 -5.472884,0.520733 -5.907217,0.846485 -1.140151,0.922985 -1.357317,1.520203 -2.171711,1.574497 -0.814394,0.05429 -2.606059,-4.669188 -2.280302,-4.886359 L 9.3752727,48.719627 7.6379077,44.647656 c 0,0 -0.5972253,-0.542922 -0.5429233,-1.628784 -0.059653,-2.168238 0.8302903,-5.890219 3.5290286,-9.121189 1.30303,-2.063125 3.52903,-4.723467 3.909075,-5.537863 0.380047,-0.814396 0.434349,-1.411605 0.542926,-2.931807 0.10859,-1.520194 0,-3.746203 0,-5.429281 0,-1.683071 -0.162879,-2.606048 0.217179,-4.343421 0.380046,-1.737364 1.30303,-2.877512 1.791665,-3.311845 0.488623,-0.434349 2.443166,-1.791667 4.669178,-1.52021 2.225999,0.271465 4.72537,0.804747 6.243663,3.094691 0.935027,1.352336 0.993169,1.507029 1.248743,2.497465 0.224919,0.757841 0.542924,4.777762 0.542924,5.429274 0,0.651512 0,2.768939 0.868681,4.180544 0.868682,1.411621 3.691909,5.157816 4.56059,6.460848 0.868696,1.303023 2.49747,4.397707 2.71465,5.592157 0.672906,2.219852 0.325755,4.506304 0.108575,5.646444 -0.217167,1.140148 -1.03156,2.986102 -1.03156,2.986102 0,0 -3.203273,11.184322 -4.289134,11.510082 -1.085851,0.325752 -2.171709,0.108574 -2.171709,0.108574 z"
           id="path1290"
           style="fill:#000000;fill-opacity:1;fill-rule:evenodd;stroke:none"
           inkscape:export-filename="/mnt/data/rilinux/pecat1c.png"
           inkscape:export-xdpi="26.23"
           inkscape:export-ydpi="26.23" />
        <path
           sodipodi:nodetypes="ccccccccccsssscccc"
           d="m 16.813389,56.972118 c 0,0 -0.542923,1.574497 -2.008832,1.845954 -1.465909,0.271474 -3.203271,-0.108573 -4.723481,-0.922969 -1.5201973,-0.814387 -7.6009828,-2.117419 -7.6009828,-2.117419 0,0 -0.5972252,-0.108589 -0.5972252,-0.760109 0,-0.651512 0.86868,-2.33459 0.86868,-2.931799 0,-0.597226 -0.3257438,-4.126258 -0.3257438,-4.126258 0,0 0.054289,-0.651512 0.3800457,-0.868674 0.3257584,-0.217187 0.7600923,-0.32576 1.5744858,-0.32576 0.8143917,0 1.0315607,0.271449 1.6287859,-0.10859 0.5972277,-0.380046 1.4116057,-1.845954 1.4116057,-1.845954 0,0 0.1628808,-0.434349 0.8143944,-0.597233 0.651515,-0.162876 0.843471,-0.06359 1.223519,0.153567 0.380058,0.217187 1.1653723,0.769418 1.7082953,1.529527 0.542926,0.760093 1.954546,3.094675 2.714638,4.126242 0.760104,1.031574 2.063133,2.986102 2.44318,3.746203 0.380046,0.760093 0.922982,1.683078 0.760104,2.388885 -0.162879,0.705798 -0.271469,0.814387 -0.271469,0.814387 z"
           id="path1291"
           style="fill:#000000;fill-rule:evenodd;stroke:#000000;stroke-width:0.33335376;stroke-opacity:1"
           inkscape:export-filename="/mnt/data/rilinux/pecat1c.png"
           inkscape:export-xdpi="26.23"
           inkscape:export-ydpi="26.23" />
        <path
           sodipodi:nodetypes="ccccccccccccccccccccccccccccccccccccccccccccccccc"
           d="m 20.776766,24.260718 4.343421,0.841543 0.651513,0.868682 c 0,0 1.35732,2.008831 2.008832,4.180545 0.651515,2.171706 0.651515,2.551752 0.651515,2.768931 0,0.217171 0.597213,0.380047 1.194439,1.357318 0.597213,0.977272 1.411606,2.877521 1.574485,5.049227 0.162879,2.171714 0.108591,4.940645 -0.162879,6.026499 -0.271454,1.085861 0.325758,-1.085854 0.814394,-1.520203 0.488637,-0.434333 0.977271,-0.600514 0.996476,-0.581314 0.3839,-0.422295 0.78997,-0.946827 1.039511,-2.866268 0.01919,-1.900241 -0.242957,-2.665008 -0.787244,-4.044816 -0.678668,-1.303032 -2.090274,-2.361745 -2.090274,-2.361745 0,0 1.262132,0.372901 2.49747,2.253156 0.678652,1.438768 1.058711,3.474738 0.814394,4.75063 -0.244317,1.275876 -0.54294,2.090272 -0.54294,2.090272 0,0 1.35732,0.08143 1.954545,0.298605 0.597228,0.21717 1.264637,0.515775 1.400366,0.705806 0.308497,0.247607 0.472739,0.57007 0.472739,0.841543 l -0.230888,0.851119 c -0.211501,-0.494736 -7.08e-4,-1.047056 -0.48095,-1.349841 -0.326493,-0.247364 -0.825752,-0.475536 -1.209836,-0.626924 -0.377686,-0.132196 -1.100895,-0.341169 -1.824104,-0.319806 -0.678416,0.0022 -1.049699,0.04275 -1.632145,0.563192 -0.249709,0.264515 -0.461037,0.605805 -0.595586,0.947095 l -1.708926,3.979965 c 0,0 -2.958955,3.501893 -5.293544,4.506312 -2.334587,1.004411 -3.148982,0.922969 -3.583328,0.950125 -0.434335,0.02714 -3.420439,0.190015 -4.343422,-0.76011 -0.922972,-0.950116 -1.520196,-2.063116 -1.520196,-2.063116 0,0 1.357317,-0.0543 1.710225,-0.787241 0.352907,-0.732954 0.135727,-1.113016 -0.05429,-1.493063 -0.190029,-0.380046 -0.705815,-0.922969 -0.977272,-1.140148 -0.271469,-0.21717 -3.719059,-2.877512 -4.017664,-3.12183 -0.29862,-0.244318 -1.764528,-1.303032 -2.0088473,-2.551761 -0.244305,-1.248745 -0.027138,-2.823226 0.13574,-3.284722 0.1628813,-0.461489 0.4343373,-1.357319 1.0044103,-2.36173 0.570077,-1.004419 1.357332,-2.00883 1.357332,-2.00883 0,0 -1.43877,2.768923 -1.547347,3.067544 -0.108591,0.298605 -0.705816,1.818807 -0.597226,2.877513 0.10859,1.058713 0.135728,1.845954 0.624363,2.198861 0.488638,0.352899 0.244317,0.162876 0.244317,0.162876 0,0 0.02715,-3.040405 1.085863,-5.157816 1.058712,-2.117419 2.090273,-4.017676 2.090273,-4.017676 0,0 0.541141,-2.900334 1.056074,-3.713677 0.487902,-1.002629 1.359955,-2.041349 1.359955,-2.041349 0,0 -0.05429,-0.515783 -0.05429,-1.465907 0,-0.950125 0.434333,-1.465908 0.434333,-1.465908 l 3.74621,-1.031558 z"
           id="path842"
           style="fill:#ffffff;fill-opacity:1;fill-rule:evenodd;stroke:none"
           inkscape:export-filename="/mnt/data/rilinux/pecat1c.png"
           inkscape:export-xdpi="26.23"
           inkscape:export-ydpi="26.23" />
        <path
           sodipodi:nodetypes="ccccccccc"
           d="m 17.878658,23.151703 c 0.0192,0.01919 -0.537466,0.345511 -0.710223,0.287927 -0.172767,-0.05759 -0.825411,-0.691029 -0.940572,-1.420459 -0.115175,-0.729422 -0.383914,-1.689195 0.115161,-2.994471 0.24954,-0.403103 0.537482,-0.902197 1.209314,-0.978965 0.787006,0.09597 1.19011,0.249535 1.535634,1.2093 0.211146,0.556671 0.30712,1.094141 0.249538,1.804363 -0.153567,0.729429 -0.422294,1.324484 -0.806208,1.612419 -0.345511,0.211143 -0.63344,0.479886 -0.652644,0.479886 z"
           id="path1294"
           style="fill:#ffffff;fill-opacity:1;fill-rule:evenodd;stroke:none"
           inkscape:export-filename="/mnt/data/rilinux/pecat1c.png"
           inkscape:export-xdpi="26.23"
           inkscape:export-ydpi="26.23" />
        <path
           sodipodi:nodetypes="ccccccc"
           d="m 23.061422,23.286063 c 0,0 -1.650808,-1.074933 -1.612418,-2.802528 0.09597,-1.439643 0.362025,-1.95558 1.343677,-2.552975 0.940572,-0.268736 1.760238,-0.140104 2.476205,0.652646 0.921383,1.203564 0.78702,2.418608 0.767817,2.648959 -0.01919,0.230335 0,1.382068 -0.787007,2.034714 -0.78702,0.652638 -2.188274,0.01918 -2.188274,0.01918 z"
           id="path1295"
           style="fill:#ffffff;fill-opacity:1;fill-rule:evenodd;stroke:none"
           inkscape:export-filename="/mnt/data/rilinux/pecat1c.png"
           inkscape:export-xdpi="26.23"
           inkscape:export-ydpi="26.23" />
        <path
           sodipodi:nodetypes="ccccccc"
           d="m 17.667513,22.652625 c -0.03839,0.05758 -0.499078,-0.19196 -0.882994,-1.132525 -0.312665,-1.079922 -0.123844,-1.503376 0.287932,-1.727594 0.548001,-0.206177 0.894926,-0.07737 1.184732,0.348208 0.445364,0.708294 0.562048,1.532938 0.466075,1.840065 -0.134363,0.441503 -0.287929,0.652646 -0.556668,0.691038 -0.268728,0.03839 -0.499077,-0.01919 -0.499077,-0.01919 z"
           id="path1296"
           style="fill:#000000;fill-opacity:1;fill-rule:evenodd;stroke:none"
           inkscape:export-filename="/mnt/data/rilinux/pecat1c.png"
           inkscape:export-xdpi="26.23"
           inkscape:export-ydpi="26.23" />
        <path
           sodipodi:nodetypes="ccccccc"
           d="m 22.850275,22.21113 c 0,0 -0.307135,-0.710238 -0.134376,-1.881154 0.172766,-0.787014 0.584291,-0.940573 1.020054,-0.959765 0.515933,0.05758 1.025777,0.406149 1.083372,1.113324 0.09597,1.266892 -0.222271,1.785171 -0.241474,1.804379 -0.383903,0.460687 -0.671829,0.614246 -0.902179,0.595046 -0.23035,-0.01918 -0.825397,-0.67183 -0.825397,-0.67183 z"
           id="path1297"
           style="fill:#000000;fill-opacity:1;fill-rule:evenodd;stroke:none"
           inkscape:export-filename="/mnt/data/rilinux/pecat1c.png"
           inkscape:export-xdpi="26.23"
           inkscape:export-ydpi="26.23" />
        <path
           sodipodi:nodetypes="cccccccccccccccc"
           d="m 25.230495,25.781479 c 0,0 -1.055747,0.403087 -1.458851,0.710222 -0.403104,0.307135 -1.362866,1.170916 -1.823564,1.286092 -0.518265,0.134367 -1.458852,0.422294 -2.053901,0.307119 -0.595061,-0.115176 -1.382067,-0.537471 -1.900346,-1.074933 -0.422294,-0.460686 -0.55667,-0.767821 -0.825398,-0.902181 -0.0192,-0.01921 -0.499088,-0.249551 -0.575871,-0.460703 -0.07677,-0.211143 -0.499078,-0.787005 -0.326323,-1.305284 0.17277,-0.518278 1.113342,-1.266892 1.305298,-1.458851 0.191945,-0.191951 1.324475,-1.324476 2.648961,-1.305284 1.324477,0.01919 2.437816,0.710238 3.435972,1.094141 0.998164,0.383902 1.631618,0.422294 1.823561,0.518278 0.191957,0.09597 0.55667,0.383903 0.537479,0.652638 -0.0192,0.268727 -0.191954,0.403103 -0.134375,0.71023 0.0576,0.307127 -0.172754,0.767813 -0.32632,0.940573 -0.153569,0.172767 -0.326322,0.287943 -0.326322,0.287943 z"
           id="path1298"
           style="fill:#ffffff;fill-rule:evenodd;stroke:#000000;stroke-width:0.33335376;stroke-opacity:1"
           inkscape:export-filename="/mnt/data/rilinux/pecat1c.png"
           inkscape:export-xdpi="26.23"
           inkscape:export-ydpi="26.23" />
        <path
           sodipodi:nodetypes="cccccc"
           d="m 16.650157,25.224809 c 0.115175,0.211143 0.172754,-0.268743 1.074935,0.652638 0.710237,0.479886 1.650809,0.287935 2.073104,0.307135 1.209311,-0.134376 1.785171,-0.19196 2.744944,-0.767822 0.710239,-0.518278 1.497242,-0.998165 1.727593,-1.094132 0.230337,-0.09599 0.479874,-0.19196 0.441483,-0.19196"
           id="path1299"
           style="fill:none;stroke:#000000;stroke-width:0.33335376;stroke-linecap:round;stroke-opacity:1"
           inkscape:export-filename="/mnt/data/rilinux/pecat1c.png"
           inkscape:export-xdpi="26.23"
           inkscape:export-ydpi="26.23" />
        <path
           d="m 20.873145,22.307106 0,0 0.633438,-0.01919 c 0,0 0.326335,0.153551 0.115175,0.268727 -0.211144,0.115176 -0.36471,0.05759 -0.518266,-0.05758 -0.153566,-0.115175 -0.230347,-0.191951 -0.230347,-0.191951 z"
           id="path1301"
           style="fill:#000000;fill-opacity:1;fill-rule:evenodd;stroke:none"
           inkscape:export-filename="/mnt/data/rilinux/pecat1c.png"
           inkscape:export-xdpi="26.23"
           inkscape:export-ydpi="26.23" />
        <path
           d="m 18.761649,22.671817 c 0,0 0.364715,-0.249535 0.441498,-0.230352 0.07678,0.0192 -0.115175,-0.115159 -0.211148,-0.115159 -0.09598,0 -0.249551,0.115159 -0.249551,0.191943 0,0.07678 0.0192,0.153568 0.0192,0.153568 z"
           id="path1302"
           style="fill:#000000;fill-opacity:1;fill-rule:evenodd;stroke:none"
           inkscape:export-filename="/mnt/data/rilinux/pecat1c.png"
           inkscape:export-xdpi="26.23"
           inkscape:export-ydpi="26.23" />
        <path
           sodipodi:cx="1141.0967"
           sodipodi:cy="439.56982"
           sodipodi:rx="98.738968"
           sodipodi:ry="63.111507"
           sodipodi:type="arc"
           d="m 1239.8356,439.56982 c 0,34.85553 -44.2069,63.11151 -98.7389,63.11151 -54.532,0 -98.739,-28.25598 -98.739,-63.11151 0,-34.85552 44.207,-63.1115 98.739,-63.1115 54.532,0 98.7389,28.25598 98.7389,63.1115 z"
           id="path868"
           style="fill:url(#linearGradient4356);fill-opacity:1;fill-rule:evenodd;stroke:none"
           transform="matrix(0.0841292,0,0,0.08774723,-75.49391,1.787347)"
           inkscape:export-filename="/mnt/data/rilinux/pecat1c.png"
           inkscape:export-xdpi="26.23"
           inkscape:export-ydpi="26.23" />
        <path
           sodipodi:nodetypes="csccsssccccccccccccss"
           d="m 32.72508,59.089546 c -0.727973,-0.116472 -1.465909,-0.380047 -1.845954,-1.140156 -0.380059,-0.760101 -0.542938,-2.00883 -0.380059,-2.877512 0.162878,-0.868691 0.868695,-3.909088 0.868695,-4.343421 0,-0.434349 -0.221038,-3.954851 -0.162879,-4.452009 0.146968,-1.29485 0.488636,-1.520203 0.76009,-1.574497 0.27147,-0.0543 0.814394,-0.0543 1.411622,0.325752 0.597211,0.380062 2.008833,1.085861 2.768923,1.031574 0.760104,-0.0543 2.226013,-0.488636 2.823224,-0.542939 0.597226,-0.05429 0.922986,-0.108573 1.140152,0.10859 0.217167,0.21717 0.325758,0.271473 0.434346,0.868682 0.108578,0.597234 0.05429,1.194443 0.217167,1.628792 0.162881,0.434341 0.651517,1.085845 0.977272,1.411605 0.32576,0.325752 0.48864,0.542938 0.868684,0.814396 0.380043,0.271465 1.063368,0.443657 1.280534,0.715123 0.21718,0.271457 0.45683,0.26487 0.293964,1.076536 -0.162878,0.542923 -0.447516,1.060642 -1.060638,1.533383 -0.651518,0.434325 -2.84845,1.126967 -3.391374,1.561317 -0.542924,0.434333 -2.334591,1.791643 -2.714636,2.171706 -0.380058,0.380046 -0.858032,1.118501 -2.226012,1.574489 -0.912307,0.304097 -1.433773,0.209279 -2.063121,0.108589 z"
           id="path1304"
           style="fill:#000000;fill-opacity:1;fill-rule:evenodd;stroke:#000000;stroke-width:0.33335376;stroke-opacity:1"
           inkscape:export-filename="/mnt/data/rilinux/pecat1c.png"
           inkscape:export-xdpi="26.23"
           inkscape:export-ydpi="26.23" />
        <path
           sodipodi:nodetypes="ccccccc"
           d="m 14.842634,31.349454 c 0.28435,-0.885841 0.861758,-1.896887 1.482973,-2.709363 0.217167,-0.298604 0.336774,-0.418316 0.325639,-0.411973 0.0032,0.0048 -0.0686,-1.456356 -0.08217,-1.687105 -0.01357,-0.23074 -1.33018,1.289454 -1.33018,1.289454 0,0 -0.510476,1.344429 -0.510476,1.412302 0,0.06786 -0.12438,2.017636 0.114218,2.106685 z"
           id="path1305"
           style="fill:#000000;fill-opacity:1;fill-rule:evenodd;stroke:none"
           inkscape:export-filename="/mnt/data/rilinux/pecat1c.png"
           inkscape:export-xdpi="26.23"
           inkscape:export-ydpi="26.23" />
        <path
           sodipodi:cx="373.57941"
           sodipodi:cy="176.94452"
           sodipodi:rx="98.738968"
           sodipodi:ry="69.21907"
           sodipodi:type="arc"
           d="m 472.31837,176.94452 c 0,38.22864 -44.20694,69.21907 -98.73896,69.21907 -54.53203,0 -98.73897,-30.99043 -98.73897,-69.21907 0,-38.22864 44.20694,-69.21907 98.73897,-69.21907 54.53202,0 98.73896,30.99043 98.73896,69.21907 z"
           id="path1306"
           style="fill:url(#linearGradient4358);fill-opacity:1;fill-rule:evenodd;stroke:none"
           transform="matrix(0.00706812,0,0,0.01368073,20.90919,18.1075)"
           inkscape:export-filename="/mnt/data/rilinux/pecat1c.png"
           inkscape:export-xdpi="26.23"
           inkscape:export-ydpi="26.23" />
        <path
           sodipodi:cx="373.57941"
           sodipodi:cy="176.94452"
           sodipodi:rx="98.738968"
           sodipodi:ry="69.21907"
           sodipodi:type="arc"
           d="m 472.31837,176.94452 c 0,38.22864 -44.20694,69.21907 -98.73896,69.21907 -54.53203,0 -98.73897,-30.99043 -98.73897,-69.21907 0,-38.22864 44.20694,-69.21907 98.73897,-69.21907 54.53202,0 98.73896,30.99043 98.73896,69.21907 z"
           id="path1307"
           style="fill:url(#linearGradient4360);fill-opacity:1;fill-rule:evenodd;stroke:none"
           transform="matrix(0.00649319,-0.0018524,0.00294216,0.01269834,14.49925,19.20369)"
           inkscape:export-filename="/mnt/data/rilinux/pecat1c.png"
           inkscape:export-xdpi="26.23"
           inkscape:export-ydpi="26.23" />
        <path
           sodipodi:nodetypes="ccscccccsscc"
           d="m 29.646803,57.55259 c 0,0 -0.684449,-0.57779 -0.558032,-2.077764 0.153562,-1.2285 0.536968,-2.994146 0.702288,-3.834426 0.18747,-0.818519 0.21058,-1.320716 0.101991,-2.566731 -0.08144,-0.838797 -0.526226,-2.950295 0.227622,-3.499018 1.109473,-0.465336 1.44567,0.998173 3.250043,1.228509 1.689188,0.345518 1.99632,-0.03839 2.418612,0.03839 0.42231,0.07678 1.382072,0.767814 -0.575858,2.303449 -1.305284,1.343676 -2.013739,1.954795 -2.325934,3.125557 -0.302055,1.132687 -0.387375,1.474082 0.0093,2.878517 0.28422,0.941789 -0.29395,2.480292 -0.83143,2.710643 -0.537469,0.230335 -1.497229,0.460687 -2.418614,-0.307127 z"
           id="path1308"
           style="fill:#ffffff;fill-opacity:1;fill-rule:evenodd;stroke:none"
           inkscape:export-filename="/mnt/data/rilinux/pecat1c.png"
           inkscape:export-xdpi="26.23"
           inkscape:export-ydpi="26.23" />
        <path
           sodipodi:nodetypes="cccccccc"
           d="m 14.121026,52.254663 0.575858,1.113324 c 0.460686,0.998173 2.457006,4.49173 -2.341843,1.919538 -4.7988475,-2.572176 -7.9852897,-4.606889 -8.2540167,-5.72023 -0.2687416,-1.113325 -0.038392,-1.919538 1.4972425,-1.804362 1.2668936,0.115175 1.8043599,-1.266892 2.2266675,-1.842755 0.4990774,-0.38391 1.0749354,-1.074948 2.1498874,-0.153567 1.0121193,1.13583 3.2632103,4.990808 4.1462043,6.488052 z"
           id="path1309"
           style="fill:#ffffff;fill-opacity:1;fill-rule:evenodd;stroke:none"
           inkscape:export-filename="/mnt/data/rilinux/pecat1c.png"
           inkscape:export-xdpi="26.23"
           inkscape:export-ydpi="26.23" />
        <path
           sodipodi:nodetypes="cssccccc"
           d="m 31.852907,44.535372 -0.345512,0.767814 c 0,0 -0.268741,0.998165 0.03839,1.42046 0.307118,0.42231 2.610567,1.574027 4.069419,0.691038 1.458851,-0.882982 1.61242,-2.111498 1.61242,-2.111498 l -1.535636,-0.882981 -2.802528,-0.345519 -1.036557,0.460686 z"
           id="path879"
           style="fill:#000000;fill-opacity:1;fill-rule:evenodd;stroke:none"
           inkscape:export-filename="/mnt/data/rilinux/pecat1c.png"
           inkscape:export-xdpi="26.23"
           inkscape:export-ydpi="26.23" />
        <path
           sodipodi:nodetypes="cccccc"
           d="m 33.61889,43.882726 c 0.806207,0.07678 2.188277,0.268736 2.764137,0.767814 0.307118,0.499095 0.115175,1.074949 -0.921385,1.535635 -1.036545,0.460687 -1.919533,0.614254 -2.495396,0.19196 -0.575859,-0.422303 -0.921382,-1.113341 -0.729425,-1.497244 0.191956,-0.383902 0.575859,-1.074932 1.382069,-0.998165 z"
           id="path880"
           style="fill:url(#linearGradient4362);fill-rule:evenodd;stroke:#000000;stroke-width:0.0533366pt"
           inkscape:export-filename="/mnt/data/rilinux/pecat1c.png"
           inkscape:export-xdpi="26.23"
           inkscape:export-ydpi="26.23" />
        <path
           d="m 13.528677,46.81937 c 0,0 2.117411,1.54735 2.497469,2.090272 0.380048,0.542923 0.950121,1.22159 0.24432,1.601637 -0.705817,0.380054 -1.085862,0.190031 -1.5745,-0.705807 -0.488635,-0.89583 -1.167289,-2.986102 -1.167289,-2.986102 z"
           id="path883"
           style="fill:url(#linearGradient4364);fill-rule:evenodd;stroke:#000000;stroke-width:0.0533366pt"
           inkscape:export-filename="/mnt/data/rilinux/pecat1c.png"
           inkscape:export-xdpi="26.23"
           inkscape:export-ydpi="26.23" />
        <g
           id="g1313"
           inkscape:export-filename="/mnt/data/rilinux/pecat1c.png"
           inkscape:export-xdpi="26.23"
           inkscape:export-ydpi="26.23"
           transform="matrix(0.131164,0,0,0.131164,751.0659,281.0605)">
          <path
             d="m -5623.3299,-2005.8567 c -5.443,-0.4304 -7.005,-1.2261 -9.6342,-4.9075 -3.7146,-5.2007 -8.2113,-13.3515 -7.366,-13.3515 0.327,0 0.01,-2.0129 -0.7124,-4.4732 -1.9557,-6.6937 -0.051,-22.4612 3.2149,-26.6135 3.5432,-4.5042 18.3123,-16.7856 19.6232,-15.4748 0.3416,0.3418 23.5161,-18.1277 21.7397,-15.5353 -2.8026,4.0902 7.7845,-7.8873 8.7352,-8.4718 0.9505,-0.5843 2.533,-1.8672 3.5166,-2.8503 2.7756,-2.7747 14.7323,-6.4096 21.0838,-6.4096 7.2576,0 17.0751,2.9246 21.2241,6.3226 11.3449,9.2913 31.7392,26.7782 31.7392,27.7346 0,3.2256 13.0049,8.7322 16.1072,14.8008 4.4694,1.8885 7.9901,20.6248 7.4102,24.7769 -0.4457,3.1911 -8.053,17.5174 -9.9174,18.6769 -3.2487,2.0203 -20.0582,0.2128 -26.6754,-2.8687 -4.9487,-2.3045 -10.7481,-3.489 -20.6453,-4.2169 -7.5701,-0.5569 -15.6216,-1.4283 -17.8927,-1.9365 -2.6962,-0.6034 -3.5,-0.4806 -2.3169,0.3539 1.2251,0.864 -1.2364,1.5613 -7.5976,2.1525 -12.3522,1.1481 -21.6144,3.9933 -29.7033,9.1241 -6.6287,4.2046 -7.4034,4.3163 -21.9329,3.1673 z m 77.8205,-16.0483 c 0.9378,-2.4439 -11.597,-4.1704 -17.6461,-2.4309 -3.7965,1.092 -3.4081,1.301 4.8172,2.5931 4.9206,0.7728 9.6544,1.4843 10.5195,1.5808 0.8653,0.097 1.9045,-0.6879 2.3094,-1.743 z"
             id="path1314"
             sodipodi:nodetypes="ccccccccccccccccccccccccccc"
             style="fill:#ffffff;fill-opacity:1" />
          <path
             d="m -5621.1312,-2006.196 c -5.4431,-0.4305 -7.9955,-4.1972 -10.6248,-7.8785 -3.7145,-5.2007 -9.2014,-8.895 -8.3561,-8.895 0.3269,0 0.01,-2.0129 -0.7125,-4.4731 -1.9558,-6.6938 2.8671,-16.7538 7.0809,-24.4303 3.9646,-7.2228 14.4463,-18.969 15.7572,-17.6581 0.3417,0.3417 -0.8322,2.7423 -2.6086,5.3348 -2.8025,4.0901 -2.9574,4.9125 -1.1712,6.2188 1.6514,1.2075 1.7423,2.0959 0.4596,4.4931 -1.6438,3.071 -4.2551,4.06 -4.2551,1.6114 0,-0.757 -0.6193,-1.3765 -1.3763,-1.3765 -0.7761,0 -1.3764,3.8945 -1.3764,8.9308 0,9.9689 2.4624,14.4673 7.9189,14.4673 1.7483,0 3.5348,0.9291 3.9705,2.0646 0.4359,1.1354 1.684,2.0646 2.7736,2.0646 1.0898,0 3.0365,1.8542 4.3259,4.1203 3.8152,6.7046 4.6356,4.7091 0.9296,-2.2608 -2.0266,-3.8116 -3.4022,-8.6824 -3.4022,-12.0475 0,-7.9485 4.7617,-23.6741 8.7529,-28.9069 7.5125,-9.8494 15.8202,-16.7106 22.473,-18.5604 3.6431,-1.0129 5.8888,-2.1192 4.9901,-2.4587 -1.7741,-0.6703 -14.5624,1.4566 -19.0116,3.1617 -2.3268,0.8919 -2.1252,0.2151 1.3005,-4.373 2.2292,-2.9854 4.8309,-5.9061 5.7816,-6.4906 0.9506,-0.5845 2.5331,-1.8673 3.5167,-2.8505 2.7756,-2.7747 14.7323,-6.4095 21.0838,-6.4095 7.2576,0 17.075,2.9246 21.2242,6.3226 11.3448,9.2913 14.2756,13.9787 8.7409,13.9787 -4.2655,0 -8.9955,4.8611 -15.9976,16.4414 -5.2662,8.7094 -14.9752,28.7989 -16.7312,34.6195 -0.8522,2.8244 -0.6109,3.1168 1.9133,2.3157 1.7023,-0.5403 2.8885,-0.3133 2.8885,0.5525 0,0.808 0.6559,1.4691 1.4575,1.4691 0.8019,0 1.0205,-0.7743 0.4863,-1.7206 -0.7266,-1.2869 -0.5495,-1.3323 0.7024,-0.1798 0.9206,0.8475 4.263,1.3854 7.4278,1.1958 5.6459,-0.3384 5.6636,-0.3258 0.9367,0.6725 l -4.8171,1.0178 5.6208,0.1952 c 5.3874,0.1872 5.8385,-0.133 10.8716,-7.7187 2.8881,-4.3526 6.3957,-9.5896 7.7947,-11.6377 1.3992,-2.0481 3.7732,-6.8428 5.2757,-10.655 1.5026,-3.812 4.2995,-9.4141 6.2152,-12.4489 3.1212,-4.9442 3.7678,-5.3403 6.2185,-3.8099 1.5044,0.9395 2.735,2.4906 2.735,3.447 0,3.2257 -10.1982,20.9969 -12.0495,20.9969 -1.009,0 -1.7341,0.7743 -1.6113,1.7204 0.4614,3.5532 -0.2577,5.0691 -6.2963,13.2719 -6.9384,9.4252 -7.3869,10.5175 -3.454,8.4127 3.3705,-1.8038 11.3307,-2.2067 13.773,-0.6974 1.0323,0.638 1.4699,0.573 1.022,-0.1517 -0.4309,-0.6972 0.7117,-1.9731 2.5392,-2.8355 2.3202,-1.0949 3.5943,-1.1279 4.224,-0.1089 0.5301,0.8576 0.2469,1.0543 -0.6871,0.4771 -0.874,-0.54 -1.589,-0.3262 -1.589,0.4757 0,0.8014 0.929,1.4575 2.0645,1.4575 1.1355,0 2.0645,-0.6327 2.0645,-1.4059 0,-0.7732 1.7033,-2.1484 3.7851,-3.056 5.7749,-2.5179 12.2934,-9.9772 13.2706,-15.1865 0.5284,-2.8163 0.065,-6.9669 -1.1667,-10.4587 -2.1953,-6.2223 -0.5652,-6.4982 2.5371,-0.4297 2.1505,4.2074 5.6712,22.9438 5.0914,27.0957 -0.4456,3.1912 -8.053,17.5174 -9.9174,18.677 -3.2486,2.0204 -20.0582,0.2128 -26.6755,-2.8687 -4.9485,-2.3045 -10.7481,-3.4891 -20.6452,-4.217 -7.5701,-0.5568 -15.6216,-1.4283 -17.8926,-1.9363 -2.6963,-0.6035 -3.5002,-0.4807 -2.317,0.3538 1.2251,0.864 -1.2364,1.5613 -7.5976,2.1526 -12.3521,1.1479 -21.6144,3.9931 -29.7033,9.124 -6.6287,4.2045 -5.4227,2.8307 -19.9521,1.6818 z m 120.7176,-15.0532 c 5.7125,-5.4543 6.9735,-7.5638 7.6116,-12.7312 l 0.7647,-6.1935 -1.9824,4.2404 c -2.1989,4.7031 -8.1402,9.6776 -16.8672,14.1221 -3.1658,1.6124 -6.207,3.7148 -6.7584,4.6718 -0.5512,0.9571 -0.5539,1.3395 -0.01,0.85 0.5477,-0.4895 2.6601,-0.3877 4.6939,0.2258 2.0339,0.6138 4.1478,1.1691 4.6977,1.2341 0.5499,0.065 4.0809,-2.8238 7.8464,-6.4195 z m -44.878,0.4904 c 0.9379,-2.4438 -11.5969,-4.1704 -17.646,-2.4307 -3.7964,1.0918 -3.4082,1.3008 4.8172,2.5928 4.9205,0.7729 9.6543,1.4844 10.5194,1.5809 0.8652,0.096 1.9046,-0.6879 2.3094,-1.743 z m -21.087,-5.0445 c 0,-0.8018 -0.6193,-1.0749 -1.3763,-0.6071 -1.7637,1.09 -1.7637,2.0645 0,2.0645 0.757,0 1.3763,-0.656 1.3763,-1.4574 z m -22.0216,-1.2952 c 0,-1.9026 5.9739,-1.7338 7.9317,0.2241 1.6613,1.6611 2.0971,0.8937 6.6387,-11.6918 4.9401,-13.6888 16.721,-34.9774 22.6931,-41.0066 l 6.3061,-6.3664 -7.7852,-0.8137 c -8.6557,-0.9046 -15.4156,0.5579 -25.0033,5.4093 -7.316,3.7021 -12.2035,9.9142 -20.5736,26.1492 -4.7891,9.29 -5.5858,11.941 -4.8183,16.0325 1.0297,5.4899 5.8958,12.5083 7.8393,11.3069 0.6963,-0.4303 1.266,-0.1265 1.266,0.6754 0,0.8014 1.2389,1.4575 2.7528,1.4575 1.5141,0 2.7527,-0.6195 2.7527,-1.3764 z m -3.3641,-8.134 c -1.1439,-1.851 0.638,-5.6295 2.6545,-5.6295 2.4219,0 5.2667,3.699 4.1879,5.4451 -1.0927,1.7678 -5.7856,1.8943 -6.8424,0.1844 z m 9.6344,-23.398 c -1.3565,-2.1951 0.8121,-5.6297 3.5546,-5.6297 1.4568,0 3.0292,0.9915 3.4943,2.2034 1.2924,3.3681 -5.1496,6.4993 -7.0489,3.4263 z m 15.7513,-24.8985 c 0,-0.7571 1.5484,-1.3765 3.441,-1.3765 1.8924,0 3.4408,0.6194 3.4408,1.3765 0,0.7569 -1.5484,1.3763 -3.4408,1.3763 -1.8926,0 -3.441,-0.6194 -3.441,-1.3763 z m 5.9736,24.3852 c 0.7602,-3.0299 0.7465,-3.0286 -1.9158,0.1975 -3.1198,3.7805 -3.6459,6.8345 -0.7655,4.4442 1.0535,-0.8745 2.2603,-2.9634 2.6813,-4.6417 z m 51.4518,24.3229 c -1.1836,-1.1833 1.4529,-6.0411 3.2784,-6.0411 0.7829,0 1.2257,1.345 0.984,2.9889 -0.4513,3.066 -2.6643,4.6508 -4.2624,3.0522 z m -117.8764,-3.862 c -0.06,-1.4509 0.2657,-2.2638 0.7232,-1.8066 0.4574,0.4575 0.5061,1.6446 0.1085,2.6382 -0.4394,1.0978 -0.7655,0.7717 -0.8317,-0.8316 z m 78.3437,-3.4743 c 0,-3.5221 2.3712,-4.8639 4.8944,-2.7698 1.5348,1.2737 1.6453,2.1305 0.4594,3.5594 -2.2829,2.7506 -5.3538,2.2977 -5.3538,-0.7896 z m 49.0078,-9.1401 c -0.4596,-1.1974 -0.8354,-3.1314 -0.8354,-4.2976 0,-1.7288 0.3813,-1.804 2.0645,-0.4071 2.2325,1.8528 2.8429,6.8818 0.8355,6.8818 -0.676,0 -1.6052,-0.9798 -2.0646,-2.1771 z m -37.6529,-9.7454 c -2.3495,-0.9479 -2.1773,-5.5004 0.2436,-6.4292 2.5169,-0.9659 5.4693,2.5416 4.4267,5.2588 -0.8234,2.1457 -1.7054,2.3668 -4.6703,1.1704 z m 9.2627,-14.9497 c -0.9575,-1.1538 -1.4318,-2.407 -1.0535,-2.7851 1.2462,-1.2464 5.2103,1.0099 5.2103,2.9657 0,2.525 -1.9828,2.4388 -4.1568,-0.1806 z m -79.1126,-0.6549 c 1.1006,-1.7808 3.441,-1.7808 3.441,0 0,0.757 -0.9657,1.3764 -2.1459,1.3764 -1.1803,0 -1.763,-0.6194 -1.2951,-1.3764 z"
             id="path1315"
             style="fill:#000000;fill-opacity:1;stroke:#000000;stroke-opacity:1"
             sodipodi:nodetypes="cccccccccccccccccccccccccccccccccccccccccccccccccccccccccccccccccccccccccccccccccccccccccccccccccccccccccccccccccccccccccccccccccccccccccccccccccccc" />
          <path
             d="m -5596.2658,-2082.7583 c 7.3222,-8.4692 5.8686,-23.7028 44.192,-21.6133 9.7368,1.92 20.7746,11.2402 23.1357,20.0393 -38.0283,-7.6119 -49.879,-3.4124 -67.3277,1.574 z"
             id="path1316"
             sodipodi:nodetypes="cccc"
             style="fill:#000000;fill-opacity:1;stroke:#000000;stroke-width:5.04979229;stroke-miterlimit:4;stroke-opacity:1" />
          <path
             style="fill:#ffffff;fill-opacity:1;fill-rule:evenodd;stroke:#ffffff;stroke-width:0.84393806pt;stroke-linecap:butt;stroke-linejoin:miter;stroke-opacity:1"
             d="m -5626.2164,-2048.6725 c -1.6495,-12.6745 -9.2172,11.4604 -9.2172,14.594 0,3.2245 0.2693,5.5449 1.2429,7.3057 1.0383,1.8777 9.1387,7.4624 10.5651,8.4298 3.4848,2.3635 7.6817,0.438 11.1165,-1.1152 2.8411,-1.2844 -5.6632,-20.9503 -5.6632,-22.3055 0,-1.2566 -0.4188,-10.5785 -8.0441,-6.9088 z"
             id="path1317"
             sodipodi:nodetypes="ccccccc" />
          <path
             sodipodi:type="arc"
             style="fill:#000000;fill-opacity:1;stroke:#ffffff;stroke-width:1.125;stroke-linecap:square;stroke-linejoin:miter;stroke-miterlimit:4;stroke-opacity:1"
             id="path1318"
             sodipodi:cx="-5625.0591"
             sodipodi:cy="-2035.1515"
             sodipodi:rx="2.6259964"
             sodipodi:ry="2.4509299"
             d="m -5622.4331,-2035.1515 c 0,1.3536 -1.1757,2.4509 -2.626,2.4509 -1.4503,0 -2.626,-1.0973 -2.626,-2.4509 0,-1.3536 1.1757,-2.4509 2.626,-2.4509 1.4503,0 2.626,1.0973 2.626,2.4509 z"
             transform="matrix(2.13639,0,0,2.13639,6392.838,2312.179)" />
        </g>
      </g>
    </g>
    <g
       id="g3216"
       transform="matrix(0.40940457,0,0,0.40940457,511.83871,619.18186)">
      <rect
         id="rect3206"
         height="271"
         width="468"
         y="30.204"
         x="12.947"
         style="fill:#ffffff" />
      <path
         d="M 0,175.704 V 0 H 248.313 496.626 V 175.704 351.407 H 248.313 0 V 175.704 z m 59.483,103.085 c 1.991,-0.614 4.988,-2.049 6.661,-3.187 1.673,-1.139 27.287,-25.765 56.919,-54.725 29.632,-28.961 54.452,-52.885 55.155,-53.164 0.934,-0.371 1.664,-0.255 2.708,0.429 l 1.429,0.936 v 43.935 c 0,47.925 -0.044,47.198 3.203,53.272 2.371,4.435 7.167,8.901 12.044,11.218 3.651,1.733 4.924,2.044 9.35,2.274 8.448,0.442 14.628,-1.997 20.407,-8.055 3.407,-3.572 4.891,-6.125 6.223,-10.706 0.802,-2.759 0.875,-11.295 0.744,-86.727 l -0.146,-83.667 -2.066,-4.328 c -3.779,-7.915 -10.805,-13.319 -19.283,-14.834 -5.336,-0.954 -10.476,-0.132 -16.02,2.56 -4.109,1.996 -5.967,3.806 -85.199,83.04 -79.275,79.277 -81.04,81.087 -82.991,85.156 -3.783,7.889 -3.793,15.434 -0.03,23.148 5.609,11.506 18.695,17.192 30.892,13.425 z m 273.671,0.239 c 7.766,-2.268 14.375,-8.448 17.588,-16.447 0.863,-2.154 0.967,-7.898 1.221,-68.586 0.262,-62.59 0.332,-66.316 1.273,-67.704 0.549,-0.808 1.67,-1.73 2.494,-2.05 0.824,-0.32 7.234,-0.68 14.246,-0.8 10.881,-0.187 13.242,-0.381 16.131,-1.331 15.191,-4.997 22.457,-21.828 15.617,-36.183 -2.088,-4.382 -7.268,-9.779 -11.391,-11.868 -6.348,-3.217 -5.047,-3.158 -65.961,-2.99 l -55.828,0.154 -3.209,1.213 c -7.183,2.715 -13.308,8.677 -15.936,15.513 -1.686,4.385 -2.05,11.024 -0.86,15.67 2.578,10.063 11.403,17.971 21.667,19.415 2.135,0.3 8.803,0.551 14.818,0.557 l 10.938,0.011 1.811,1.617 1.811,1.617 0.277,66.42 0.276,66.42 1.2,2.926 c 3.445,8.4 10.543,14.865 18.34,16.703 3.422,0.807 10.244,0.666 13.477,-0.277 z m 118.185,-0.235 c 9.438,-2.916 16.498,-11.135 18.094,-21.058 0.789,-4.903 0.801,-159.6 0.014,-164.619 -2.188,-13.941 -16.25,-24.096 -29.973,-21.644 -11.035,1.972 -19.717,10.664 -21.533,21.559 -0.436,2.614 -0.568,27.325 -0.457,84.888 l 0.158,81.201 1.326,3.325 c 4.375,10.973 13.352,17.351 24.527,17.43 2.755,0.021 5.501,-0.359 7.844,-1.082 z M 437.503,114.295 c -7.861,-2.808 -12.227,-9.647 -11.705,-18.336 0.406,-6.782 3.834,-12.022 9.857,-15.072 3.697,-1.872 10.326,-2.125 14.492,-0.553 4.143,1.563 7.805,4.87 9.727,8.785 1.359,2.767 1.555,3.799 1.545,8.156 -0.014,5.847 -1.264,9.061 -4.965,12.762 -4.714,4.713 -12.669,6.502 -18.951,4.258 z M 162.784,244.127 c 3.823,-1.869 8.112,-6.607 9.374,-10.357 2.924,-8.693 -0.633,-17.681 -8.74,-22.075 -3.22,-1.746 -3.9,-1.903 -8.222,-1.897 -3.724,0.004 -5.292,0.271 -7.483,1.273 -10.952,5.012 -14.287,19.303 -6.6,28.283 5.379,6.285 14.476,8.288 21.671,4.773 z M 506.048,6.928 V 1.663 h -1.939 c -1.355,0 -1.939,-0.25 -1.939,-0.831 0,-0.678 0.924,-0.832 4.988,-0.832 4.064,0 4.988,0.154 4.988,0.832 0,0.6 -0.617,0.831 -2.217,0.831 h -2.217 v 5.266 c 0,4.311 -0.152,5.266 -0.832,5.266 -0.681,-10e-4 -0.832,-0.956 -0.832,-5.267 z m 7.205,-0.831 c 0,-5.984 0.023,-6.097 1.27,-6.097 1.109,0 1.48,0.643 2.951,5.127 l 1.682,5.127 1.666,-4.988 c 1.354,-4.058 1.889,-5.021 2.869,-5.166 1.172,-0.173 1.203,-0.024 1.203,5.958 0,5.084 -0.143,6.135 -0.832,6.135 -0.668,0 -0.84,-0.897 -0.875,-4.573 l -0.043,-4.573 -1.527,4.434 c -2.088,6.061 -2.824,6.044 -4.938,-0.108 l -1.674,-4.88 -0.045,4.85 c -0.035,3.922 -0.203,4.85 -0.875,4.85 -0.689,0.001 -0.832,-1.046 -0.832,-6.096 z"
         id="path2161"
         style="fill:#fe0000" />
    </g>
    <g
       id="g3237"
       transform="matrix(0.57139618,0,0,0.57139618,269.87775,652.39242)">
      <path
         id="path17"
         style="fill:#000000;fill-opacity:1;fill-rule:nonzero;stroke-width:0;stroke-linecap:butt;stroke-linejoin:miter;stroke-miterlimit:10"
         d="m 384.1955,282.109 c 0,3.77 -2.769,6.301 -6.047,6.301 l 0,-0.023 c -3.371,0.023 -6.089,-2.508 -6.089,-6.278 0,-3.769 2.718,-6.293 6.089,-6.293 3.278,0 6.047,2.524 6.047,6.293 z m 2.453,0 c 0,-5.175 -4.019,-8.179 -8.5,-8.179 -4.511,0 -8.531,3.004 -8.531,8.179 0,5.172 4.02,8.188 8.531,8.188 4.481,0 8.5,-3.016 8.5,-8.188 m -9.91,0.692 0.91,0 2.11,3.703 2.316,0 -2.336,-3.859 c 1.207,-0.086 2.2,-0.661 2.2,-2.286 0,-2.019 -1.391,-2.668 -3.75,-2.668 l -3.411,0 0,8.813 1.961,0 0,-3.703 m 0,-1.492 0,-2.122 1.364,0 c 0.742,0 1.753,0.059 1.753,0.965 0,0.985 -0.523,1.157 -1.398,1.157 l -1.719,0" />
      <path
         id="path19"
         style="fill:#000000;fill-opacity:1;fill-rule:nonzero;stroke-width:0;stroke-linecap:butt;stroke-linejoin:miter;stroke-miterlimit:10"
         d="m 329.4065,237.027 10.598,28.993 -21.524,0 10.926,-28.993 z m -11.351,-11.289 -24.422,61.879 17.246,0 3.863,-10.933 28.903,0 3.656,10.933 18.722,0 -24.605,-61.887 -23.363,0.008 z m -49.032,61.903 17.497,0 0,-61.922 -17.5,-0.004 0.003,61.926 z m -121.468,-61.926 -14.598,49.078 -13.984,-49.074 -18.879,-0.004 19.972,61.926 25.207,0 20.133,-61.926 -17.851,0 z m 70.726,13.484 7.52,0 c 10.91,0 17.965,4.899 17.965,17.61 0,12.714 -7.055,17.613 -17.965,17.613 l -7.52,0 0,-35.223 z m -17.351,-13.484 0,61.926 28.367,0 c 15.113,0 20.047,-2.512 25.383,-8.149 3.769,-3.957 6.207,-12.64 6.207,-22.133 0,-8.707 -2.063,-16.468 -5.66,-21.304 -6.481,-8.649 -15.817,-10.34 -29.75,-10.34 l -24.547,0 z m -165.7425,-0.086 0,62.012 17.6445,0 0,-47.086 13.672,0.004 c 4.527,0 7.754,1.128 9.934,3.457 2.765,2.945 3.894,7.699 3.894,16.394 l 0,27.231 17.098,0 0,-34.262 c 0,-24.453 -15.586,-27.75 -30.836,-27.75 l -31.4065,0 z m 137.5825,0.086 0.007,61.926 17.489,0 0,-61.926 -17.496,0 z" />
      <path
         id="path21"
         style="fill:#74b71b;fill-opacity:1;fill-rule:nonzero;stroke-width:0;stroke-linecap:butt;stroke-linejoin:miter;stroke-miterlimit:10"
         d="m 82.2115,102.414 c 0,0 22.504,-33.203 67.437,-36.637 l 0,-12.047 c -49.769,3.997 -92.8667,46.149 -92.8667,46.149 0,0 24.4097,70.566 92.8667,77.027 l 0,-12.804 c -50.238,-6.321 -67.437,-61.688 -67.437,-61.688 z m 67.437,36.223 0,11.726 c -37.968,-6.769 -48.507,-46.238 -48.507,-46.238 0,0 18.23,-20.195 48.507,-23.469 l 0,12.867 c -0.023,0 -0.039,-0.007 -0.058,-0.007 -15.891,-1.907 -28.305,12.937 -28.305,12.937 0,0 6.957,24.992 28.363,32.184 m 0,-107.125 0,22.218 c 1.461,-0.113 2.922,-0.207 4.391,-0.257 56.582,-1.907 93.449,46.406 93.449,46.406 0,0 -42.343,51.488 -86.457,51.488 -4.043,0 -7.828,-0.375 -11.383,-1.004 l 0,13.739 c 3.04,0.386 6.192,0.613 9.481,0.613 41.051,0 70.738,-20.965 99.484,-45.778 4.766,3.817 24.278,13.102 28.289,17.168 -27.332,22.883 -91.031,41.329 -127.144,41.329 -3.481,0 -6.824,-0.211 -10.11,-0.528 l 0,19.305 156.032,0 0,-164.699 -156.032,0 z m 0,49.144 0,-14.879 c 1.446,-0.101 2.903,-0.179 4.391,-0.226 40.688,-1.278 67.383,34.965 67.383,34.965 0,0 -28.832,40.043 -59.746,40.043 -4.449,0 -8.438,-0.715 -12.028,-1.922 l 0,-45.114 c 15.84,1.914 19.028,8.911 28.551,24.786 l 21.18,-17.86 c 0,0 -15.461,-20.277 -41.524,-20.277 -2.835,0 -5.546,0.199 -8.207,0.484" />
    </g>
    <g
       id="g3258"
       transform="matrix(0.66057532,0,0,0.66057532,288.01442,528.36768)">
      <path
         style="fill:#127cc1;fill-opacity:1"
         id="path6"
         d="M 291.28737,55.058565 C 277.50683,-12.11587 147.525,-16.369963 63.737895,34.808098 l 0,5.652389 C 147.41497,-2.7316788 266.14859,-2.4562338 276.95315,59.422033 c 3.6407,20.498818 -7.82608,41.818447 -28.38636,54.085537 l 0,16.05357 c 24.75016,-9.08116 50.0495,-38.47298 42.72058,-74.502575 M 138.92617,172.67053 C 81.102616,178.02238 20.853265,169.59848 12.418485,124.23687 8.2296052,101.90025 18.426965,78.192925 31.877897,63.483967 l 0,-7.875516 C 7.6234054,76.957185 -5.5514356,103.96031 2.0555709,135.84419 c 9.7011961,40.91535 61.4067331,64.0753 140.3437391,56.36385 31.2543,-3.01735 72.15678,-13.11599 100.54313,-28.78223 l 0,-22.25736 c -25.797,15.4485 -68.46306,28.21179 -104.01627,31.50208 z" />
      <path
         style="fill:#127cc1;fill-opacity:1"
         id="path8"
         d="m 238.31142,45.347552 -15.158,0 0,67.812448 c 0,7.9644 3.80425,14.89143 15.158,15.98959" />
      <path
         style="fill:#127cc1;fill-opacity:1"
         id="path10"
         d="m 57.729915,70.130433 -15.158995,0 0,44.291497 c 0,7.96741 3.804254,14.89193 15.158995,15.98959" />
      <rect
         style="fill:#127cc1;fill-opacity:1"
         id="rect12"
         height="14.425744"
         width="15.158995"
         y="47.40823"
         x="42.570919" />
      <path
         style="fill:#127cc1;fill-opacity:1"
         id="path14"
         d="m 148.57135,129.69867 c -12.29105,0 -17.47276,-8.57376 -17.47276,-17.0355 l 0,-58.825247 14.99344,0 0,16.29251 11.35424,0 0,12.199289 -11.35424,0 0,29.426688 c 0,3.46075 1.65354,5.35867 5.23522,5.35867 l 6.11902,0 0,12.58359 -8.87492,0" />
      <path
         style="fill:#127cc1;fill-opacity:1"
         id="path16"
         d="m 188.42548,81.588742 c -5.12519,0 -9.093,2.664513 -10.74754,6.264418 -0.99183,2.169689 -1.32344,3.818934 -1.48699,6.485456 l 23.20664,0 C 199.06648,87.82553 196.14302,81.588742 188.42548,81.588742 m -12.23453,23.025128 c 0,7.72126 4.84809,13.40595 13.33739,13.40595 6.6712,0 9.97829,-1.86827 13.83706,-5.68419 l 9.26105,8.92893 c -5.95346,5.87811 -12.18201,9.45088 -23.20664,9.45088 -14.38624,0 -28.16829,-7.88553 -28.16829,-30.8564 0,-19.64425 12.01646,-30.743874 27.83718,-30.743874 16.04078,0 25.24481,12.995527 25.24481,30.058656 l 0,5.440548 -38.14256,0" />
      <path
         style="fill:#127cc1;fill-opacity:1"
         id="path18"
         d="m 98.576374,82.329722 c 4.408956,0 6.228556,2.171196 6.228556,5.715339 l 0,41.735489 15.04895,0 0,-41.790246 c 0,-8.490371 -4.52049,-17.860373 -17.69433,-17.860373 l -31.034221,0 0,59.650119 14.99344,0 0,-47.450831" />
      <text
         sodipodi:linespacing="125%"
         transform="scale(1.0107951,0.9893202)"
         id="text2177"
         y="55.85825"
         x="244.26051"
         style="font-size:14.03530121px;font-style:normal;font-variant:normal;font-weight:normal;font-stretch:normal;text-align:start;line-height:125%;writing-mode:lr-tb;text-anchor:start;fill:#127cc1;fill-opacity:1;stroke:none;font-family:Arial"
         xml:space="preserve"><tspan
           y="55.85825"
           x="244.26051"
           id="tspan2179"
           sodipodi:role="line">®</tspan></text>
    </g>
    <g
       id="g3280"
       transform="matrix(0.77796831,0,0,0.77796831,91.351,516.8835)">
      <g
         id="g3282"
         transform="translate(-413.2102,-40.70387)">
        <path
           id="path3284"
           d="M 342.0739,390.70219 453.17118,245.44599 338.79445,85.733013 l 73.51436,0.06108 91.13801,125.582867 -136.27013,179.32523 -25.10279,0 z m 217.44779,0.10271 -90.5088,-125.79846 137.40484,-179.409507 24.48173,0 -111.55067,145.941547 113.68843,159.26642 -73.51553,0 z" />
        <path
           d="m 486.41071,143.82651 c -8.85103,0 -18.30729,0.68536 -26.82011,1.50253 15.16593,19.77999 27.75007,36.52951 42.23287,55.55188 -8.12876,-17.49293 -24.83564,-34.26759 -19.05997,-42.89467 5.71717,-8.53969 16.25107,-7.10232 17.05346,-7.10232 16.88849,0 33.14525,1.90739 48.34375,5.4375 l 3.5625,-4.90625 c -20.27081,-5.21826 -42.28849,-7.58867 -65.3125,-7.58867 z m 91.46875,15.96367 -3.28125,4.6875 c 46.8258,18.33664 78.5,53.36029 78.5,93.49999 0,59.10603 -68.66485,107.0625 -153.28125,107.0625 -84.6164,-10e-6 -153.3125,-47.95648 -153.3125,-107.0625 1e-5,-32.18776 20.37158,-61.08002 52.59375,-80.71874 l -9.90625,-15.09375 c -50.54614,21.43183 -84.09374,59.04962 -84.09375,101.87499 0,66.63368 81.2225,120.6875 181.3125,120.6875 100.08999,0 181.34374,-54.05381 181.34375,-120.6875 0,-44.43292 -36.12255,-83.29245 -89.875,-104.24999 z"
           id="P1"
           style="fill:url(#LO)" />
      </g>
      <rect
         id="rect3287"
         height="0"
         width="0.50507629"
         y="180.85307"
         x="322.36493"
         style="opacity:0.40740739;fill:#000cff" />
    </g>
    <g
       style="overflow:visible"
       id="g3325"
       transform="matrix(0.14869166,0,0,0.14869166,512.36362,575.45692)">
      <polyline
         id="polyline3306"
         points="1165.47,92.779 1165.39,203.495 1281.63,203.513 1198.44,286.826 1081.79,286.954 1080.38,176.065 1165.47,92.779"
         style="fill:#009a66" />
      <polyline
         id="polyline3308"
         points="1165.39,84.082 1285.07,83.854 1284.83,202.972 1368.99,286.954 1368.75,0.12 1081.79,0 1165.39,84.082"
         style="fill:#009a66" />
      <polyline
         id="polyline3310"
         points="597.986,2.5 509.399,104.746 417.975,2.234 352.661,2.087 352.661,284.857 427.295,284.857 428.284,116.666 507.422,202.826 512.622,202.826 589.105,114.396 590.058,284.857 664.545,284.857 664.453,2.087 597.986,2.5" />
      <path
         id="path3312"
         d="m 119.824,179.178 38.049,-99.994 40.888,99.994 H 119.824 M 199.329,2.105 114.716,2.5 0,284.857 h 77.234 l 19.867,-51.956 h 124.383 l 22.724,51.956 h 79.486 L 199.329,2.105 z" />
      <path
         id="path3314"
         d="m 823.553,230.438 c -20.91,0.358 -36.73,0.962 -36.73,0.962 L 786.55,58.164 c 0,0 18.364,-0.275 35.832,-0.468 40.394,-0.448 101.587,7.929 102.156,81.134 0.621,80.119 -59.97,90.885 -100.985,91.608 M 817.2,2.234 713.929,2.087 v 282.77 c 0,0 91.351,0.073 93.641,0 C 941.09,281.424 999.444,247 1000.066,154.148 1000.599,78.452 977.984,2.234 817.2,2.234 z" />
    </g>
  </g>
  <style
     id="style3336"
     type="text/css">

	.st0{fill:none;stroke:#000000;stroke-width:0.398;stroke-miterlimit:10;}

</style>
  <style
     id="style3271"
     type="text/css">
#P1 {fill:url(#LO)}
rect {opacity:.40740739;fill:#000cff;width:.50507629;height:0}
</style>
</svg>
