<?xml version="1.0" encoding="UTF-8" standalone="no"?>
<!-- Created with Inkscape (http://www.inkscape.org/) -->

<svg
   xmlns:dc="http://purl.org/dc/elements/1.1/"
   xmlns:cc="http://creativecommons.org/ns#"
   xmlns:rdf="http://www.w3.org/1999/02/22-rdf-syntax-ns#"
   xmlns:svg="http://www.w3.org/2000/svg"
   xmlns="http://www.w3.org/2000/svg"
   xmlns:xlink="http://www.w3.org/1999/xlink"
   xmlns:sodipodi="http://sodipodi.sourceforge.net/DTD/sodipodi-0.dtd"
   xmlns:inkscape="http://www.inkscape.org/namespaces/inkscape"
   width="210mm"
   height="297mm"
   id="svg3130"
   version="1.1"
   inkscape:version="0.47 r22583"
   sodipodi:docname="HULK-Ri-2010-01-27-Domagoj-Margan.svg">
  <defs
     id="defs3">
    <inkscape:perspective
       sodipodi:type="inkscape:persp3d"
       inkscape:vp_x="0 : 526.18109 : 1"
       inkscape:vp_y="0 : 1000 : 0"
       inkscape:vp_z="744.09448 : 526.18109 : 1"
       inkscape:persp3d-origin="372.04724 : 350.78739 : 1"
       id="perspective3136" />
    <inkscape:perspective
       id="perspective3033"
       inkscape:persp3d-origin="0.5 : 0.33333333 : 1"
       inkscape:vp_z="1 : 0.5 : 1"
       inkscape:vp_y="0 : 1000 : 0"
       inkscape:vp_x="0 : 0.5 : 1"
       sodipodi:type="inkscape:persp3d" />
    <linearGradient
       id="linearGradient865-4">
      <stop
         style="stop-color:#fafdff;stop-opacity:0.0000000;"
         offset="0.0000000"
         id="stop866-0" />
      <stop
         style="stop-color:#ffffff;stop-opacity:1.0000000;"
         offset="1.0000000"
         id="stop867-9" />
    </linearGradient>
    <linearGradient
       id="linearGradient860-4">
      <stop
         style="stop-color:#fafdff;stop-opacity:0.0000000;"
         offset="0.0000000"
         id="stop861-8" />
      <stop
         style="stop-color:#ffffff;stop-opacity:0.84677422;"
         offset="1.0000000"
         id="stop862-8" />
    </linearGradient>
    <linearGradient
       id="linearGradient3046">
      <stop
         style="stop-color:#fafdff;stop-opacity:0.0000000;"
         offset="0.0000000"
         id="stop3048" />
      <stop
         style="stop-color:#ffffff;stop-opacity:0.84677422;"
         offset="1.0000000"
         id="stop3050" />
    </linearGradient>
    <linearGradient
       id="linearGradient3053">
      <stop
         style="stop-color:#fafdff;stop-opacity:0.0000000;"
         offset="0.0000000"
         id="stop3055" />
      <stop
         style="stop-color:#ffffff;stop-opacity:1.0000000;"
         offset="1.0000000"
         id="stop3057" />
    </linearGradient>
    <linearGradient
       id="linearGradient3060">
      <stop
         style="stop-color:#fafdff;stop-opacity:0.0000000;"
         offset="0.0000000"
         id="stop3062" />
      <stop
         style="stop-color:#ffffff;stop-opacity:1.0000000;"
         offset="1.0000000"
         id="stop3064" />
    </linearGradient>
    <linearGradient
       inkscape:collect="always"
       xlink:href="#linearGradient865-4"
       id="linearGradient4356"
       gradientUnits="userSpaceOnUse"
       gradientTransform="scale(1.250806,0.799484)"
       x1="911.58417"
       y1="626.5332"
       x2="911.58417"
       y2="471.98822" />
    <linearGradient
       inkscape:collect="always"
       xlink:href="#linearGradient860-4"
       id="linearGradient4358"
       gradientUnits="userSpaceOnUse"
       gradientTransform="scale(1.194349,0.837276)"
       x1="309.547"
       y1="292.84094"
       x2="309.547"
       y2="127.49744" />
    <linearGradient
       inkscape:collect="always"
       xlink:href="#linearGradient860-4"
       id="linearGradient4360"
       gradientUnits="userSpaceOnUse"
       gradientTransform="scale(1.194349,0.837276)"
       x1="309.547"
       y1="292.84094"
       x2="309.547"
       y2="127.49744" />
    <linearGradient
       inkscape:collect="always"
       xlink:href="#linearGradient865-4"
       id="linearGradient4362"
       gradientUnits="userSpaceOnUse"
       gradientTransform="matrix(0.0699544,0,0,0.04477166,1.224725,10.42977)"
       x1="472.38922"
       y1="807.86877"
       x2="472.10596"
       y2="746.31073" />
    <linearGradient
       inkscape:collect="always"
       xlink:href="#linearGradient865-4"
       id="linearGradient4364"
       gradientUnits="userSpaceOnUse"
       gradientTransform="matrix(0.04996454,0,0,0.06268437,1.224725,10.42977)"
       x1="254.96887"
       y1="629.17017"
       x2="277.04468"
       y2="579.98926" />
    <filter
       id="filter4266"
       height="1.4795603"
       y="-0.23978013"
       width="1.1971757"
       x="-0.098587848"
       inkscape:collect="always">
      <feGaussianBlur
         id="feGaussianBlur4268"
         stdDeviation="13.774305"
         inkscape:collect="always" />
    </filter>
    <filter
       id="filter3753"
       height="1.3519316"
       y="-0.17596582"
       width="1.2237897"
       x="-0.11189486"
       inkscape:collect="always">
      <feGaussianBlur
         id="feGaussianBlur3755"
         stdDeviation="1.9832045"
         inkscape:collect="always" />
    </filter>
    <filter
       id="filter3725"
       height="1.3906949"
       y="-0.1953474"
       width="1.8212018"
       x="-0.41060093"
       inkscape:collect="always">
      <feGaussianBlur
         id="feGaussianBlur3727"
         stdDeviation="2.3842501"
         inkscape:collect="always" />
    </filter>
    <filter
       id="filter3689"
       height="1.25696"
       y="-0.12848002"
       width="1.2714366"
       x="-0.1357183"
       inkscape:collect="always">
      <feGaussianBlur
         id="feGaussianBlur3691"
         stdDeviation="1.7438784"
         inkscape:collect="always" />
    </filter>
    <linearGradient
       gradientTransform="translate(0,10)"
       gradientUnits="userSpaceOnUse"
       y2="261.17166"
       x2="309.04251"
       y1="277.75644"
       x1="271.04144"
       id="linearGradient3603"
       xlink:href="#linearGradient3597"
       inkscape:collect="always" />
    <filter
       id="filter3591"
       height="1.2194839"
       y="-0.10974194"
       width="1.4187077"
       x="-0.20935383"
       inkscape:collect="always">
      <feGaussianBlur
         id="feGaussianBlur3593"
         stdDeviation="2.462712"
         inkscape:collect="always" />
    </filter>
    <linearGradient
       gradientUnits="userSpaceOnUse"
       y2="328.00104"
       x2="323.14954"
       y1="329.57437"
       x1="277.99091"
       id="linearGradient3497"
       xlink:href="#linearGradient3491"
       inkscape:collect="always" />
    <linearGradient
       gradientTransform="translate(2.1717038,5.005081)"
       gradientUnits="userSpaceOnUse"
       y2="117.88925"
       x2="142.78633"
       y1="168.83853"
       x1="110.72978"
       id="linearGradient3283"
       xlink:href="#linearGradient3277"
       inkscape:collect="always" />
    <linearGradient
       gradientTransform="translate(0,10)"
       gradientUnits="userSpaceOnUse"
       y2="138.73706"
       x2="179.38364"
       y1="190.40334"
       x1="145.37695"
       id="linearGradient3201"
       xlink:href="#linearGradient3195"
       inkscape:collect="always" />
    <radialGradient
       gradientTransform="matrix(0.445728,0,0,0.445728,102.6025,134.3054)"
       gradientUnits="userSpaceOnUse"
       xlink:href="#linearGradient5479"
       id="radialGradient1957"
       fy="273.52124"
       fx="228.39549"
       r="12.374369"
       cy="273.52124"
       cx="228.39549" />
    <radialGradient
       gradientTransform="matrix(0.9999997,1.1357497e-6,-8.6663327e-8,7.630491e-2,-24.809561,-97.658778)"
       gradientUnits="userSpaceOnUse"
       xlink:href="#linearGradient5479"
       id="radialGradient1941"
       fy="147.47948"
       fx="353.37662"
       r="44.017399"
       cy="147.47948"
       cx="353.37662" />
    <radialGradient
       gradientTransform="matrix(1,1.13575e-6,-8.666337e-8,7.630495e-2,4.489151,-101.038)"
       gradientUnits="userSpaceOnUse"
       xlink:href="#linearGradient5479"
       id="radialGradient5525"
       fy="147.47948"
       fx="353.37662"
       r="44.017399"
       cy="147.47948"
       cx="353.37662" />
    <radialGradient
       gradientUnits="userSpaceOnUse"
       xlink:href="#linearGradient5479"
       id="radialGradient5485"
       fy="273.52124"
       fx="228.39549"
       r="12.374369"
       cy="273.52124"
       cx="228.39549" />
    <linearGradient
       id="linearGradient5479">
      <stop
         id="stop5481"
         offset="0"
         style="stop-color:white;stop-opacity:0.8041237" />
      <stop
         id="stop5483"
         offset="1"
         style="stop-color:white;stop-opacity:0" />
    </linearGradient>
    <linearGradient
       id="linearGradient3195"
       inkscape:collect="always">
      <stop
         id="stop3197"
         offset="0"
         style="stop-color:#ffff25;stop-opacity:1;" />
      <stop
         id="stop3199"
         offset="1"
         style="stop-color:#ffff25;stop-opacity:0;" />
    </linearGradient>
    <linearGradient
       id="linearGradient3277"
       inkscape:collect="always">
      <stop
         id="stop3279"
         offset="0"
         style="stop-color:#f03031;stop-opacity:1;" />
      <stop
         id="stop3281"
         offset="1"
         style="stop-color:#f03031;stop-opacity:0;" />
    </linearGradient>
    <linearGradient
       id="linearGradient3491"
       inkscape:collect="always">
      <stop
         id="stop3493"
         offset="0"
         style="stop-color:#26b144;stop-opacity:1;" />
      <stop
         id="stop3495"
         offset="1"
         style="stop-color:#26b144;stop-opacity:0;" />
    </linearGradient>
    <linearGradient
       id="linearGradient3597"
       inkscape:collect="always">
      <stop
         id="stop3599"
         offset="0"
         style="stop-color:#d82b2c;stop-opacity:1;" />
      <stop
         id="stop3601"
         offset="1"
         style="stop-color:#d82b2c;stop-opacity:0;" />
    </linearGradient>
    <inkscape:perspective
       id="perspective3029"
       inkscape:persp3d-origin="240 : 176.66667 : 1"
       inkscape:vp_z="480 : 265 : 1"
       inkscape:vp_y="0 : 1000 : 0"
       inkscape:vp_x="0 : 265 : 1"
       sodipodi:type="inkscape:persp3d" />
    <radialGradient
       inkscape:collect="always"
       xlink:href="#linearGradient5479"
       id="radialGradient3148"
       gradientUnits="userSpaceOnUse"
       gradientTransform="matrix(0.445728,0,0,0.445728,102.6025,134.3054)"
       cx="228.39549"
       cy="273.52124"
       fx="228.39549"
       fy="273.52124"
       r="12.374369" />
    <radialGradient
       inkscape:collect="always"
       xlink:href="#linearGradient5479"
       id="radialGradient3150"
       gradientUnits="userSpaceOnUse"
       gradientTransform="matrix(0.9999997,1.1357497e-6,-8.6663327e-8,0.07630491,-24.809561,-97.658778)"
       cx="353.37662"
       cy="147.47948"
       fx="353.37662"
       fy="147.47948"
       r="44.017399" />
    <inkscape:perspective
       id="perspective3160"
       inkscape:persp3d-origin="251 : 146 : 1"
       inkscape:vp_z="502 : 219 : 1"
       inkscape:vp_y="0 : 1000 : 0"
       inkscape:vp_x="0 : 219 : 1"
       sodipodi:type="inkscape:persp3d" />
    <inkscape:perspective
       id="perspective3175"
       inkscape:persp3d-origin="0.5 : 0.33333333 : 1"
       inkscape:vp_z="1 : 0.5 : 1"
       inkscape:vp_y="0 : 1000 : 0"
       inkscape:vp_x="0 : 0.5 : 1"
       sodipodi:type="inkscape:persp3d" />
  </defs>
  <sodipodi:namedview
     inkscape:document-units="mm"
     id="base"
     pagecolor="#ffffff"
     bordercolor="#666666"
     borderopacity="1.0"
     inkscape:pageopacity="0.0"
     inkscape:pageshadow="2"
     inkscape:zoom="0.7"
     inkscape:cx="459.93133"
     inkscape:cy="729.19958"
     inkscape:current-layer="layer1"
     showgrid="false"
     inkscape:window-width="1280"
     inkscape:window-height="743"
     inkscape:window-x="0"
     inkscape:window-y="0"
     inkscape:window-maximized="1" />
  <metadata
     id="metadata4">
    <rdf:RDF>
      <cc:Work
         rdf:about="">
        <dc:format>image/svg+xml</dc:format>
        <dc:type
           rdf:resource="http://purl.org/dc/dcmitype/StillImage" />
        <dc:title />
      </cc:Work>
    </rdf:RDF>
  </metadata>
  <g
     inkscape:label="Layer 1"
     inkscape:groupmode="layer"
     id="layer1">
    <rect
       style="fill:#666666;fill-opacity:1;stroke:none"
       id="rect3068"
       width="744.09448"
       height="88.638924"
       x="0"
       y="963.72321" />
    <rect
       style="fill:#666666;fill-opacity:1;stroke:none"
       id="rect3068-1"
       width="744.09448"
       height="285.96176"
       x="0"
       y="305.74799" />
    <text
       xml:space="preserve"
       style="font-size:32px;font-style:normal;font-variant:normal;font-weight:900;font-stretch:normal;text-align:start;line-height:125%;writing-mode:lr-tb;text-anchor:start;fill:#000000;fill-opacity:1;stroke:none;font-family:Arial Black;-inkscape-font-specification:Arial Black Heavy"
       x="371.92419"
       y="245.57629"
       id="text3003"
       sodipodi:linespacing="125%"><tspan
         sodipodi:role="line"
         x="371.92419"
         y="245.57629"
         style="font-size:40px;font-style:normal;font-variant:normal;font-weight:bold;font-stretch:normal;text-align:center;line-height:125%;writing-mode:lr-tb;text-anchor:middle;font-family:DejaVu Sans Condensed;-inkscape-font-specification:'DejaVu Sans Condensed,'"
         id="tspan4386">HULK-Ri i Odjel za informatiku</tspan></text>
    <g
       id="Layer_x0020_1"
       transform="matrix(4.1907423,0,0,4.1907423,31.119156,38.266879)">
      <metadata
         id="CorelCorpID_0Corel-Layer" />
      <g
         id="_103378480">
        <polygon
           points="62.5295,62.0466 62.5295,69.999 86.1102,69.999 86.1102,62.0466 79.5408,62.0466 79.5408,27.9548 63.9125,27.9548 63.9125,35.8381 69.0989,35.8381 69.0989,62.0466 "
           class="fil0"
           id="_103369264"
           style="fill:#4d4c4e"
           transform="translate(63.701589,-32.253969)" />
        <polygon
           points="58.1038,69.999 58.1038,62.0466 34.5922,62.0466 34.5922,69.999 "
           class="fil0"
           id="_103374856"
           style="fill:#4d4c4e"
           transform="translate(63.701589,-32.253969)" />
        <path
           d="m 103.68759,14.164331 c 0,3.3062 2.7569,6.4311 5.8088,6.4311 l 1.1064,0 c 3.0113,0 5.8088,-3.0791 5.8088,-6.2928 l 0,-0.4841 c 0,-3.0697 -3.0362,-6.0160997 -6.0854,-6.0160997 l -0.2766,0 c -3.4768,0 -6.362,2.8649997 -6.362,6.3618997 z"
           class="fil1"
           id="_100109352"
           style="fill:#00b0f0" />
      </g>
    </g>
    <text
       xml:space="preserve"
       style="font-size:12px;font-style:normal;font-variant:normal;font-weight:900;font-stretch:normal;text-align:start;line-height:125%;writing-mode:lr-tb;text-anchor:start;fill:#000000;fill-opacity:1;stroke:none;font-family:Arial Black;-inkscape-font-specification:Arial Black Heavy"
       x="372.01794"
       y="851.27747"
       id="text3003-7"
       sodipodi:linespacing="125%"><tspan
         sodipodi:role="line"
         x="372.01794"
         y="851.27747"
         style="font-size:36px;font-style:normal;font-variant:normal;font-weight:normal;font-stretch:normal;text-align:center;line-height:125%;writing-mode:lr-tb;text-anchor:middle;fill:#000000;font-family:DejaVu Sans Condensed;-inkscape-font-specification:'DejaVu Sans Condensed,'"
         id="tspan3092">Predavanje će održati <tspan
   style="font-size:36px;font-weight:bold"
   id="tspan3990">Domagoj Margan</tspan>,</tspan><tspan
         sodipodi:role="line"
         x="372.01794"
         y="896.27747"
         style="font-size:36px;font-style:normal;font-variant:normal;font-weight:normal;font-stretch:normal;text-align:center;line-height:125%;writing-mode:lr-tb;text-anchor:middle;fill:#000000;font-family:DejaVu Sans Condensed;-inkscape-font-specification:'DejaVu Sans Condensed,'"
         id="tspan3108">student informatike, u srijedu,</tspan><tspan
         sodipodi:role="line"
         x="372.01794"
         y="941.27747"
         style="font-size:36px;font-style:normal;font-variant:normal;font-weight:normal;font-stretch:normal;text-align:center;line-height:125%;writing-mode:lr-tb;text-anchor:middle;fill:#000000;font-family:DejaVu Sans Condensed;-inkscape-font-specification:'DejaVu Sans Condensed,'"
         id="tspan3853"><tspan
   style="font-size:36px;font-weight:bold"
   id="tspan3992">27.01.2010.</tspan> u <tspan
   style="font-size:36px;font-weight:bold"
   id="tspan3994">16h</tspan> u prostoriji <tspan
   style="font-size:36px;font-weight:bold"
   id="tspan3996">101</tspan>.</tspan></text>
    <text
       xml:space="preserve"
       style="font-size:72px;font-style:normal;font-variant:normal;font-weight:900;font-stretch:normal;text-align:start;line-height:125%;writing-mode:lr-tb;text-anchor:start;fill:#ffffff;fill-opacity:1;stroke:none;font-family:Arial Black;-inkscape-font-specification:Arial Black Heavy"
       x="369.92224"
       y="372.24103"
       id="text3003-7-8"
       sodipodi:linespacing="125%"><tspan
         sodipodi:role="line"
         x="369.92224"
         y="372.24103"
         style="font-size:72px;font-style:normal;font-variant:normal;font-weight:bold;font-stretch:normal;text-align:center;line-height:125%;writing-mode:lr-tb;text-anchor:middle;fill:#ffffff;font-family:DejaVu Sans Condensed;-inkscape-font-specification:'DejaVu Sans Condensed,'"
         id="tspan2898">Slobodan softver</tspan><tspan
         sodipodi:role="line"
         x="369.92224"
         y="372.24103"
         style="font-size:72px;font-style:normal;font-variant:normal;font-weight:bold;font-stretch:normal;text-align:center;line-height:125%;writing-mode:lr-tb;text-anchor:middle;fill:#ffffff;font-family:DejaVu Sans Condensed;-inkscape-font-specification:'DejaVu Sans Condensed,'"
         id="tspan2902">nekad i danas</tspan></text>
    <text
       xml:space="preserve"
       style="font-size:36px;font-style:normal;font-variant:normal;font-weight:900;font-stretch:normal;text-align:start;line-height:125%;writing-mode:lr-tb;text-anchor:start;fill:#000000;fill-opacity:1;stroke:none;font-family:Arial Black;-inkscape-font-specification:Arial Black Heavy"
       x="371.39294"
       y="290.48923"
       id="text3003-7-1-4"
       sodipodi:linespacing="125%"><tspan
         sodipodi:role="line"
         x="371.39294"
         y="290.48923"
         style="font-size:40px;font-style:normal;font-variant:normal;font-weight:normal;font-stretch:normal;text-align:center;line-height:125%;writing-mode:lr-tb;text-anchor:middle;font-family:DejaVu Sans Condensed;-inkscape-font-specification:DejaVu Sans Condensed"
         id="tspan3456">pozivaju vas na predavanje</tspan></text>
    <text
       xml:space="preserve"
       style="font-size:12px;font-style:normal;font-variant:normal;font-weight:900;font-stretch:normal;text-align:start;line-height:125%;writing-mode:lr-tb;text-anchor:start;fill:#ffffff;fill-opacity:1;stroke:none;font-family:Arial Black;-inkscape-font-specification:Arial Black Heavy"
       x="372.67224"
       y="517.54169"
       id="text3003-7-1-4-2-1"
       sodipodi:linespacing="125%"><tspan
         sodipodi:role="line"
         x="372.67224"
         y="517.54169"
         style="font-size:44px;font-style:normal;font-variant:normal;font-weight:normal;font-stretch:normal;text-align:center;line-height:125%;writing-mode:lr-tb;text-anchor:middle;fill:#ffffff;font-family:DejaVu Sans Condensed;-inkscape-font-specification:'DejaVu Sans Condensed,'"
         id="tspan3456-2-6">od hakerske igračke</tspan><tspan
         sodipodi:role="line"
         x="372.67224"
         y="572.54169"
         style="font-size:44px;font-style:normal;font-variant:normal;font-weight:normal;font-stretch:normal;text-align:center;line-height:125%;writing-mode:lr-tb;text-anchor:middle;fill:#ffffff;font-family:DejaVu Sans Condensed;-inkscape-font-specification:'DejaVu Sans Condensed,'"
         id="tspan2925">do multimilijunskih korporacija</tspan></text>
    <text
       xml:space="preserve"
       style="font-size:40px;font-style:normal;font-variant:normal;font-weight:900;font-stretch:normal;text-align:start;line-height:125%;writing-mode:lr-tb;text-anchor:start;fill:#ffffff;fill-opacity:1;stroke:none;font-family:Arial Black;-inkscape-font-specification:Arial Black Heavy"
       x="369.60974"
       y="1026.7872"
       id="text3003-7-85"
       sodipodi:linespacing="125%"><tspan
         sodipodi:role="line"
         x="369.60974"
         y="1026.7872"
         style="font-size:64px;font-style:normal;font-variant:normal;font-weight:bold;font-stretch:normal;text-align:center;line-height:125%;writing-mode:lr-tb;text-anchor:middle;fill:#ffffff;font-family:DejaVu Sans Condensed;-inkscape-font-specification:'DejaVu Sans Condensed, Bold'"
         id="tspan3392-7">http://www.ri.linux.hr</tspan></text>
    <g
       id="g3953"
       transform="matrix(1.1488948,0,0,1.1488948,-183.5116,542.75486)">
      <g
         transform="matrix(3.4476375,0,0,2.9647766,209.72245,-471.75761)"
         id="g6766">
        <path
           sodipodi:nodetypes="ccccccccccccccssscccccccc"
           d="m 30.549459,58.329437 c 0,0 -0.879387,-1.715168 -7.014459,-2.203804 -6.189389,0 -5.472884,0.520733 -5.907217,0.846485 -1.140151,0.922985 -1.357317,1.520203 -2.171711,1.574497 -0.814394,0.05429 -2.606059,-4.669188 -2.280302,-4.886359 L 9.3752727,48.719627 7.6379077,44.647656 c 0,0 -0.5972253,-0.542922 -0.5429233,-1.628784 -0.059653,-2.168238 0.8302903,-5.890219 3.5290286,-9.121189 1.30303,-2.063125 3.52903,-4.723467 3.909075,-5.537863 0.380047,-0.814396 0.434349,-1.411605 0.542926,-2.931807 0.10859,-1.520194 0,-3.746203 0,-5.429281 0,-1.683071 -0.162879,-2.606048 0.217179,-4.343421 0.380046,-1.737364 1.30303,-2.877512 1.791665,-3.311845 0.488623,-0.434349 2.443166,-1.791667 4.669178,-1.52021 2.225999,0.271465 4.72537,0.804747 6.243663,3.094691 0.935027,1.352336 0.993169,1.507029 1.248743,2.497465 0.224919,0.757841 0.542924,4.777762 0.542924,5.429274 0,0.651512 0,2.768939 0.868681,4.180544 0.868682,1.411621 3.691909,5.157816 4.56059,6.460848 0.868696,1.303023 2.49747,4.397707 2.71465,5.592157 0.672906,2.219852 0.325755,4.506304 0.108575,5.646444 -0.217167,1.140148 -1.03156,2.986102 -1.03156,2.986102 0,0 -3.203273,11.184322 -4.289134,11.510082 -1.085851,0.325752 -2.171709,0.108574 -2.171709,0.108574 z"
           id="path1290"
           style="fill:#000000;fill-opacity:1;fill-rule:evenodd;stroke:none"
           inkscape:export-filename="/mnt/data/rilinux/pecat1c.png"
           inkscape:export-xdpi="26.23"
           inkscape:export-ydpi="26.23" />
        <path
           sodipodi:nodetypes="ccccccccccsssscccc"
           d="m 16.813389,56.972118 c 0,0 -0.542923,1.574497 -2.008832,1.845954 -1.465909,0.271474 -3.203271,-0.108573 -4.723481,-0.922969 -1.5201973,-0.814387 -7.6009828,-2.117419 -7.6009828,-2.117419 0,0 -0.5972252,-0.108589 -0.5972252,-0.760109 0,-0.651512 0.86868,-2.33459 0.86868,-2.931799 0,-0.597226 -0.3257438,-4.126258 -0.3257438,-4.126258 0,0 0.054289,-0.651512 0.3800457,-0.868674 0.3257584,-0.217187 0.7600923,-0.32576 1.5744858,-0.32576 0.8143917,0 1.0315607,0.271449 1.6287859,-0.10859 0.5972277,-0.380046 1.4116057,-1.845954 1.4116057,-1.845954 0,0 0.1628808,-0.434349 0.8143944,-0.597233 0.651515,-0.162876 0.843471,-0.06359 1.223519,0.153567 0.380058,0.217187 1.1653723,0.769418 1.7082953,1.529527 0.542926,0.760093 1.954546,3.094675 2.714638,4.126242 0.760104,1.031574 2.063133,2.986102 2.44318,3.746203 0.380046,0.760093 0.922982,1.683078 0.760104,2.388885 -0.162879,0.705798 -0.271469,0.814387 -0.271469,0.814387 z"
           id="path1291"
           style="fill:#000000;fill-rule:evenodd;stroke:#000000;stroke-width:0.33335376;stroke-opacity:1"
           inkscape:export-filename="/mnt/data/rilinux/pecat1c.png"
           inkscape:export-xdpi="26.23"
           inkscape:export-ydpi="26.23" />
        <path
           sodipodi:nodetypes="ccccccccccccccccccccccccccccccccccccccccccccccccc"
           d="m 20.776766,24.260718 4.343421,0.841543 0.651513,0.868682 c 0,0 1.35732,2.008831 2.008832,4.180545 0.651515,2.171706 0.651515,2.551752 0.651515,2.768931 0,0.217171 0.597213,0.380047 1.194439,1.357318 0.597213,0.977272 1.411606,2.877521 1.574485,5.049227 0.162879,2.171714 0.108591,4.940645 -0.162879,6.026499 -0.271454,1.085861 0.325758,-1.085854 0.814394,-1.520203 0.488637,-0.434333 0.977271,-0.600514 0.996476,-0.581314 0.3839,-0.422295 0.78997,-0.946827 1.039511,-2.866268 0.01919,-1.900241 -0.242957,-2.665008 -0.787244,-4.044816 -0.678668,-1.303032 -2.090274,-2.361745 -2.090274,-2.361745 0,0 1.262132,0.372901 2.49747,2.253156 0.678652,1.438768 1.058711,3.474738 0.814394,4.75063 -0.244317,1.275876 -0.54294,2.090272 -0.54294,2.090272 0,0 1.35732,0.08143 1.954545,0.298605 0.597228,0.21717 1.264637,0.515775 1.400366,0.705806 0.308497,0.247607 0.472739,0.57007 0.472739,0.841543 l -0.230888,0.851119 c -0.211501,-0.494736 -7.08e-4,-1.047056 -0.48095,-1.349841 -0.326493,-0.247364 -0.825752,-0.475536 -1.209836,-0.626924 -0.377686,-0.132196 -1.100895,-0.341169 -1.824104,-0.319806 -0.678416,0.0022 -1.049699,0.04275 -1.632145,0.563192 -0.249709,0.264515 -0.461037,0.605805 -0.595586,0.947095 l -1.708926,3.979965 c 0,0 -2.958955,3.501893 -5.293544,4.506312 -2.334587,1.004411 -3.148982,0.922969 -3.583328,0.950125 -0.434335,0.02714 -3.420439,0.190015 -4.343422,-0.76011 -0.922972,-0.950116 -1.520196,-2.063116 -1.520196,-2.063116 0,0 1.357317,-0.0543 1.710225,-0.787241 0.352907,-0.732954 0.135727,-1.113016 -0.05429,-1.493063 -0.190029,-0.380046 -0.705815,-0.922969 -0.977272,-1.140148 -0.271469,-0.21717 -3.719059,-2.877512 -4.017664,-3.12183 -0.29862,-0.244318 -1.764528,-1.303032 -2.0088473,-2.551761 -0.244305,-1.248745 -0.027138,-2.823226 0.13574,-3.284722 0.1628813,-0.461489 0.4343373,-1.357319 1.0044103,-2.36173 0.570077,-1.004419 1.357332,-2.00883 1.357332,-2.00883 0,0 -1.43877,2.768923 -1.547347,3.067544 -0.108591,0.298605 -0.705816,1.818807 -0.597226,2.877513 0.10859,1.058713 0.135728,1.845954 0.624363,2.198861 0.488638,0.352899 0.244317,0.162876 0.244317,0.162876 0,0 0.02715,-3.040405 1.085863,-5.157816 1.058712,-2.117419 2.090273,-4.017676 2.090273,-4.017676 0,0 0.541141,-2.900334 1.056074,-3.713677 0.487902,-1.002629 1.359955,-2.041349 1.359955,-2.041349 0,0 -0.05429,-0.515783 -0.05429,-1.465907 0,-0.950125 0.434333,-1.465908 0.434333,-1.465908 l 3.74621,-1.031558 z"
           id="path842"
           style="fill:#ffffff;fill-opacity:1;fill-rule:evenodd;stroke:none"
           inkscape:export-filename="/mnt/data/rilinux/pecat1c.png"
           inkscape:export-xdpi="26.23"
           inkscape:export-ydpi="26.23" />
        <path
           sodipodi:nodetypes="ccccccccc"
           d="m 17.878658,23.151703 c 0.0192,0.01919 -0.537466,0.345511 -0.710223,0.287927 -0.172767,-0.05759 -0.825411,-0.691029 -0.940572,-1.420459 -0.115175,-0.729422 -0.383914,-1.689195 0.115161,-2.994471 0.24954,-0.403103 0.537482,-0.902197 1.209314,-0.978965 0.787006,0.09597 1.19011,0.249535 1.535634,1.2093 0.211146,0.556671 0.30712,1.094141 0.249538,1.804363 -0.153567,0.729429 -0.422294,1.324484 -0.806208,1.612419 -0.345511,0.211143 -0.63344,0.479886 -0.652644,0.479886 z"
           id="path1294"
           style="fill:#ffffff;fill-opacity:1;fill-rule:evenodd;stroke:none"
           inkscape:export-filename="/mnt/data/rilinux/pecat1c.png"
           inkscape:export-xdpi="26.23"
           inkscape:export-ydpi="26.23" />
        <path
           sodipodi:nodetypes="ccccccc"
           d="m 23.061422,23.286063 c 0,0 -1.650808,-1.074933 -1.612418,-2.802528 0.09597,-1.439643 0.362025,-1.95558 1.343677,-2.552975 0.940572,-0.268736 1.760238,-0.140104 2.476205,0.652646 0.921383,1.203564 0.78702,2.418608 0.767817,2.648959 -0.01919,0.230335 0,1.382068 -0.787007,2.034714 -0.78702,0.652638 -2.188274,0.01918 -2.188274,0.01918 z"
           id="path1295"
           style="fill:#ffffff;fill-opacity:1;fill-rule:evenodd;stroke:none"
           inkscape:export-filename="/mnt/data/rilinux/pecat1c.png"
           inkscape:export-xdpi="26.23"
           inkscape:export-ydpi="26.23" />
        <path
           sodipodi:nodetypes="ccccccc"
           d="m 17.667513,22.652625 c -0.03839,0.05758 -0.499078,-0.19196 -0.882994,-1.132525 -0.312665,-1.079922 -0.123844,-1.503376 0.287932,-1.727594 0.548001,-0.206177 0.894926,-0.07737 1.184732,0.348208 0.445364,0.708294 0.562048,1.532938 0.466075,1.840065 -0.134363,0.441503 -0.287929,0.652646 -0.556668,0.691038 -0.268728,0.03839 -0.499077,-0.01919 -0.499077,-0.01919 z"
           id="path1296"
           style="fill:#000000;fill-opacity:1;fill-rule:evenodd;stroke:none"
           inkscape:export-filename="/mnt/data/rilinux/pecat1c.png"
           inkscape:export-xdpi="26.23"
           inkscape:export-ydpi="26.23" />
        <path
           sodipodi:nodetypes="ccccccc"
           d="m 22.850275,22.21113 c 0,0 -0.307135,-0.710238 -0.134376,-1.881154 0.172766,-0.787014 0.584291,-0.940573 1.020054,-0.959765 0.515933,0.05758 1.025777,0.406149 1.083372,1.113324 0.09597,1.266892 -0.222271,1.785171 -0.241474,1.804379 -0.383903,0.460687 -0.671829,0.614246 -0.902179,0.595046 -0.23035,-0.01918 -0.825397,-0.67183 -0.825397,-0.67183 z"
           id="path1297"
           style="fill:#000000;fill-opacity:1;fill-rule:evenodd;stroke:none"
           inkscape:export-filename="/mnt/data/rilinux/pecat1c.png"
           inkscape:export-xdpi="26.23"
           inkscape:export-ydpi="26.23" />
        <path
           sodipodi:nodetypes="cccccccccccccccc"
           d="m 25.230495,25.781479 c 0,0 -1.055747,0.403087 -1.458851,0.710222 -0.403104,0.307135 -1.362866,1.170916 -1.823564,1.286092 -0.518265,0.134367 -1.458852,0.422294 -2.053901,0.307119 -0.595061,-0.115176 -1.382067,-0.537471 -1.900346,-1.074933 -0.422294,-0.460686 -0.55667,-0.767821 -0.825398,-0.902181 -0.0192,-0.01921 -0.499088,-0.249551 -0.575871,-0.460703 -0.07677,-0.211143 -0.499078,-0.787005 -0.326323,-1.305284 0.17277,-0.518278 1.113342,-1.266892 1.305298,-1.458851 0.191945,-0.191951 1.324475,-1.324476 2.648961,-1.305284 1.324477,0.01919 2.437816,0.710238 3.435972,1.094141 0.998164,0.383902 1.631618,0.422294 1.823561,0.518278 0.191957,0.09597 0.55667,0.383903 0.537479,0.652638 -0.0192,0.268727 -0.191954,0.403103 -0.134375,0.71023 0.0576,0.307127 -0.172754,0.767813 -0.32632,0.940573 -0.153569,0.172767 -0.326322,0.287943 -0.326322,0.287943 z"
           id="path1298"
           style="fill:#ffffff;fill-rule:evenodd;stroke:#000000;stroke-width:0.33335376;stroke-opacity:1"
           inkscape:export-filename="/mnt/data/rilinux/pecat1c.png"
           inkscape:export-xdpi="26.23"
           inkscape:export-ydpi="26.23" />
        <path
           sodipodi:nodetypes="cccccc"
           d="m 16.650157,25.224809 c 0.115175,0.211143 0.172754,-0.268743 1.074935,0.652638 0.710237,0.479886 1.650809,0.287935 2.073104,0.307135 1.209311,-0.134376 1.785171,-0.19196 2.744944,-0.767822 0.710239,-0.518278 1.497242,-0.998165 1.727593,-1.094132 0.230337,-0.09599 0.479874,-0.19196 0.441483,-0.19196"
           id="path1299"
           style="fill:none;stroke:#000000;stroke-width:0.33335376;stroke-linecap:round;stroke-opacity:1"
           inkscape:export-filename="/mnt/data/rilinux/pecat1c.png"
           inkscape:export-xdpi="26.23"
           inkscape:export-ydpi="26.23" />
        <path
           d="m 20.873145,22.307106 0,0 0.633438,-0.01919 c 0,0 0.326335,0.153551 0.115175,0.268727 -0.211144,0.115176 -0.36471,0.05759 -0.518266,-0.05758 -0.153566,-0.115175 -0.230347,-0.191951 -0.230347,-0.191951 z"
           id="path1301"
           style="fill:#000000;fill-opacity:1;fill-rule:evenodd;stroke:none"
           inkscape:export-filename="/mnt/data/rilinux/pecat1c.png"
           inkscape:export-xdpi="26.23"
           inkscape:export-ydpi="26.23" />
        <path
           d="m 18.761649,22.671817 c 0,0 0.364715,-0.249535 0.441498,-0.230352 0.07678,0.0192 -0.115175,-0.115159 -0.211148,-0.115159 -0.09598,0 -0.249551,0.115159 -0.249551,0.191943 0,0.07678 0.0192,0.153568 0.0192,0.153568 z"
           id="path1302"
           style="fill:#000000;fill-opacity:1;fill-rule:evenodd;stroke:none"
           inkscape:export-filename="/mnt/data/rilinux/pecat1c.png"
           inkscape:export-xdpi="26.23"
           inkscape:export-ydpi="26.23" />
        <path
           sodipodi:cx="1141.0967"
           sodipodi:cy="439.56982"
           sodipodi:rx="98.738968"
           sodipodi:ry="63.111507"
           sodipodi:type="arc"
           d="m 1239.8356,439.56982 c 0,34.85553 -44.2069,63.11151 -98.7389,63.11151 -54.532,0 -98.739,-28.25598 -98.739,-63.11151 0,-34.85552 44.207,-63.1115 98.739,-63.1115 54.532,0 98.7389,28.25598 98.7389,63.1115 z"
           id="path868"
           style="fill:url(#linearGradient4356);fill-opacity:1;fill-rule:evenodd;stroke:none"
           transform="matrix(0.0841292,0,0,0.08774723,-75.49391,1.787347)"
           inkscape:export-filename="/mnt/data/rilinux/pecat1c.png"
           inkscape:export-xdpi="26.23"
           inkscape:export-ydpi="26.23" />
        <path
           sodipodi:nodetypes="csccsssccccccccccccss"
           d="m 32.72508,59.089546 c -0.727973,-0.116472 -1.465909,-0.380047 -1.845954,-1.140156 -0.380059,-0.760101 -0.542938,-2.00883 -0.380059,-2.877512 0.162878,-0.868691 0.868695,-3.909088 0.868695,-4.343421 0,-0.434349 -0.221038,-3.954851 -0.162879,-4.452009 0.146968,-1.29485 0.488636,-1.520203 0.76009,-1.574497 0.27147,-0.0543 0.814394,-0.0543 1.411622,0.325752 0.597211,0.380062 2.008833,1.085861 2.768923,1.031574 0.760104,-0.0543 2.226013,-0.488636 2.823224,-0.542939 0.597226,-0.05429 0.922986,-0.108573 1.140152,0.10859 0.217167,0.21717 0.325758,0.271473 0.434346,0.868682 0.108578,0.597234 0.05429,1.194443 0.217167,1.628792 0.162881,0.434341 0.651517,1.085845 0.977272,1.411605 0.32576,0.325752 0.48864,0.542938 0.868684,0.814396 0.380043,0.271465 1.063368,0.443657 1.280534,0.715123 0.21718,0.271457 0.45683,0.26487 0.293964,1.076536 -0.162878,0.542923 -0.447516,1.060642 -1.060638,1.533383 -0.651518,0.434325 -2.84845,1.126967 -3.391374,1.561317 -0.542924,0.434333 -2.334591,1.791643 -2.714636,2.171706 -0.380058,0.380046 -0.858032,1.118501 -2.226012,1.574489 -0.912307,0.304097 -1.433773,0.209279 -2.063121,0.108589 z"
           id="path1304"
           style="fill:#000000;fill-opacity:1;fill-rule:evenodd;stroke:#000000;stroke-width:0.33335376;stroke-opacity:1"
           inkscape:export-filename="/mnt/data/rilinux/pecat1c.png"
           inkscape:export-xdpi="26.23"
           inkscape:export-ydpi="26.23" />
        <path
           sodipodi:nodetypes="ccccccc"
           d="m 14.842634,31.349454 c 0.28435,-0.885841 0.861758,-1.896887 1.482973,-2.709363 0.217167,-0.298604 0.336774,-0.418316 0.325639,-0.411973 0.0032,0.0048 -0.0686,-1.456356 -0.08217,-1.687105 -0.01357,-0.23074 -1.33018,1.289454 -1.33018,1.289454 0,0 -0.510476,1.344429 -0.510476,1.412302 0,0.06786 -0.12438,2.017636 0.114218,2.106685 z"
           id="path1305"
           style="fill:#000000;fill-opacity:1;fill-rule:evenodd;stroke:none"
           inkscape:export-filename="/mnt/data/rilinux/pecat1c.png"
           inkscape:export-xdpi="26.23"
           inkscape:export-ydpi="26.23" />
        <path
           sodipodi:cx="373.57941"
           sodipodi:cy="176.94452"
           sodipodi:rx="98.738968"
           sodipodi:ry="69.21907"
           sodipodi:type="arc"
           d="m 472.31837,176.94452 c 0,38.22864 -44.20694,69.21907 -98.73896,69.21907 -54.53203,0 -98.73897,-30.99043 -98.73897,-69.21907 0,-38.22864 44.20694,-69.21907 98.73897,-69.21907 54.53202,0 98.73896,30.99043 98.73896,69.21907 z"
           id="path1306"
           style="fill:url(#linearGradient4358);fill-opacity:1;fill-rule:evenodd;stroke:none"
           transform="matrix(0.00706812,0,0,0.01368073,20.90919,18.1075)"
           inkscape:export-filename="/mnt/data/rilinux/pecat1c.png"
           inkscape:export-xdpi="26.23"
           inkscape:export-ydpi="26.23" />
        <path
           sodipodi:cx="373.57941"
           sodipodi:cy="176.94452"
           sodipodi:rx="98.738968"
           sodipodi:ry="69.21907"
           sodipodi:type="arc"
           d="m 472.31837,176.94452 c 0,38.22864 -44.20694,69.21907 -98.73896,69.21907 -54.53203,0 -98.73897,-30.99043 -98.73897,-69.21907 0,-38.22864 44.20694,-69.21907 98.73897,-69.21907 54.53202,0 98.73896,30.99043 98.73896,69.21907 z"
           id="path1307"
           style="fill:url(#linearGradient4360);fill-opacity:1;fill-rule:evenodd;stroke:none"
           transform="matrix(0.00649319,-0.0018524,0.00294216,0.01269834,14.49925,19.20369)"
           inkscape:export-filename="/mnt/data/rilinux/pecat1c.png"
           inkscape:export-xdpi="26.23"
           inkscape:export-ydpi="26.23" />
        <path
           sodipodi:nodetypes="ccscccccsscc"
           d="m 29.646803,57.55259 c 0,0 -0.684449,-0.57779 -0.558032,-2.077764 0.153562,-1.2285 0.536968,-2.994146 0.702288,-3.834426 0.18747,-0.818519 0.21058,-1.320716 0.101991,-2.566731 -0.08144,-0.838797 -0.526226,-2.950295 0.227622,-3.499018 1.109473,-0.465336 1.44567,0.998173 3.250043,1.228509 1.689188,0.345518 1.99632,-0.03839 2.418612,0.03839 0.42231,0.07678 1.382072,0.767814 -0.575858,2.303449 -1.305284,1.343676 -2.013739,1.954795 -2.325934,3.125557 -0.302055,1.132687 -0.387375,1.474082 0.0093,2.878517 0.28422,0.941789 -0.29395,2.480292 -0.83143,2.710643 -0.537469,0.230335 -1.497229,0.460687 -2.418614,-0.307127 z"
           id="path1308"
           style="fill:#ffffff;fill-opacity:1;fill-rule:evenodd;stroke:none"
           inkscape:export-filename="/mnt/data/rilinux/pecat1c.png"
           inkscape:export-xdpi="26.23"
           inkscape:export-ydpi="26.23" />
        <path
           sodipodi:nodetypes="cccccccc"
           d="m 14.121026,52.254663 0.575858,1.113324 c 0.460686,0.998173 2.457006,4.49173 -2.341843,1.919538 -4.7988475,-2.572176 -7.9852897,-4.606889 -8.2540167,-5.72023 -0.2687416,-1.113325 -0.038392,-1.919538 1.4972425,-1.804362 1.2668936,0.115175 1.8043599,-1.266892 2.2266675,-1.842755 0.4990774,-0.38391 1.0749354,-1.074948 2.1498874,-0.153567 1.0121193,1.13583 3.2632103,4.990808 4.1462043,6.488052 z"
           id="path1309"
           style="fill:#ffffff;fill-opacity:1;fill-rule:evenodd;stroke:none"
           inkscape:export-filename="/mnt/data/rilinux/pecat1c.png"
           inkscape:export-xdpi="26.23"
           inkscape:export-ydpi="26.23" />
        <path
           sodipodi:nodetypes="cssccccc"
           d="m 31.852907,44.535372 -0.345512,0.767814 c 0,0 -0.268741,0.998165 0.03839,1.42046 0.307118,0.42231 2.610567,1.574027 4.069419,0.691038 1.458851,-0.882982 1.61242,-2.111498 1.61242,-2.111498 l -1.535636,-0.882981 -2.802528,-0.345519 -1.036557,0.460686 z"
           id="path879"
           style="fill:#000000;fill-opacity:1;fill-rule:evenodd;stroke:none"
           inkscape:export-filename="/mnt/data/rilinux/pecat1c.png"
           inkscape:export-xdpi="26.23"
           inkscape:export-ydpi="26.23" />
        <path
           sodipodi:nodetypes="cccccc"
           d="m 33.61889,43.882726 c 0.806207,0.07678 2.188277,0.268736 2.764137,0.767814 0.307118,0.499095 0.115175,1.074949 -0.921385,1.535635 -1.036545,0.460687 -1.919533,0.614254 -2.495396,0.19196 -0.575859,-0.422303 -0.921382,-1.113341 -0.729425,-1.497244 0.191956,-0.383902 0.575859,-1.074932 1.382069,-0.998165 z"
           id="path880"
           style="fill:url(#linearGradient4362);fill-rule:evenodd;stroke:#000000;stroke-width:0.0533366pt"
           inkscape:export-filename="/mnt/data/rilinux/pecat1c.png"
           inkscape:export-xdpi="26.23"
           inkscape:export-ydpi="26.23" />
        <path
           d="m 13.528677,46.81937 c 0,0 2.117411,1.54735 2.497469,2.090272 0.380048,0.542923 0.950121,1.22159 0.24432,1.601637 -0.705817,0.380054 -1.085862,0.190031 -1.5745,-0.705807 -0.488635,-0.89583 -1.167289,-2.986102 -1.167289,-2.986102 z"
           id="path883"
           style="fill:url(#linearGradient4364);fill-rule:evenodd;stroke:#000000;stroke-width:0.0533366pt"
           inkscape:export-filename="/mnt/data/rilinux/pecat1c.png"
           inkscape:export-xdpi="26.23"
           inkscape:export-ydpi="26.23" />
        <g
           id="g1313"
           inkscape:export-filename="/mnt/data/rilinux/pecat1c.png"
           inkscape:export-xdpi="26.23"
           inkscape:export-ydpi="26.23"
           transform="matrix(0.131164,0,0,0.131164,751.0659,281.0605)">
          <path
             d="m -5623.3299,-2005.8567 c -5.443,-0.4304 -7.005,-1.2261 -9.6342,-4.9075 -3.7146,-5.2007 -8.2113,-13.3515 -7.366,-13.3515 0.327,0 0.01,-2.0129 -0.7124,-4.4732 -1.9557,-6.6937 -0.051,-22.4612 3.2149,-26.6135 3.5432,-4.5042 18.3123,-16.7856 19.6232,-15.4748 0.3416,0.3418 23.5161,-18.1277 21.7397,-15.5353 -2.8026,4.0902 7.7845,-7.8873 8.7352,-8.4718 0.9505,-0.5843 2.533,-1.8672 3.5166,-2.8503 2.7756,-2.7747 14.7323,-6.4096 21.0838,-6.4096 7.2576,0 17.0751,2.9246 21.2241,6.3226 11.3449,9.2913 31.7392,26.7782 31.7392,27.7346 0,3.2256 13.0049,8.7322 16.1072,14.8008 4.4694,1.8885 7.9901,20.6248 7.4102,24.7769 -0.4457,3.1911 -8.053,17.5174 -9.9174,18.6769 -3.2487,2.0203 -20.0582,0.2128 -26.6754,-2.8687 -4.9487,-2.3045 -10.7481,-3.489 -20.6453,-4.2169 -7.5701,-0.5569 -15.6216,-1.4283 -17.8927,-1.9365 -2.6962,-0.6034 -3.5,-0.4806 -2.3169,0.3539 1.2251,0.864 -1.2364,1.5613 -7.5976,2.1525 -12.3522,1.1481 -21.6144,3.9933 -29.7033,9.1241 -6.6287,4.2046 -7.4034,4.3163 -21.9329,3.1673 z m 77.8205,-16.0483 c 0.9378,-2.4439 -11.597,-4.1704 -17.6461,-2.4309 -3.7965,1.092 -3.4081,1.301 4.8172,2.5931 4.9206,0.7728 9.6544,1.4843 10.5195,1.5808 0.8653,0.097 1.9045,-0.6879 2.3094,-1.743 z"
             id="path1314"
             sodipodi:nodetypes="ccccccccccccccccccccccccccc"
             style="fill:#ffffff;fill-opacity:1" />
          <path
             d="m -5621.1312,-2006.196 c -5.4431,-0.4305 -7.9955,-4.1972 -10.6248,-7.8785 -3.7145,-5.2007 -9.2014,-8.895 -8.3561,-8.895 0.3269,0 0.01,-2.0129 -0.7125,-4.4731 -1.9558,-6.6938 2.8671,-16.7538 7.0809,-24.4303 3.9646,-7.2228 14.4463,-18.969 15.7572,-17.6581 0.3417,0.3417 -0.8322,2.7423 -2.6086,5.3348 -2.8025,4.0901 -2.9574,4.9125 -1.1712,6.2188 1.6514,1.2075 1.7423,2.0959 0.4596,4.4931 -1.6438,3.071 -4.2551,4.06 -4.2551,1.6114 0,-0.757 -0.6193,-1.3765 -1.3763,-1.3765 -0.7761,0 -1.3764,3.8945 -1.3764,8.9308 0,9.9689 2.4624,14.4673 7.9189,14.4673 1.7483,0 3.5348,0.9291 3.9705,2.0646 0.4359,1.1354 1.684,2.0646 2.7736,2.0646 1.0898,0 3.0365,1.8542 4.3259,4.1203 3.8152,6.7046 4.6356,4.7091 0.9296,-2.2608 -2.0266,-3.8116 -3.4022,-8.6824 -3.4022,-12.0475 0,-7.9485 4.7617,-23.6741 8.7529,-28.9069 7.5125,-9.8494 15.8202,-16.7106 22.473,-18.5604 3.6431,-1.0129 5.8888,-2.1192 4.9901,-2.4587 -1.7741,-0.6703 -14.5624,1.4566 -19.0116,3.1617 -2.3268,0.8919 -2.1252,0.2151 1.3005,-4.373 2.2292,-2.9854 4.8309,-5.9061 5.7816,-6.4906 0.9506,-0.5845 2.5331,-1.8673 3.5167,-2.8505 2.7756,-2.7747 14.7323,-6.4095 21.0838,-6.4095 7.2576,0 17.075,2.9246 21.2242,6.3226 11.3448,9.2913 14.2756,13.9787 8.7409,13.9787 -4.2655,0 -8.9955,4.8611 -15.9976,16.4414 -5.2662,8.7094 -14.9752,28.7989 -16.7312,34.6195 -0.8522,2.8244 -0.6109,3.1168 1.9133,2.3157 1.7023,-0.5403 2.8885,-0.3133 2.8885,0.5525 0,0.808 0.6559,1.4691 1.4575,1.4691 0.8019,0 1.0205,-0.7743 0.4863,-1.7206 -0.7266,-1.2869 -0.5495,-1.3323 0.7024,-0.1798 0.9206,0.8475 4.263,1.3854 7.4278,1.1958 5.6459,-0.3384 5.6636,-0.3258 0.9367,0.6725 l -4.8171,1.0178 5.6208,0.1952 c 5.3874,0.1872 5.8385,-0.133 10.8716,-7.7187 2.8881,-4.3526 6.3957,-9.5896 7.7947,-11.6377 1.3992,-2.0481 3.7732,-6.8428 5.2757,-10.655 1.5026,-3.812 4.2995,-9.4141 6.2152,-12.4489 3.1212,-4.9442 3.7678,-5.3403 6.2185,-3.8099 1.5044,0.9395 2.735,2.4906 2.735,3.447 0,3.2257 -10.1982,20.9969 -12.0495,20.9969 -1.009,0 -1.7341,0.7743 -1.6113,1.7204 0.4614,3.5532 -0.2577,5.0691 -6.2963,13.2719 -6.9384,9.4252 -7.3869,10.5175 -3.454,8.4127 3.3705,-1.8038 11.3307,-2.2067 13.773,-0.6974 1.0323,0.638 1.4699,0.573 1.022,-0.1517 -0.4309,-0.6972 0.7117,-1.9731 2.5392,-2.8355 2.3202,-1.0949 3.5943,-1.1279 4.224,-0.1089 0.5301,0.8576 0.2469,1.0543 -0.6871,0.4771 -0.874,-0.54 -1.589,-0.3262 -1.589,0.4757 0,0.8014 0.929,1.4575 2.0645,1.4575 1.1355,0 2.0645,-0.6327 2.0645,-1.4059 0,-0.7732 1.7033,-2.1484 3.7851,-3.056 5.7749,-2.5179 12.2934,-9.9772 13.2706,-15.1865 0.5284,-2.8163 0.065,-6.9669 -1.1667,-10.4587 -2.1953,-6.2223 -0.5652,-6.4982 2.5371,-0.4297 2.1505,4.2074 5.6712,22.9438 5.0914,27.0957 -0.4456,3.1912 -8.053,17.5174 -9.9174,18.677 -3.2486,2.0204 -20.0582,0.2128 -26.6755,-2.8687 -4.9485,-2.3045 -10.7481,-3.4891 -20.6452,-4.217 -7.5701,-0.5568 -15.6216,-1.4283 -17.8926,-1.9363 -2.6963,-0.6035 -3.5002,-0.4807 -2.317,0.3538 1.2251,0.864 -1.2364,1.5613 -7.5976,2.1526 -12.3521,1.1479 -21.6144,3.9931 -29.7033,9.124 -6.6287,4.2045 -5.4227,2.8307 -19.9521,1.6818 z m 120.7176,-15.0532 c 5.7125,-5.4543 6.9735,-7.5638 7.6116,-12.7312 l 0.7647,-6.1935 -1.9824,4.2404 c -2.1989,4.7031 -8.1402,9.6776 -16.8672,14.1221 -3.1658,1.6124 -6.207,3.7148 -6.7584,4.6718 -0.5512,0.9571 -0.5539,1.3395 -0.01,0.85 0.5477,-0.4895 2.6601,-0.3877 4.6939,0.2258 2.0339,0.6138 4.1478,1.1691 4.6977,1.2341 0.5499,0.065 4.0809,-2.8238 7.8464,-6.4195 z m -44.878,0.4904 c 0.9379,-2.4438 -11.5969,-4.1704 -17.646,-2.4307 -3.7964,1.0918 -3.4082,1.3008 4.8172,2.5928 4.9205,0.7729 9.6543,1.4844 10.5194,1.5809 0.8652,0.096 1.9046,-0.6879 2.3094,-1.743 z m -21.087,-5.0445 c 0,-0.8018 -0.6193,-1.0749 -1.3763,-0.6071 -1.7637,1.09 -1.7637,2.0645 0,2.0645 0.757,0 1.3763,-0.656 1.3763,-1.4574 z m -22.0216,-1.2952 c 0,-1.9026 5.9739,-1.7338 7.9317,0.2241 1.6613,1.6611 2.0971,0.8937 6.6387,-11.6918 4.9401,-13.6888 16.721,-34.9774 22.6931,-41.0066 l 6.3061,-6.3664 -7.7852,-0.8137 c -8.6557,-0.9046 -15.4156,0.5579 -25.0033,5.4093 -7.316,3.7021 -12.2035,9.9142 -20.5736,26.1492 -4.7891,9.29 -5.5858,11.941 -4.8183,16.0325 1.0297,5.4899 5.8958,12.5083 7.8393,11.3069 0.6963,-0.4303 1.266,-0.1265 1.266,0.6754 0,0.8014 1.2389,1.4575 2.7528,1.4575 1.5141,0 2.7527,-0.6195 2.7527,-1.3764 z m -3.3641,-8.134 c -1.1439,-1.851 0.638,-5.6295 2.6545,-5.6295 2.4219,0 5.2667,3.699 4.1879,5.4451 -1.0927,1.7678 -5.7856,1.8943 -6.8424,0.1844 z m 9.6344,-23.398 c -1.3565,-2.1951 0.8121,-5.6297 3.5546,-5.6297 1.4568,0 3.0292,0.9915 3.4943,2.2034 1.2924,3.3681 -5.1496,6.4993 -7.0489,3.4263 z m 15.7513,-24.8985 c 0,-0.7571 1.5484,-1.3765 3.441,-1.3765 1.8924,0 3.4408,0.6194 3.4408,1.3765 0,0.7569 -1.5484,1.3763 -3.4408,1.3763 -1.8926,0 -3.441,-0.6194 -3.441,-1.3763 z m 5.9736,24.3852 c 0.7602,-3.0299 0.7465,-3.0286 -1.9158,0.1975 -3.1198,3.7805 -3.6459,6.8345 -0.7655,4.4442 1.0535,-0.8745 2.2603,-2.9634 2.6813,-4.6417 z m 51.4518,24.3229 c -1.1836,-1.1833 1.4529,-6.0411 3.2784,-6.0411 0.7829,0 1.2257,1.345 0.984,2.9889 -0.4513,3.066 -2.6643,4.6508 -4.2624,3.0522 z m -117.8764,-3.862 c -0.06,-1.4509 0.2657,-2.2638 0.7232,-1.8066 0.4574,0.4575 0.5061,1.6446 0.1085,2.6382 -0.4394,1.0978 -0.7655,0.7717 -0.8317,-0.8316 z m 78.3437,-3.4743 c 0,-3.5221 2.3712,-4.8639 4.8944,-2.7698 1.5348,1.2737 1.6453,2.1305 0.4594,3.5594 -2.2829,2.7506 -5.3538,2.2977 -5.3538,-0.7896 z m 49.0078,-9.1401 c -0.4596,-1.1974 -0.8354,-3.1314 -0.8354,-4.2976 0,-1.7288 0.3813,-1.804 2.0645,-0.4071 2.2325,1.8528 2.8429,6.8818 0.8355,6.8818 -0.676,0 -1.6052,-0.9798 -2.0646,-2.1771 z m -37.6529,-9.7454 c -2.3495,-0.9479 -2.1773,-5.5004 0.2436,-6.4292 2.5169,-0.9659 5.4693,2.5416 4.4267,5.2588 -0.8234,2.1457 -1.7054,2.3668 -4.6703,1.1704 z m 9.2627,-14.9497 c -0.9575,-1.1538 -1.4318,-2.407 -1.0535,-2.7851 1.2462,-1.2464 5.2103,1.0099 5.2103,2.9657 0,2.525 -1.9828,2.4388 -4.1568,-0.1806 z m -79.1126,-0.6549 c 1.1006,-1.7808 3.441,-1.7808 3.441,0 0,0.757 -0.9657,1.3764 -2.1459,1.3764 -1.1803,0 -1.763,-0.6194 -1.2951,-1.3764 z"
             id="path1315"
             style="fill:#000000;fill-opacity:1;stroke:#000000;stroke-opacity:1"
             sodipodi:nodetypes="cccccccccccccccccccccccccccccccccccccccccccccccccccccccccccccccccccccccccccccccccccccccccccccccccccccccccccccccccccccccccccccccccccccccccccccccccccc" />
          <path
             d="m -5596.2658,-2082.7583 c 7.3222,-8.4692 5.8686,-23.7028 44.192,-21.6133 9.7368,1.92 20.7746,11.2402 23.1357,20.0393 -38.0283,-7.6119 -49.879,-3.4124 -67.3277,1.574 z"
             id="path1316"
             sodipodi:nodetypes="cccc"
             style="fill:#000000;fill-opacity:1;stroke:#000000;stroke-width:5.04979229;stroke-miterlimit:4;stroke-opacity:1" />
          <path
             style="fill:#ffffff;fill-opacity:1;fill-rule:evenodd;stroke:#ffffff;stroke-width:0.84393806pt;stroke-linecap:butt;stroke-linejoin:miter;stroke-opacity:1"
             d="m -5626.2164,-2048.6725 c -1.6495,-12.6745 -9.2172,11.4604 -9.2172,14.594 0,3.2245 0.2693,5.5449 1.2429,7.3057 1.0383,1.8777 9.1387,7.4624 10.5651,8.4298 3.4848,2.3635 7.6817,0.438 11.1165,-1.1152 2.8411,-1.2844 -5.6632,-20.9503 -5.6632,-22.3055 0,-1.2566 -0.4188,-10.5785 -8.0441,-6.9088 z"
             id="path1317"
             sodipodi:nodetypes="ccccccc" />
          <path
             sodipodi:type="arc"
             style="fill:#000000;fill-opacity:1;stroke:#ffffff;stroke-width:1.125;stroke-linecap:square;stroke-linejoin:miter;stroke-miterlimit:4;stroke-opacity:1"
             id="path1318"
             sodipodi:cx="-5625.0591"
             sodipodi:cy="-2035.1515"
             sodipodi:rx="2.6259964"
             sodipodi:ry="2.4509299"
             d="m -5622.4331,-2035.1515 c 0,1.3536 -1.1757,2.4509 -2.626,2.4509 -1.4503,0 -2.626,-1.0973 -2.626,-2.4509 0,-1.3536 1.1757,-2.4509 2.626,-2.4509 1.4503,0 2.626,1.0973 2.626,2.4509 z"
             transform="matrix(2.13639,0,0,2.13639,6392.838,2312.179)" />
        </g>
      </g>
    </g>
    <g
       id="g3065"
       transform="matrix(0.42276821,0,0,0.42276821,31.57882,591.77474)">
      <g
         inkscape:label="Ebene 3"
         id="layer3">
        <path
           sodipodi:nodetypes="ccccccccc"
           id="path3757"
           d="M 76.531283,399.59014 253.28021,512.19508 323.2836,473.27902 284.01537,451.58366 409.39281,370.64023 238.32974,242.24044 96.942201,334.3341 123.74876,360.01618 76.531283,399.59014 z"
           style="opacity:0.6;color:#000000;fill:#000000;fill-opacity:1;fill-rule:evenodd;stroke:none;stroke-width:0.40000001;marker:none;visibility:visible;display:inline;overflow:visible;filter:url(#filter4266);enable-background:accumulate" />
      </g>
      <g
         style="display:inline"
         inkscape:label="Ebene2"
         id="layer2">
        <path
           id="path2769"
           style="fill:#000000;fill-opacity:1;fill-rule:evenodd;stroke:none;display:inline"
           d="m 135.08258,99.93789 55.67678,-34.23744 c 4.60745,-2.833267 6.90625,-3.140626 10.0625,-2.625001 -0.0937,-3.046875 2.12318,-6.692752 5.9375,-9.0625 l 52.7266,-32.75781 c 3.48124,-2.162814 6.94292,-2.030091 9.28077,0 l 57.40824,49.851028 c 2.90899,3.173911 2.05745,5.707788 0.63782,8.268061 3.52636,-0.91571 7.42442,-0.91419 10.87177,2.077126 l 56.94718,49.405336 c 3.27137,2.83862 3.73441,8.50738 2.82843,11.75565 2.41937,-1.52513 7.94155,-1.12886 11.04854,1.67938 l 59.75052,54.00528 c 2.29871,2.07768 3.21903,5.92621 0.7955,10.96016 l -26.39524,53.87888 c -0.68929,1.22484 -1.30573,1.48934 -2.97133,2.47626 1.90633,-0.1124 1.36271,2.46969 0.66164,4.0713 l -20.59285,41.77676 c -1.10146,2.072 -3.3634,3.89532 -5.62534,5.05551 1.70115,0.19327 1.99314,1.87859 1.20755,3.39812 l -16.19961,34.56522 c -0.80355,1.66907 -1.89537,3.40679 -4.23889,5.47258 l -46.11643,34.11813 c -0.75345,0.29534 -1.46993,1.61536 -2.85094,0.11804 0.22259,2.26185 -0.99859,3.47183 -2.91215,5.27622 L 314.52748,422.17087 105.86701,318.94709 128.31765,111.0577 c 0.78277,-7.24835 3.83971,-9.321 6.76493,-11.11981 z" />
        <g
           id="g5545"
           style="opacity:0.7;display:inline"
           transform="translate(-24.24064,-16.79955)">
          <path
             id="path2777"
             style="fill:#2ac44b;fill-opacity:1;fill-rule:evenodd;stroke:none"
             d="m 488.81898,230.84788 -22.08867,44.90934 c -0.76406,1.60684 -3.20265,4.41894 -4.27227,5.22823 l -37.6088,27.61629 c -2.11076,1.59705 -3.00139,-0.33024 -1.55825,-3.47691 l 14.4158,-34.26457 c 1.31135,-2.8593 2.77639,-5.59969 5.00164,-7.41328 l 43.34302,-33.51951 c 2.34236,-1.90904 3.80974,-1.27138 2.76753,0.92041 z" />
          <path
             id="path3664"
             style="fill:#ffffff;fill-opacity:1;fill-rule:evenodd;stroke:none"
             d="m 426.24931,279.79929 -19.35085,41.43314 c -0.72259,1.54716 -2.37219,2.85865 -3.75353,3.94614 l -45.59196,35.89309 c -2.76697,2.17835 -3.16965,-0.52564 -1.83479,-3.67616 l 14.06992,-33.20759 c 1.17777,-2.77974 2.62945,-5.0999 4.80016,-6.79645 l 47.60037,-37.20267 c 2.28496,-1.78584 5.04631,-2.49988 4.06068,-0.3895 z" />
          <path
             id="path3666"
             style="fill:#ffffff;fill-opacity:1;fill-rule:evenodd;stroke:none"
             d="m 462.59051,286.77228 -18.97443,38.835 c -0.69819,1.46424 -1.40889,2.657 -2.73536,3.67177 l -41.42237,31.14442 c -3.15246,2.41169 -3.54086,0.93632 -1.98052,-2.30482 L 413.694,324.43447 c 1.24404,-2.5841 2.47647,-4.87267 4.56008,-6.45652 l 41.18221,-31.30455 c 2.19326,-1.6672 4.10657,-1.89838 3.15422,0.0989 z" />
          <path
             id="path4553"
             style="fill:#ffff25;fill-opacity:1;fill-rule:evenodd;stroke:none"
             d="m 401.55023,334.31398 -17.83398,38.04709 c -0.69486,1.48242 -2.43006,2.78121 -5.75602,5.46131 l -45.47146,36.64133 14.44863,-37.35146 c 1.04426,-2.69956 3.0088,-5.11868 5.08164,-6.75594 l 45.15853,-35.66889 c 2.18195,-1.72343 5.32046,-2.3955 4.37266,-0.37344 z" />
          <path
             id="path4555"
             style="fill:#ffff25;fill-opacity:1;fill-rule:evenodd;stroke:none"
             d="m 378.32996,386.89255 -10.65624,25.03787 c -0.3412,1.08235 -1.17974,2.49626 -2.18407,3.16415 l -33.57067,26.19223 -16.10619,-8.94137 58.84518,-46.81677 c 3.35083,-2.66589 4.28542,-0.0234 3.67199,1.36389 z" />
          <path
             id="path4559"
             style="fill:#e88a1a;fill-opacity:1;fill-rule:evenodd;stroke:none"
             d="m 436.51164,338.64736 -15.95065,33.22734 c -0.65579,1.37669 -4.49153,4.52612 -5.73583,5.48346 l -38.2025,28.14788 c -1.2574,0.63404 -2.22267,0.84551 -1.39284,-0.7599 l 13.75679,-29.97084 c 1.12892,-2.44824 3.34463,-5.09832 5.3033,-6.5872 l 38.94714,-29.54458 c 2.06174,-1.56723 4.1691,-1.874 3.27459,0.004 z" />
        </g>
        <g
           id="g5553"
           transform="translate(-24.24064,-16.79955)"
           style="display:inline">
          <path
             id="path1891"
             style="fill:#ffff25;fill-opacity:1;fill-rule:evenodd;stroke:none"
             d="m 236.20143,72.574157 51.31736,-32.476202 c 1.91441,-1.211538 3.7142,-0.582799 4.89622,0.433842 l 50.33884,43.281718 c 2.0197,1.819121 1.91861,5.08654 -0.40818,6.293877 l -48.38122,32.296668 c -1.72115,1.15573 -5.26846,1.24998 -6.69357,0 L 235.82957,77.284447 c -1.48776,-1.218445 -1.21759,-3.530601 0.37186,-4.71029 z" />
          <path
             id="path2781"
             style="fill:#ffff25;fill-opacity:1;fill-rule:evenodd;stroke:none"
             d="m 377.33321,197.99504 46.04631,-34.83134 c 1.79273,-1.3561 6.12166,-0.92783 7.29297,0.0826 l 54.68608,48.5462 c 1.42057,1.22543 2.13553,5.28271 0.6223,6.49698 l -46.8139,34.71178 c -1.60432,1.28736 -6.5875,1.26636 -8.38054,-0.34785 l -54.17004,-48.76738 c -1.41801,-1.27659 -0.84948,-4.70617 0.71682,-5.89099 z" />
          <path
             id="path3668"
             style="fill:#2ac44b;fill-opacity:1;fill-rule:evenodd;stroke:none"
             d="m 307.27512,135.55018 47.57216,-32.56081 c 1.85323,-1.26845 6.14175,-1.07222 7.31082,-0.0614 l 50.70537,43.8395 c 2.30703,1.99463 2.15122,5.93657 0.57836,7.06944 l -46.43032,33.442 c -3.25331,2.34324 -6.62913,1.48215 -9.09246,-0.73723 L 307.05046,140.7108 c -1.41619,-1.27594 -1.39448,-4.05235 0.22466,-5.16058 z" />
          <path
             id="path1872"
             style="fill:#2ac44b;fill-opacity:1;fill-rule:evenodd;stroke:none"
             d="m 166.17866,117.49765 52.26949,-32.603477 c 3.20948,-2.136124 6.24072,-1.615992 8.53941,0.427134 l 48.16505,42.810163 c 2.59731,2.30855 2.70909,7.03125 0.0478,8.9164 l -47.58012,33.00016 c -3.24952,2.3018 -8.28216,1.2875 -10.70087,-0.94744 l -49.79163,-46.00843 c -1.39054,-1.28489 -2.57143,-4.51475 -0.94912,-5.59451 z" />
          <path
             id="path2765"
             style="fill:#2ac44b;fill-opacity:1;fill-rule:evenodd;stroke:none"
             d="m 238.64539,180.95758 48.97814,-33.56116 c 1.81209,-1.24169 6.01313,-1.05519 7.15109,-0.0601 l 49.59752,43.37073 c 4.33559,3.79127 4.15193,8.94878 1.54387,10.82759 l -55.931,40.292 -52.78206,-52.88678 c -2.77726,-2.78277 -0.76326,-6.47088 1.44244,-7.98229 z" />
          <path
             id="path2767"
             style="fill:#2ac44b;fill-opacity:1;fill-rule:evenodd;stroke:none"
             d="m 312.61373,248.69271 48.80717,-36.12453 c 1.75951,-1.30229 6.01722,-1.07948 7.12612,-0.0599 l 52.83597,48.58038 c 2.1883,2.01204 2.05641,5.73247 0.56375,6.89085 l -48.9126,37.95819 c -3.08742,2.39598 -6.50013,1.48666 -8.86275,-0.71861 L 312.39475,256.8908 c -2.48697,-2.32133 -2.18107,-6.42171 0.21898,-8.19811 z" />
        </g>
        <path
           id="path4565"
           style="fill:#000000;fill-opacity:1;fill-rule:evenodd;stroke:none;display:inline"
           d="m 316.50936,387.70045 c -1.17296,-5.67248 -3.5,-11 -3.5,-11 0,0 4.08507,-3.83358 2,-13.25 l -31.305,-141.37698 c -2.11204,-9.53823 -5.12742,-15.89203 -17.32411,-20.5061 L 89.63328,134.70305 c -1.86981,-1.36202 -10.1627,-3.29498 -15.772969,0.18306 L 18.50936,169.20045 c -4.068826,2.52243 -8.268555,6.51195 -4.375,18.5 l 19,58.5 c 1.522205,4.68679 8.875,7.18566 8.875,7.18566 0,0 -4.932318,3.94181 -2.375,11.81434 l 19.125,58.875 c 0.871621,3.8437 5.646988,6.13481 5.646988,6.13481 0,0 -3.659289,1.50339 -1.771988,7.24019 l 15.75,47.875 c 1.61336,4.90409 3.00173,10.51597 8.25,13.625 l 46,27.25 c 4.88682,2.81654 5.91918,-1.46242 5.91918,-1.46242 0,0 -0.53546,3.61973 4.67034,7.05194 l 50.53548,30.03548 c 7.13692,4.17374 10.98223,-1.25368 10.98223,-1.25368 0,0 -2.84961,4.24405 5.25521,8.98223 l 49.69269,29.05097 c 4.56202,2.66701 8.63434,2.17154 12.81987,-1.15452 l 52.78172,-41.94336 c 3.42778,-2.72391 4.23579,-4.49668 2.60746,-12.72792 l -11.38918,-55.07872 z" />
        <g
           transform="translate(0,10)"
           id="g1996"
           style="display:inline">
          <path
             id="path2775"
             style="fill:#355ee5;fill-opacity:1;fill-rule:evenodd;stroke:none"
             d="m 147.57217,208.52315 51.08014,-35.89504 c 3.03612,-2.01927 7.88349,-1.5533 11.59823,0.053 l 51.47946,20.0407 c 3.43745,1.48638 3.63632,4.79409 1.24858,6.43995 l -54.05072,36.23956 c -4.26823,2.94206 -8.704,2.9653 -12.25526,1.34912 L 148.72764,217.2834 c -4.53966,-2.06599 -5.50478,-5.86761 -1.15547,-8.76025 z" />
          <path
             id="path4574"
             style="fill:#ffff25;fill-opacity:1;fill-rule:evenodd;stroke:none"
             d="M 81.826791,181.51841 132.2171,147.83355 c 2.98224,-1.9444 7.32196,-1.59366 10.98668,-0.11576 l 43.12805,16.37515 c 4.77957,1.92749 2.95267,5.30207 0.61366,6.8978 l -49.92648,33.93396 c -4.18112,2.85246 -8.48803,3.88739 -11.96304,2.32637 L 81.498181,190.14421 c -4.44218,-1.99549 -4.96366,-5.17529 0.32861,-8.6258 z" />
          <path
             id="path4576"
             style="fill:#f03031;fill-opacity:1;fill-rule:evenodd;stroke:none"
             d="m 23.542193,159.35548 49.833924,-31.36153 c 4.350721,-2.68606 9.058321,-2.95513 12.636501,-1.50777 l 34.783772,13.57057 c 4.66672,1.88766 3.5205,4.97118 1.18363,6.4506 l -50.704228,32.56288 c -4.18844,2.65161 -6.50065,2.68071 -9.922216,1.21791 L 21.609288,164.13335 c -2.699064,-1.1539 -0.520981,-3.26288 1.932905,-4.77787 z" />
        </g>
        <g
           id="g5571"
           style="opacity:0.8;display:inline"
           transform="translate(-24.24064,-16.79955)">
          <path
             id="path2773"
             style="fill:#f03031;fill-opacity:1;fill-rule:evenodd;stroke:none"
             d="m 192.39769,347.70717 13.73882,53.99257 c 0.90183,3.54414 3.97372,7.18956 9.00759,9.56187 l 43.23331,20.3745 c 4.30808,2.03026 8.55729,3.13269 6.3518,-5.51944 l -13.78032,-54.06015 c -1.28427,-5.03817 -5.04822,-6.53987 -7.78029,-7.85069 l -45.10653,-21.64154 c -2.87585,-1.3798 -7.18814,-0.84538 -5.66438,5.14288 z" />
          <path
             id="path4572"
             style="fill:#ffffff;fill-opacity:1;fill-rule:evenodd;stroke:none"
             d="m 163.9248,261.4716 16.17252,54.42808 c 1.02166,3.43836 2.96056,7.83911 9.57042,10.84968 l 43.87521,19.98367 c 4.25099,1.93618 7.78126,2.30448 5.49434,-6.14918 l -14.56443,-56.23264 c -1.33167,-4.9226 -2.71116,-7.84121 -7.23775,-9.69365 l -47.75459,-20.68223 c -5.76632,-2.35979 -7.73412,0.16495 -5.55572,7.49627 z" />
          <path
             id="path4578"
             style="fill:#355ee5;fill-opacity:1;fill-rule:evenodd;stroke:none"
             d="m 214.66434,428.40113 11.38189,41.86326 c 0.88477,3.35732 2.46406,10.18836 6.98799,12.91704 l 45.9692,26.64822 c 3.87165,2.33525 5.73466,-2.09636 3.94304,-8.84192 l -12.0391,-46.57649 c -1.26708,-4.77067 -4.76234,-7.6018 -7.29219,-8.97153 l -44.5679,-21.9211 c -4.14065,-2.24186 -5.87784,-0.79007 -4.38293,4.88252 z" />
          <path
             id="path4580"
             style="fill:#355ee5;fill-opacity:1;fill-rule:evenodd;stroke:none"
             d="m 100.97815,236.8011 15.60084,49.61704 c 1.04597,3.25262 3.82589,9.43203 10.11083,12.32407 l 37.74433,17.36818 c 4.04204,1.85995 7.63677,1.41647 5.23354,-6.5717 l -14.75664,-49.0501 c -1.3994,-4.65155 -3.23683,-10.16405 -7.51609,-12.00591 l -40.4104,-17.39323 c -5.45126,-2.3463 -8.23666,-1.22364 -6.00641,5.71165 z" />
          <path
             id="path4582"
             style="fill:#2ac44b;fill-opacity:1;fill-rule:evenodd;stroke:none"
             d="m 42.13677,210.49551 15.12457,46.86372 c 1.459179,5.53235 2.577028,8.11268 6.561988,10.09702 l 37.066352,15.74753 c 5.09216,1.64488 4.93806,-1.2121 2.53422,-8.99955 L 90.393717,230.60475 c -1.399769,-4.53467 -4.089046,-9.48756 -8.281057,-11.26092 L 48.005057,204.91521 c -5.340115,-2.25904 -7.979769,-1.21683 -5.868287,5.5803 z" />
          <path
             id="path4584"
             style="fill:#e88a1a;fill-opacity:1;fill-rule:evenodd;stroke:none"
             d="m 129.023,320.08863 13.54111,46.5094 c 0.95803,3.2905 3.25867,6.86375 9.38291,10.12745 l 37.62098,20.04881 c 3.93867,2.09898 5.82411,0.3372 4.53298,-4.68091 l -12.41319,-48.24477 c -1.21409,-4.71867 -2.1379,-9.05257 -6.34478,-11.0872 L 134.3312,312.92633 c -5.87971,-2.84369 -7.35091,0.14624 -5.3082,7.1623 z" />
          <path
             id="path5471"
             style="fill:#355ee5;fill-opacity:1;fill-rule:evenodd;stroke:none"
             d="m 68.130708,288.27938 15.117773,48.64592 c 1.352452,5.45223 2.578517,7.17192 8.606156,10.02557 l 33.561853,16.50906 c 3.87655,1.83527 5.3097,-0.10942 3.75561,-5.4594 l -14.09634,-49.92931 c -1.30617,-4.49652 -3.72666,-9.3497 -7.83677,-11.15934 L 71.328987,279.76246 c -4.478461,-1.97182 -5.37503,1.84035 -3.198279,8.51692 z" />
          <path
             id="path5473"
             style="fill:#ffffff;fill-opacity:1;fill-rule:evenodd;stroke:none"
             d="m 148.77144,396.60854 12.7386,42.3088 c 0.93996,3.21568 3.97747,6.6604 9.82026,10.10763 l 37.36151,21.88573 c 3.75765,2.21701 6.63239,0.98457 5.3388,-3.91277 L 201.8959,421.05744 c -1.21639,-4.60511 -2.4097,-8.21186 -6.44683,-10.34968 L 154.195,389.13802 c -7.85952,-4.16195 -7.56855,0.13236 -5.42356,7.47052 z" />
          <path
             id="path5475"
             style="fill:#ffff25;fill-opacity:1;fill-rule:evenodd;stroke:none"
             d="m 91.291886,362.65224 13.353504,41.4094 c 0.9706,3.20002 2.34504,7.21392 8.16057,10.68222 l 36.23343,21.25456 c 3.74013,2.23057 6.29918,-0.0383 4.97365,-4.70827 l -13.92616,-44.39101 c -1.29813,-4.57348 -3.61536,-7.42521 -7.58578,-9.66721 L 95.373596,356.39551 c -5.54922,-3.13352 -6.151247,-0.5664 -4.08171,6.25673 z" />
        </g>
        <path
           id="path5477"
           style="fill:url(#radialGradient3148);fill-opacity:1;fill-rule:evenodd;stroke:none;display:inline"
           d="m 209.92037,256.22148 c 0,3.04618 -2.46942,5.5156 -5.51561,5.5156 -3.04618,0 -5.5156,-2.46942 -5.5156,-5.5156 0,-3.04619 2.46942,-5.51561 5.5156,-5.51561 3.04619,0 5.51561,2.46942 5.51561,5.51561 l 0,0 z" />
        <use
           xlink:href="#path5477"
           height="550"
           width="544"
           y="0"
           x="0"
           id="use5487"
           style="opacity:0.6;display:inline"
           transform="translate(-110.3087,26.16295)" />
        <use
           xlink:href="#path5477"
           height="550"
           width="544"
           y="0"
           x="0"
           id="use5489"
           style="opacity:0.9;display:inline"
           transform="translate(24.39518,85.55992)" />
        <use
           xlink:href="#path5477"
           height="550"
           width="544"
           y="0"
           x="0"
           id="use5491"
           style="opacity:0.4;display:inline"
           transform="translate(-87.32769,102.5305)" />
        <use
           xlink:href="#path5477"
           height="550"
           width="544"
           y="0"
           x="0"
           id="use5493"
           style="opacity:0.5;display:inline"
           transform="translate(-26.16296,135.7645)" />
        <use
           xlink:href="#path5477"
           height="550"
           width="544"
           y="0"
           x="0"
           id="use5495"
           style="opacity:0.6;display:inline"
           transform="translate(42.42641,167.5843)" />
        <use
           xlink:href="#path5477"
           height="550"
           width="544"
           y="0"
           x="0"
           id="use5497"
           transform="translate(-71.06423,-30.05204)"
           style="display:inline" />
        <use
           xlink:href="#path5477"
           height="550"
           width="544"
           y="0"
           x="0"
           id="use5499"
           transform="translate(-134.7038,-56.56854)"
           style="display:inline" />
        <use
           xlink:href="#path5477"
           height="550"
           width="544"
           y="0"
           x="0"
           id="use5501"
           style="opacity:0.6;display:inline"
           transform="translate(-45.25483,53.74012)" />
        <use
           xlink:href="#path5477"
           height="550"
           width="544"
           y="0"
           x="0"
           id="use5503"
           transform="translate(-8.485281,-93.3381)"
           style="display:inline" />
        <use
           xlink:href="#path5477"
           height="550"
           width="544"
           y="0"
           x="0"
           id="use5505"
           transform="translate(60.81118,-143.5427)"
           style="display:inline" />
        <use
           xlink:href="#path5477"
           height="550"
           width="544"
           y="0"
           x="0"
           id="use5507"
           transform="translate(131.5219,-78.48885)"
           style="display:inline" />
        <use
           xlink:href="#path5477"
           height="550"
           width="544"
           y="0"
           x="0"
           id="use5509"
           transform="translate(205.061,-12.72792)"
           style="display:inline" />
        <use
           xlink:href="#path5477"
           height="550"
           width="544"
           y="0"
           x="0"
           id="use5511"
           transform="translate(135.0574,40.30509)"
           style="display:inline" />
        <rect
           id="rect5513"
           style="opacity:0.7;fill:url(#radialGradient3150);fill-opacity:1;fill-rule:evenodd;stroke:none;display:inline"
           transform="matrix(0.7512382,0.6600312,-0.6600312,0.7512382,0,0)"
           y="-92.592155"
           x="284.54941"
           height="12.374357"
           width="88.034729" />
        <use
           xlink:href="#rect5513"
           height="550"
           width="544"
           y="0"
           x="0"
           id="use5527"
           style="opacity:0.5;display:inline"
           transform="matrix(0.999094,0.04254869,-0.04254869,0.999094,15.740595,108.20865)" />
        <use
           xlink:href="#rect5513"
           height="550"
           width="544"
           y="0"
           x="0"
           id="use5529"
           style="opacity:0.5;display:inline"
           transform="translate(76.5,67)" />
        <use
           xlink:href="#rect5513"
           height="550"
           width="544"
           y="0"
           x="0"
           id="use5531"
           style="opacity:0.3;display:inline"
           transform="translate(-69.5,-65)" />
        <use
           xlink:href="#rect5513"
           height="550"
           width="544"
           y="0"
           x="0"
           id="use5533"
           style="opacity:0.4;display:inline"
           transform="translate(-138,-15)" />
        <use
           xlink:href="#rect5513"
           height="550"
           width="544"
           y="0"
           x="0"
           id="use5535"
           style="opacity:0.3;display:inline"
           transform="matrix(0.788789,-0.38434,0.181918,0.891409,-162.9638,196.7871)" />
        <use
           xlink:href="#rect5513"
           height="550"
           width="544"
           y="0"
           x="0"
           id="use5537"
           style="opacity:0.4;display:inline"
           transform="matrix(0.795341,-0.370591,0.166418,0.894432,-95.70249,218.8968)" />
        <use
           xlink:href="#rect5513"
           height="550"
           width="544"
           y="0"
           x="0"
           id="use5539"
           style="opacity:0.2;display:inline"
           transform="matrix(0.788789,-0.38434,0.181918,0.891409,-224.0668,170.534)" />
        <use
           xlink:href="#rect5513"
           height="550"
           width="544"
           y="0"
           x="0"
           id="use5543"
           style="opacity:0.9;display:inline"
           transform="matrix(0.421936,0.690779,-0.857141,0.0928922,334.5446,100.68382)" />
        <g
           id="g5566"
           style="opacity:0.9;display:inline"
           transform="translate(-24.24064,-16.79955)">
          <path
             id="path2771"
             style="fill:#f03031;fill-opacity:1;fill-rule:evenodd;stroke:none"
             d="m 300.24942,241.47739 12.24246,57.32737 c 0.78462,3.67408 -0.35811,9.63287 -2.61174,11.2905 l -50.95161,37.22883 c -5.56095,4.09028 -8.60491,-0.11843 -9.32916,-3.01734 l -15.08848,-60.39383 c -1.29464,-5.18196 1.75576,-8.7805 4.33663,-10.52115 l 52.05686,-35.10942 c 2.71668,-1.83225 8.22106,-2.06815 9.34504,3.19504 z" />
          <path
             id="path4561"
             style="fill:#2ac44b;fill-opacity:1;fill-rule:evenodd;stroke:none"
             d="m 320.38146,325.64397 12.14737,56.53581 c 0.79697,3.49167 -1.47185,8.81627 -3.56223,10.47247 l -45.77208,35.27033 c -3.47817,2.75574 -9.91845,2.65716 -10.89031,-1.31928 l -13.76209,-57.93587 c -1.20888,-4.94621 2.29474,-9.44985 4.6599,-11.24228 l 48.50915,-34.35036 c 3.19153,-2.41871 7.52862,-2.43271 8.67029,2.56918 z" />
          <path
             id="path4563"
             style="fill:#ffff25;fill-opacity:1;fill-rule:evenodd;stroke:none"
             d="m 337.92421,407.53655 11.59899,53.46395 c 0.73015,3.4368 -0.56859,7.80732 -2.62258,9.42794 l -46.11618,36.50795 c -5.09511,4.02009 -8.13159,2.072 -9.11249,-1.82217 l -12.93043,-54.64955 c -1.22012,-4.84388 2.721,-8.09311 5.05035,-9.83949 l 45.62657,-35.11855 c 3.14323,-2.35657 7.45982,-2.89337 8.50577,2.02992 z" />
        </g>
      </g>
      <g
         style="display:inline"
         inkscape:label="Ebene"
         id="layer1-9">
        <path
           sodipodi:nodetypes="ccccc"
           id="path3193"
           d="m 145.37695,151.03279 c 17.71583,7.22446 25.43195,7.4393 42.53717,17.72705 l -6.14625,-10.08354 c 4.63971,6.40008 -14.39336,-14.0842 -21.69786,-16.47937 -4.55848,-0.92857 2.97013,-1.62312 -14.69306,8.83586 z"
           style="color:#000000;fill:url(#linearGradient3201);fill-opacity:1;fill-rule:evenodd;stroke:none;stroke-width:0.40000001;marker:none;visibility:visible;display:inline;overflow:visible;filter:url(#filter3753);enable-background:accumulate" />
        <path
           sodipodi:nodetypes="cccsc"
           id="path3275"
           d="m 136.57196,115.27793 -8.00708,27.48694 9.02216,7.33375 c -2.02914,-1.19124 13.57008,-12.91547 13.27224,-20.22856 -0.34628,-8.50223 -11.6498,-12.77015 -14.28732,-14.59213 z"
           style="color:#000000;fill:url(#linearGradient3283);fill-opacity:1;fill-rule:evenodd;stroke:none;stroke-width:0.40000001;marker:none;visibility:visible;display:inline;overflow:visible;filter:url(#filter3725);enable-background:accumulate" />
        <path
           transform="matrix(1,0,0,1.0785674,0,-17.61295)"
           sodipodi:nodetypes="ccccccc"
           id="path3489"
           d="m 300.99816,292.81945 14.00429,59.20551 0.76329,-13.16539 -5.21209,-6.51511 9.5555,3.90907 c 5.6423,-19.57659 5.64898,-37.90082 0.86868,-55.16128 l -19.97967,11.7272 z"
           style="color:#000000;fill:url(#linearGradient3497);fill-opacity:1;fill-rule:evenodd;stroke:none;stroke-width:0.40000001;marker:none;visibility:visible;display:inline;overflow:visible;filter:url(#filter3591);enable-background:accumulate" />
        <path
           sodipodi:nodetypes="cccc"
           id="path3595"
           d="m 288.40227,257.64801 6.94946,32.57556 c 6.26199,-4.99443 8.75903,-11.37626 19.58899,-7.23475 l -26.53845,-25.34081 z"
           style="color:#000000;fill:url(#linearGradient3603);fill-opacity:1;fill-rule:evenodd;stroke:none;stroke-width:0.40000001;marker:none;visibility:visible;display:inline;overflow:visible;filter:url(#filter3689);enable-background:accumulate" />
      </g>
    </g>
    <g
       transform="matrix(1.0943966,0,0,0.93564608,308.92072,505.96126)"
       id="g1935"
       style="fill:#333333">
      <polygon
         id="polygon1945"
         points="274.572,266.94 207.9,227.916 207.9,266.94 141.228,227.916 141.228,318.564 362.988,318.564 360.252,154.116 343.476,154.116 341.604,266.94 274.572,227.916 274.572,227.916 274.572,266.94 "
         style="fill:#333333" />
      <path
         id="path1947"
         d="m 205.38,128.34 c 7.776,9.504 19.368,15.264 31.68,15.264 7.2,0 14.256,-2.088 20.448,-5.76 l 9.144,9.36 c -23.112,16.056 -54.648,11.088 -71.784,-11.376 l 10.512,-7.488 z"
         style="fill:#333333" />
      <path
         id="path1949"
         d="m 339.372,142.668 12.744,-4.608 c -9.648,-14.688 -26.064,-23.688 -43.848,-23.688 -13.176,0 -25.776,4.968 -35.424,13.824 l 9.144,8.784 c 17.064,-15.048 43.56,-12.456 57.384,5.688 z"
         style="fill:#333333" />
    </g>
    <text
       xml:space="preserve"
       style="font-size:32px;font-style:normal;font-variant:normal;font-weight:900;font-stretch:normal;text-align:start;line-height:125%;writing-mode:lr-tb;text-anchor:start;fill:#000000;fill-opacity:1;stroke:none;font-family:Arial Black;-inkscape-font-specification:Arial Black Heavy"
       x="345.29184"
       y="717.52679"
       id="text3003-9"
       sodipodi:linespacing="125%"><tspan
         sodipodi:role="line"
         x="345.29184"
         y="717.52679"
         style="font-size:84px;font-style:normal;font-variant:normal;font-weight:bold;font-stretch:normal;text-align:center;line-height:125%;writing-mode:lr-tb;text-anchor:middle;font-family:DejaVu Sans Condensed;-inkscape-font-specification:'DejaVu Sans Condensed,'"
         id="tspan4386-0">...</tspan></text>
  </g>
</svg>
